{"glyphs":{"0":{"ha":1089,"x_min":71,"x_max":1039,"o":"m 581 1287 q 823 1202 711 1287 l 928 1047 q 982 941 955 1012 q 1036 761 1010 898 l 1039 713 q 1023 616 1039 669 l 1023 604 q 1039 581 1023 581 l 1036 509 l 1036 423 q 982 201 1036 363 q 929 148 968 168 q 716 24 898 115 q 567 -30 639 -30 l 564 -30 q 368 1 368 -14 q 239 103 308 23 l 239 110 l 244 115 l 251 115 l 258 110 l 264 110 l 264 115 q 244 136 262 136 l 235 136 l 232 126 q 172 214 208 134 q 153 255 163 224 q 71 661 99 312 l 71 670 q 96 850 84 850 q 153 1062 99 922 q 198 1135 176 1086 q 581 1287 332 1287 m 545 1268 l 545 1264 q 595 1246 545 1253 l 624 1246 l 624 1255 q 586 1268 616 1268 l 545 1268 m 669 1249 l 694 1242 l 704 1242 l 709 1246 q 678 1255 709 1255 l 673 1255 l 669 1249 m 747 1227 l 747 1226 q 833 1157 798 1166 l 834 1157 l 834 1161 q 749 1227 784 1227 l 747 1227 m 709 1208 q 738 1190 722 1190 l 749 1190 l 749 1195 q 720 1214 749 1204 l 713 1214 l 709 1208 m 602 1211 l 602 1208 q 675 1188 621 1195 l 678 1190 l 678 1195 q 628 1211 678 1204 l 602 1211 m 197 713 q 206 654 198 667 l 201 625 l 201 613 l 241 400 q 350 208 283 277 q 510 138 453 138 q 728 195 595 138 q 897 369 897 294 q 947 623 926 467 l 947 718 q 872 960 947 857 q 761 1076 872 977 q 631 1166 688 1166 l 549 1185 l 533 1185 q 368 1095 427 1185 q 296 1012 327 1063 q 217 907 277 1012 q 197 713 197 841 m 264 1122 l 264 1116 q 296 1147 273 1116 l 296 1157 l 293 1157 q 264 1122 285 1157 m 222 1093 l 229 1093 l 236 1100 l 236 1104 q 222 1093 222 1104 m 273 1038 l 282 1038 q 302 1059 298 1048 l 302 1065 l 286 1065 q 273 1038 273 1057 m 899 1043 l 899 1040 q 944 914 899 1006 q 985 827 951 911 q 991 818 985 818 l 998 825 l 998 831 q 928 1015 987 880 q 899 1043 906 1043 m 991 774 l 991 772 l 1004 736 q 986 694 1004 727 l 986 692 q 1001 667 986 677 l 1005 667 q 1020 724 1015 667 q 996 774 1009 760 l 991 774 m 103 761 l 103 755 l 111 749 l 113 749 l 118 753 l 118 762 l 113 768 l 111 768 l 103 761 m 106 715 l 102 686 l 102 666 q 111 711 111 666 l 111 715 l 106 715 m 153 637 l 151 620 q 201 376 151 525 l 227 340 l 232 340 l 232 343 q 184 562 216 396 q 160 637 174 574 l 153 637 m 140 373 l 140 366 l 144 366 l 144 373 l 140 373 m 935 217 l 935 214 l 941 214 q 991 312 963 214 l 991 315 l 986 321 q 935 217 975 321 m 163 258 l 163 252 q 210 189 176 247 l 227 176 l 239 176 l 239 179 q 182 271 205 256 l 179 271 q 163 258 168 267 m 312 182 l 312 176 q 454 94 369 94 q 476 100 476 96 q 407 129 475 106 l 312 182 m 239 174 l 236 167 q 251 157 239 157 l 254 157 l 258 163 l 258 167 l 251 174 l 239 174 m 476 87 q 510 69 476 75 l 526 69 q 545 88 545 71 l 564 88 q 728 134 605 88 l 728 136 l 726 138 l 711 138 l 631 119 q 479 88 585 119 l 476 87 m 567 43 l 567 41 l 571 37 l 600 37 q 692 68 692 57 q 732 94 726 79 l 732 98 l 730 98 q 567 43 618 72 m 279 87 q 312 58 279 69 l 315 60 q 282 87 297 87 l 279 87 m 434 53 l 434 43 q 519 12 500 12 l 533 12 l 533 22 q 434 53 473 53 z "},"1":{"ha":772,"x_min":33,"x_max":792,"o":"m 324 1427 q 431 1396 431 1417 q 445 1377 431 1377 l 450 1371 l 429 1355 l 429 1348 l 435 1348 q 452 1358 444 1358 q 460 1336 460 1358 l 476 819 q 457 500 457 734 l 457 491 q 464 304 457 351 q 450 279 450 298 q 460 254 452 254 l 464 254 l 467 269 l 469 269 q 488 180 480 269 l 486 178 l 476 178 q 452 193 461 193 l 450 190 l 450 183 q 498 155 450 155 q 780 153 780 168 l 780 151 q 751 137 780 145 l 749 134 l 749 132 q 783 119 757 125 q 792 99 792 109 q 746 -5 772 -5 l 711 -8 l 612 1 l 552 -1 q 47 11 47 -8 q 33 39 33 28 l 33 42 l 52 106 l 45 118 l 45 119 q 83 156 45 149 l 104 163 l 283 168 q 308 197 305 168 l 308 216 q 298 475 308 370 q 334 1032 315 1032 l 336 1057 q 309 1218 327 1218 q 198 1108 225 1165 l 186 1104 q 49 1180 80 1142 q 42 1206 43 1180 l 46 1210 l 58 1208 l 72 1208 q 233 1339 109 1208 q 293 1417 274 1377 q 324 1427 313 1427 m 346 1364 l 346 1362 l 350 1358 l 353 1358 q 372 1364 370 1358 l 372 1367 l 366 1371 l 359 1371 q 346 1364 346 1370 m 283 1358 l 289 1352 l 293 1352 l 305 1355 l 305 1360 l 300 1364 l 290 1364 l 283 1358 m 431 1320 l 431 1314 l 435 1310 l 441 1314 l 441 1320 l 435 1324 l 431 1320 m 156 1168 l 156 1162 l 157 1162 q 217 1199 186 1162 q 319 1313 319 1291 l 312 1313 q 156 1168 198 1217 m 385 1260 l 385 1257 l 393 1251 l 400 1253 l 400 1272 l 397 1275 l 397 1276 q 385 1260 385 1274 m 369 1260 l 357 1229 l 357 1219 l 365 1213 l 374 1213 q 388 1219 387 1213 l 388 1225 q 369 1237 388 1230 l 366 1238 l 366 1244 q 376 1260 376 1255 l 369 1260 m 119 1194 l 119 1190 l 127 1190 q 163 1219 149 1190 l 160 1222 l 157 1222 q 119 1194 133 1211 m 397 1127 l 403 997 l 407 997 q 419 1089 419 1028 l 419 1143 q 410 1206 419 1206 q 397 1127 401 1206 m 397 842 l 397 821 l 403 785 l 407 785 q 422 895 422 785 l 422 906 l 416 911 q 397 842 399 903 m 338 496 l 338 488 l 343 488 l 343 496 l 338 496 m 404 346 l 403 345 l 403 332 l 410 326 l 414 326 l 419 330 l 419 335 q 404 346 414 335 m 414 288 q 404 209 404 256 l 404 193 q 422 164 404 172 l 426 164 q 433 175 431 164 q 416 288 429 288 l 414 288 m 331 231 l 334 222 l 336 222 l 343 231 l 343 235 l 338 240 l 331 231 m 365 203 l 365 190 l 369 184 l 374 184 l 374 203 l 369 209 l 365 203 m 114 144 l 114 138 l 121 132 l 123 132 l 130 138 l 130 144 l 114 144 m 73 91 l 73 84 l 80 77 l 83 77 q 127 99 103 77 l 126 99 l 73 91 m 492 104 l 492 99 l 621 118 l 631 119 l 631 125 q 492 104 586 132 m 145 80 l 145 72 l 156 71 l 174 71 q 221 80 221 72 l 216 84 l 187 84 l 145 80 m 336 88 l 334 85 l 334 83 q 350 76 342 76 l 350 80 q 336 88 347 88 m 298 80 l 302 76 l 309 76 l 315 80 l 315 85 l 302 85 l 298 80 m 366 69 l 366 66 q 423 57 366 57 l 426 57 q 441 69 441 57 q 423 76 431 76 l 374 76 l 366 69 m 730 56 l 730 49 l 736 42 q 758 72 758 42 l 758 87 l 754 91 l 746 91 q 730 56 730 80 m 476 54 q 438 35 465 35 l 438 33 q 495 22 438 23 l 498 22 q 545 68 536 52 q 476 54 545 81 m 571 68 l 571 65 q 625 58 571 58 l 628 61 l 628 62 q 612 72 624 72 l 571 68 m 650 68 l 651 61 l 656 61 l 661 65 l 661 68 l 656 72 l 650 68 m 559 46 l 559 42 l 566 42 l 566 46 l 559 46 m 697 18 l 697 15 q 713 8 697 9 q 732 18 732 11 l 732 20 l 726 27 l 718 27 q 697 18 700 27 z "},"2":{"ha":962,"x_min":37,"x_max":926,"o":"m 568 1302 q 761 1256 628 1302 q 831 1208 831 1221 q 895 1109 895 1145 l 926 998 q 844 793 903 921 q 610 637 772 731 q 445 515 481 518 l 366 445 q 191 290 193 297 q 163 198 178 260 l 163 193 q 255 172 163 179 l 255 167 l 195 163 l 195 155 q 414 126 358 126 q 278 164 408 134 l 278 170 l 281 170 q 433 141 315 170 l 537 134 l 628 144 l 675 144 q 810 110 799 134 l 867 94 l 879 84 l 879 79 l 848 69 l 848 68 l 856 60 l 860 60 l 884 62 l 886 60 q 875 -23 883 -23 l 654 -18 l 609 -18 q 480 -26 555 -18 q 84 8 194 8 q 50 41 50 16 q 37 126 37 77 l 37 183 q 75 391 37 346 l 122 420 q 134 454 134 441 q 262 552 255 552 q 401 647 315 572 l 410 648 q 372 618 387 618 l 372 610 l 382 610 q 430 651 408 625 l 430 656 l 423 656 l 423 661 l 559 746 q 724 879 669 823 q 781 1012 766 928 q 720 1122 781 1085 q 549 1142 704 1130 q 521 1147 549 1146 q 400 1072 456 1147 q 385 1021 385 1040 l 385 1009 l 388 1008 q 326 983 388 993 l 248 971 l 248 970 l 236 971 l 221 971 l 174 967 l 170 974 q 227 1135 193 1103 q 378 1237 336 1234 q 525 1297 407 1265 l 568 1302 m 582 1283 l 582 1278 l 594 1265 l 610 1265 l 618 1274 l 618 1275 q 600 1283 616 1283 l 582 1283 m 480 1255 l 480 1252 l 483 1252 q 559 1268 559 1252 l 549 1275 l 528 1275 q 480 1255 480 1265 m 713 1261 l 713 1259 q 762 1236 713 1248 l 762 1237 q 715 1261 762 1249 l 713 1261 m 411 1226 l 411 1221 l 435 1221 l 442 1227 l 442 1230 l 430 1233 q 411 1226 411 1232 m 430 1147 l 430 1145 l 442 1145 l 449 1152 l 449 1154 l 438 1154 l 430 1147 m 761 1147 l 761 1145 q 781 1131 769 1131 l 784 1131 q 789 1138 789 1131 q 768 1152 789 1147 l 765 1152 l 761 1147 m 793 1123 l 793 1119 q 827 1088 827 1116 l 837 1074 l 838 1076 l 838 1088 q 812 1131 838 1131 q 793 1123 795 1131 m 376 1085 l 381 1081 l 382 1081 q 410 1112 410 1097 l 410 1114 l 404 1114 q 376 1085 395 1114 m 316 1034 l 316 1028 l 321 1024 l 324 1024 l 324 1034 l 316 1034 m 867 962 l 867 955 l 869 955 l 876 962 l 876 970 l 875 970 l 867 962 m 822 895 l 822 886 q 834 875 834 886 l 841 875 l 841 886 l 831 895 l 822 895 m 796 827 l 799 825 l 799 822 q 822 844 811 827 l 822 848 l 818 848 q 796 827 803 841 m 746 791 l 746 789 l 749 789 l 772 793 q 758 808 772 808 q 746 791 746 804 m 742 753 l 742 749 q 808 789 776 754 l 803 793 q 742 753 762 772 m 651 715 l 651 708 l 656 708 l 661 713 l 658 715 l 658 718 l 651 715 m 362 487 l 369 487 q 420 521 380 487 q 439 543 433 521 l 442 544 l 442 549 l 438 549 q 362 492 414 549 l 362 487 m 245 502 l 245 495 l 248 495 q 286 533 271 495 l 277 533 q 245 502 245 509 m 157 468 l 160 448 q 134 414 134 425 l 141 414 q 189 461 172 433 l 189 464 l 183 468 l 157 468 m 316 442 l 316 438 l 321 438 l 328 445 l 328 449 l 324 449 l 316 442 m 174 340 l 174 334 l 179 334 q 201 363 201 350 l 201 366 l 193 366 q 174 340 174 354 m 117 134 l 117 125 l 122 119 l 126 125 l 126 134 l 122 138 l 117 134 m 167 129 l 170 126 l 193 126 l 193 132 l 182 134 l 172 134 l 167 129 m 673 117 l 673 115 l 680 107 l 705 107 l 711 113 l 711 117 l 686 119 l 673 117 m 65 79 l 65 75 l 69 69 l 72 69 l 77 75 l 72 81 l 65 79 m 113 41 l 113 39 l 125 37 q 155 46 155 39 l 153 49 l 126 49 q 113 41 113 46 m 723 20 l 743 20 q 768 30 768 23 l 768 31 l 762 37 l 751 37 q 723 20 741 37 m 791 11 l 796 5 l 818 5 q 846 15 846 5 l 846 18 q 838 22 846 22 q 791 11 792 19 z "},"3":{"ha":886,"x_min":37,"x_max":856,"o":"m 43 1309 q 401 1278 168 1295 q 680 1240 433 1267 q 777 1188 777 1218 q 713 1097 768 1161 q 628 982 713 1090 q 525 872 628 966 l 505 844 l 505 837 l 506 837 q 628 859 528 837 q 787 780 662 859 q 856 632 822 743 l 856 612 q 812 302 856 361 q 616 87 774 198 q 331 -1 524 42 q 255 -11 305 -11 l 240 -11 l 231 -14 q 84 27 145 -14 l 84 33 q 122 109 92 38 l 126 109 l 126 110 l 167 109 l 186 109 q 433 194 347 109 l 594 298 q 694 416 688 378 q 732 613 732 475 q 727 632 730 632 l 732 647 q 694 708 732 686 q 637 746 682 746 l 590 746 q 553 736 553 746 l 553 732 q 673 694 631 732 l 673 692 l 666 689 q 620 713 647 689 l 604 716 q 258 621 461 716 l 239 609 l 231 612 l 231 628 q 212 659 231 639 l 212 661 q 255 764 212 670 q 288 827 260 798 l 366 944 q 449 1058 408 1038 q 464 1096 464 1080 l 464 1100 q 429 1116 446 1116 l 79 1122 q 56 1154 60 1122 l 56 1162 l 60 1169 l 60 1179 q 37 1305 50 1203 l 37 1306 l 43 1309 m 115 1286 l 107 1276 l 107 1259 l 113 1259 l 113 1257 l 136 1259 l 138 1259 l 186 1255 l 195 1261 q 115 1286 159 1286 m 62 1255 q 77 1245 65 1245 l 81 1252 l 81 1255 l 75 1261 l 68 1261 q 62 1255 62 1261 m 293 1249 l 293 1245 l 296 1245 l 300 1249 l 293 1249 m 616 1223 q 651 1210 616 1215 l 656 1210 l 663 1217 l 663 1219 l 658 1223 l 616 1223 m 224 1214 q 445 1202 324 1202 l 468 1202 q 331 1221 468 1215 l 278 1221 q 224 1214 224 1221 m 119 1210 q 214 1188 119 1195 l 217 1191 l 217 1195 q 136 1214 191 1214 l 125 1214 l 119 1210 m 720 1191 l 720 1188 q 734 1181 723 1181 l 742 1181 q 755 1188 750 1181 q 732 1200 755 1200 q 720 1191 722 1195 m 250 1198 l 248 1195 l 248 1192 q 312 1183 248 1183 l 381 1183 q 250 1198 381 1192 m 430 1181 l 430 1176 l 525 1164 l 620 1169 l 620 1173 q 480 1181 579 1181 l 430 1181 m 88 1166 l 88 1164 q 167 1147 88 1147 l 243 1147 l 243 1153 q 163 1164 243 1160 q 115 1173 163 1172 l 107 1173 q 88 1166 90 1173 m 274 1153 q 324 1143 274 1145 l 331 1145 q 316 1153 328 1153 l 274 1153 m 663 1116 q 682 1088 670 1088 q 696 1116 696 1105 l 696 1124 l 692 1128 l 680 1128 l 663 1116 m 502 1097 l 502 1093 l 511 1093 l 515 1097 l 515 1103 l 506 1103 l 502 1097 m 515 1062 l 515 1055 l 521 1055 q 556 1088 541 1055 l 553 1090 l 549 1090 q 515 1062 515 1081 m 648 1065 l 648 1058 l 654 1058 l 658 1062 l 658 1065 l 648 1065 m 635 1048 l 635 1040 l 639 1040 l 639 1048 l 635 1048 m 524 922 l 528 917 q 606 982 566 925 l 616 1005 l 613 1008 l 604 1008 q 525 929 579 1008 l 524 922 m 426 926 l 429 926 q 458 963 458 943 l 457 964 l 454 964 q 426 926 426 958 m 467 932 l 467 926 l 471 926 q 486 945 486 936 l 483 948 q 467 932 476 947 m 509 898 l 509 888 l 514 888 l 518 894 l 518 903 l 514 903 l 509 898 m 316 834 l 319 831 l 335 831 l 372 860 l 373 869 l 373 875 l 369 879 l 366 879 q 316 840 335 869 l 316 834 m 486 777 l 486 774 l 487 774 l 563 799 q 675 783 646 792 q 685 792 682 784 l 689 792 q 761 755 734 755 l 768 755 l 772 761 l 772 764 q 642 815 772 785 q 629 830 633 815 l 620 837 l 613 837 q 521 793 568 837 q 486 777 488 785 m 448 830 l 448 825 l 452 821 l 457 821 l 457 825 l 452 830 l 448 830 m 288 774 l 288 768 l 290 768 q 326 812 315 781 l 321 812 q 288 774 308 803 m 350 768 l 350 758 l 357 758 q 391 793 378 758 l 385 799 q 350 768 366 792 m 363 707 l 369 707 q 495 749 495 739 l 495 751 l 490 751 q 363 708 429 746 l 363 707 m 274 697 l 277 694 l 277 692 q 372 727 338 704 l 372 730 l 366 735 q 274 701 300 723 l 274 697 m 743 735 l 743 732 q 768 707 749 707 l 781 707 q 803 716 800 707 q 762 735 787 735 l 743 735 m 787 680 l 787 678 q 818 623 787 663 l 815 587 l 815 543 q 825 521 815 524 l 827 521 l 831 562 l 831 628 q 796 685 831 659 l 791 685 l 787 680 m 243 663 l 243 661 l 248 656 l 264 656 q 283 663 282 656 l 283 669 q 267 678 279 678 l 264 678 q 243 663 251 678 m 708 669 l 720 656 l 715 656 l 708 663 l 708 669 m 749 618 l 749 613 l 753 609 l 758 609 l 758 613 l 753 618 l 749 618 m 742 514 l 742 507 l 746 502 q 768 568 768 540 l 768 590 l 762 590 q 742 514 742 566 m 827 502 l 808 467 q 818 454 812 456 l 822 454 q 834 479 834 460 q 827 502 833 502 m 753 410 l 753 407 l 761 407 l 772 419 l 772 429 l 765 429 q 753 410 753 422 m 736 350 l 742 346 l 780 372 l 780 374 l 774 378 l 772 378 q 736 350 755 378 m 656 290 l 663 290 q 701 312 682 290 l 701 317 l 696 338 l 704 357 q 670 312 686 357 q 656 290 656 298 m 781 338 l 781 336 l 791 336 l 791 343 l 787 343 l 781 338 m 720 283 l 720 279 l 732 277 l 746 277 q 774 300 774 279 q 761 309 772 309 q 720 283 742 309 m 426 157 l 430 157 q 600 260 600 231 l 590 260 q 454 182 552 250 q 426 157 426 161 m 724 236 l 724 233 l 732 233 q 746 251 736 233 l 742 255 q 724 236 724 250 m 694 243 l 694 241 l 705 241 l 711 245 l 705 251 l 701 251 l 694 243 m 654 175 l 656 175 q 699 195 673 175 q 692 201 699 201 q 654 175 654 190 m 509 144 l 509 138 l 511 138 q 552 160 552 151 l 552 163 l 549 163 q 509 144 529 163 m 620 138 l 620 134 l 632 134 l 639 141 l 639 146 l 628 146 l 620 138 m 183 87 l 189 81 l 221 81 l 227 87 q 208 94 227 91 q 183 87 183 92 m 353 87 l 353 81 q 372 90 369 81 l 372 91 l 357 91 l 353 87 m 509 68 l 511 65 l 514 65 q 559 84 552 76 l 556 91 l 544 91 q 509 68 509 84 m 136 71 l 136 68 l 155 68 l 160 72 l 155 77 l 144 77 l 136 71 m 231 33 l 189 42 l 174 42 q 134 27 134 39 l 134 23 q 255 8 134 18 q 407 49 304 8 l 410 52 l 410 58 l 407 58 q 296 37 381 58 l 231 33 z "},"4":{"ha":910,"x_min":3,"x_max":826,"o":"m 262 1343 l 263 1344 q 366 1312 366 1335 q 300 774 351 1227 q 269 631 289 677 q 209 469 221 564 q 361 448 221 460 q 430 433 407 433 l 453 433 l 548 441 l 591 441 l 591 442 q 572 882 582 529 q 556 929 563 924 q 617 948 556 941 q 633 955 617 954 q 665 936 659 955 l 655 907 q 689 556 689 852 q 703 452 689 452 l 709 452 q 807 464 783 452 l 807 467 l 819 457 l 817 441 l 817 426 l 826 412 l 823 393 q 782 325 823 338 q 741 302 741 312 l 708 302 q 703 296 703 302 q 718 53 718 175 q 727 -33 727 16 l 743 -39 l 743 -42 q 624 -94 743 -58 q 585 -81 608 -81 l 579 -77 q 601 127 601 56 q 576 319 601 319 l 496 321 l 338 321 l 281 317 q 9 343 9 320 q 3 347 3 343 q 64 431 64 403 q 92 568 92 496 q 167 960 144 709 q 205 1223 167 990 q 224 1314 205 1255 l 225 1314 q 247 1302 237 1302 l 256 1302 l 263 1309 l 263 1318 l 262 1343 m 250 1229 q 256 1204 251 1204 l 259 1204 l 259 1210 q 275 1248 259 1221 l 282 1276 l 282 1280 l 278 1286 l 271 1286 q 250 1233 250 1286 l 250 1229 m 290 1141 l 290 1135 l 294 1131 q 304 1147 304 1135 l 304 1162 l 301 1162 q 290 1141 294 1162 m 187 954 l 187 951 l 193 945 l 197 945 l 209 948 l 209 960 l 202 974 l 216 1039 l 214 1039 q 187 954 187 986 m 262 784 l 263 773 l 269 773 q 278 789 278 776 l 278 802 l 271 802 q 262 784 262 798 m 187 623 l 187 621 q 209 650 209 621 l 209 659 l 206 661 l 206 663 q 187 623 194 663 m 614 656 l 613 654 l 613 642 l 620 642 l 620 651 l 614 656 m 180 612 l 180 604 l 186 604 l 190 609 l 190 612 l 180 612 m 613 602 l 613 575 q 620 562 614 562 l 624 566 l 624 581 q 614 602 624 598 l 613 602 m 148 505 l 148 502 l 152 502 l 157 507 l 157 509 l 152 509 l 148 505 m 123 431 l 130 423 l 136 423 l 164 429 l 164 431 q 148 441 160 441 l 140 441 q 123 431 127 441 m 731 426 l 731 422 q 772 410 735 412 q 793 423 784 410 l 793 429 q 785 433 793 433 l 731 426 m 224 422 l 228 416 l 271 422 l 271 423 q 240 431 271 431 q 224 422 224 427 m 339 372 q 557 359 381 359 q 598 376 589 359 q 566 384 598 381 q 339 372 339 380 m 696 378 l 696 374 l 708 362 l 699 350 l 699 347 q 718 340 700 340 l 734 340 q 788 347 764 340 q 743 362 788 351 q 709 384 734 384 l 700 384 l 696 378 m 627 270 l 627 262 l 632 258 l 636 262 l 636 283 l 633 283 q 627 270 627 281 m 674 43 q 684 23 677 23 l 689 27 l 689 49 q 681 68 689 66 q 674 43 674 68 m 623 -27 l 623 -30 l 624 -30 q 636 -11 636 -24 l 636 -8 l 633 -8 q 623 -27 623 -14 z "},"5":{"ha":834,"x_min":41,"x_max":814,"o":"m 483 1188 q 774 1175 774 1185 q 753 1158 772 1168 l 753 1149 l 761 1130 l 753 1101 l 753 1099 l 755 1096 l 749 1089 l 749 1086 l 724 1105 l 718 1105 q 654 1080 718 1080 l 606 1086 q 305 1058 357 1067 q 267 887 289 1040 q 250 788 250 829 l 255 788 l 255 785 q 305 804 305 788 q 283 821 288 811 l 283 826 q 419 873 283 863 l 433 873 q 575 811 533 873 q 694 723 652 761 l 718 697 l 718 694 l 715 694 l 675 723 l 670 723 l 670 719 q 705 674 686 678 q 720 669 705 669 l 739 671 q 751 650 751 659 q 732 640 732 648 q 770 608 735 627 q 784 533 783 608 l 784 463 q 781 326 814 388 l 779 324 l 773 324 q 753 357 760 331 q 766 385 755 374 l 760 391 q 715 326 738 391 l 715 321 q 735 315 715 315 l 738 312 l 738 307 q 631 163 693 213 q 591 96 614 153 l 591 94 q 688 179 609 94 q 764 288 715 229 l 766 286 l 766 281 q 681 155 726 205 q 439 -1 541 28 q 172 -22 245 -22 q 43 -9 153 -15 l 41 -8 l 41 -5 l 65 85 q 117 133 65 133 l 126 134 q 164 114 159 114 l 172 114 q 237 119 194 114 q 286 123 279 123 q 503 202 347 106 q 643 343 614 288 q 654 472 684 400 q 597 652 654 604 q 499 713 579 682 q 411 741 458 741 l 404 741 q 183 684 338 741 l 151 678 l 144 685 l 144 693 q 160 808 151 693 q 198 1070 183 846 q 214 1150 202 1150 l 217 1153 l 217 1156 l 214 1175 l 217 1175 q 255 1168 228 1168 q 477 1188 292 1168 l 483 1188 m 689 1156 l 689 1153 q 711 1143 692 1143 l 718 1143 q 736 1160 736 1143 l 730 1165 l 705 1165 q 689 1156 693 1165 m 231 1112 l 231 1108 l 236 1103 q 467 1143 467 1128 l 461 1143 q 236 1120 236 1126 l 231 1112 m 521 1124 l 521 1118 l 563 1115 q 591 1122 591 1116 q 575 1130 590 1130 l 521 1124 m 239 1063 l 239 1008 l 243 1004 q 250 1042 250 1019 l 250 1063 l 245 1067 l 243 1067 l 239 1063 m 231 944 l 231 940 l 236 940 l 236 944 l 231 944 m 433 818 l 435 817 l 487 817 q 549 823 549 817 q 476 836 549 833 l 433 821 l 433 818 m 354 821 l 354 818 l 362 811 l 373 811 l 397 817 l 397 823 l 363 827 q 354 821 354 825 m 445 779 q 486 761 452 761 l 495 761 q 514 773 507 761 l 514 783 q 495 789 511 789 l 468 789 q 445 779 450 789 m 278 757 l 278 754 l 286 747 q 309 761 300 747 l 309 764 l 300 766 q 278 757 278 764 m 174 742 l 174 723 l 182 716 l 202 716 l 202 722 q 186 751 202 742 l 183 751 l 174 742 m 537 745 l 537 738 l 547 728 l 549 728 q 553 735 553 728 q 540 745 552 745 l 537 745 m 675 678 l 675 675 q 689 652 675 662 l 692 652 l 692 659 l 675 678 m 654 646 l 654 640 l 661 633 l 663 633 l 663 637 l 656 646 l 654 646 m 667 621 l 667 614 l 673 609 l 675 612 l 675 614 l 667 621 m 677 590 l 677 581 l 682 576 l 686 576 l 686 583 l 680 590 l 677 590 m 689 543 l 689 538 l 699 538 l 704 543 l 704 548 l 694 548 l 689 543 m 689 513 l 685 495 l 685 486 l 686 486 l 694 494 l 694 513 l 689 513 m 745 334 l 753 334 l 753 331 l 745 324 l 741 324 l 741 328 l 745 334 m 772 309 l 779 307 l 779 305 l 772 297 l 764 300 l 764 302 l 772 309 m 351 84 l 351 81 q 463 110 400 99 q 503 148 503 133 l 496 155 l 595 193 l 595 195 l 593 205 q 640 274 640 260 l 639 277 l 633 277 q 463 151 617 277 q 351 84 433 151 m 245 23 l 245 19 l 252 16 q 415 27 282 16 q 510 77 430 27 q 536 110 536 98 l 536 113 l 532 117 l 526 117 q 437 65 499 117 q 278 38 330 41 q 245 23 245 30 m 231 85 l 231 80 l 252 80 l 264 83 l 264 90 l 252 90 l 231 85 m 529 65 l 529 58 l 532 58 l 538 65 l 538 69 l 534 69 l 529 65 m 98 35 q 113 28 100 28 q 132 35 130 28 l 126 39 l 103 39 l 98 35 m 145 14 l 151 9 l 155 9 q 201 20 170 9 l 221 19 q 239 38 239 23 l 239 39 l 231 39 q 145 14 145 26 z "},"6":{"ha":772,"x_min":33,"x_max":738,"o":"m 595 1221 q 738 1202 716 1221 q 723 1181 723 1190 l 723 1179 l 730 1138 l 730 1135 q 707 1078 730 1078 l 678 1086 l 671 1086 l 586 1077 l 557 1078 q 426 977 533 1077 l 415 960 q 355 898 377 940 q 292 796 335 879 q 277 765 285 796 q 217 692 232 732 q 156 597 206 684 q 118 536 130 564 l 111 528 l 111 526 l 121 526 q 153 564 127 526 q 245 623 160 564 q 400 685 359 685 q 581 632 471 685 q 690 507 678 541 q 732 400 718 487 q 666 182 700 241 q 568 42 568 52 l 571 30 q 498 -18 529 -7 q 298 -4 328 -9 q 206 34 254 20 l 125 91 q 46 315 46 194 q 33 445 37 321 q 77 602 33 486 q 122 730 77 633 q 282 1008 145 849 q 479 1188 458 1188 q 595 1221 552 1221 m 692 1195 l 692 1191 l 700 1183 l 701 1183 l 707 1188 l 707 1191 l 701 1195 l 692 1195 m 170 796 l 170 789 l 175 789 q 182 803 182 789 q 283 955 235 860 q 488 1134 444 1126 q 557 1188 557 1168 l 557 1192 l 552 1192 q 429 1128 491 1181 q 255 944 296 996 q 170 796 174 834 m 606 1166 l 606 1164 l 637 1164 q 673 1173 656 1164 l 673 1185 l 666 1192 l 650 1192 q 606 1166 632 1192 m 678 1172 l 678 1169 l 682 1164 l 690 1164 l 694 1169 l 694 1172 l 690 1176 l 682 1176 l 678 1172 m 438 1077 l 438 1069 l 441 1069 q 536 1116 469 1080 q 578 1135 562 1116 l 578 1138 l 574 1138 q 438 1077 548 1138 m 590 1103 l 590 1096 l 602 1096 q 669 1119 669 1114 l 669 1124 l 656 1126 q 590 1103 627 1126 m 182 768 l 184 761 l 187 761 q 236 821 201 761 q 331 935 266 861 q 467 1055 338 949 l 476 1067 l 473 1069 q 315 972 411 1069 q 189 773 237 864 l 182 768 m 137 680 l 137 669 q 160 697 160 674 l 159 699 l 149 699 q 137 680 137 693 m 334 631 l 334 625 l 346 625 q 473 647 372 640 l 473 650 q 429 663 458 663 l 410 663 q 334 631 369 663 m 239 568 l 239 562 q 286 594 256 562 l 286 597 l 279 597 l 239 568 m 609 578 l 609 571 q 669 499 627 521 l 681 498 l 682 498 l 682 505 q 609 578 636 576 m 407 571 l 407 566 l 419 566 l 425 571 l 419 575 l 412 575 l 407 571 m 529 559 l 529 555 l 536 547 l 538 547 l 545 555 l 545 559 l 529 559 m 146 412 q 222 144 146 312 q 365 80 324 80 q 576 233 498 80 l 583 281 q 530 499 583 449 q 355 545 457 545 q 227 473 328 537 q 149 419 176 457 l 146 412 m 571 490 l 571 486 q 595 441 595 461 l 600 441 l 605 480 l 605 483 l 602 495 l 600 495 l 571 490 m 83 445 l 83 438 q 90 433 83 433 q 134 461 106 433 l 134 467 l 127 473 q 83 445 100 473 m 671 414 l 671 378 l 681 369 l 682 369 l 688 374 l 688 397 q 678 419 688 415 l 675 419 l 671 414 m 616 403 l 612 393 l 612 381 l 616 376 l 618 376 q 625 400 625 376 l 624 403 l 616 403 m 92 378 q 137 251 92 365 l 140 251 l 144 255 q 113 400 140 311 l 111 400 q 92 378 92 400 m 61 334 l 61 315 l 65 309 l 71 309 l 71 321 l 68 334 l 61 334 m 647 315 l 647 308 l 650 296 l 652 296 q 663 319 663 301 l 656 324 l 647 315 m 602 302 l 602 300 l 609 293 l 614 293 l 621 300 l 621 302 l 616 308 l 606 308 l 602 302 m 71 296 l 65 289 l 65 274 q 90 205 76 205 l 94 210 l 94 232 q 71 296 94 296 m 621 260 l 621 258 l 628 251 l 631 251 l 631 255 l 625 260 l 621 260 m 132 205 l 132 198 l 141 189 l 146 189 l 146 198 l 140 205 l 132 205 m 587 144 l 587 138 l 593 134 q 631 194 631 183 l 631 195 l 624 195 l 587 144 m 106 175 l 103 167 q 113 156 109 156 l 115 156 l 115 157 q 106 175 115 171 m 156 151 l 156 146 q 197 115 178 115 l 198 115 l 198 119 q 163 156 198 127 l 160 156 l 156 151 m 473 65 l 473 62 l 479 58 q 545 106 510 58 l 545 113 l 540 113 l 473 65 m 254 80 q 264 65 256 69 l 273 65 q 293 75 290 65 l 293 77 q 270 87 293 84 l 258 87 q 254 80 254 87 m 315 68 l 315 62 l 320 58 l 324 58 l 324 62 l 320 68 l 315 68 m 330 49 q 365 39 343 39 q 407 53 391 39 l 407 56 l 355 56 q 330 49 330 56 m 476 24 l 476 20 l 483 20 q 538 52 513 20 l 538 53 l 533 53 l 476 24 z "},"7":{"ha":772,"x_min":37,"x_max":742,"o":"m 94 1363 q 639 1329 410 1337 q 715 1303 685 1310 l 727 1303 l 730 1306 q 742 1299 742 1303 l 742 1291 q 711 1158 711 1267 l 711 1147 q 730 1120 711 1137 l 730 1119 l 680 958 q 464 625 557 788 q 326 407 363 490 l 324 382 l 334 221 l 316 19 q 245 -4 316 8 l 227 3 l 208 3 l 221 19 l 221 22 l 217 27 l 210 27 q 176 19 193 27 q 160 56 160 19 l 160 119 l 163 262 l 160 331 q 220 483 179 418 q 267 570 267 532 q 283 597 274 570 l 373 731 q 499 978 448 850 l 509 990 l 509 997 l 506 1000 l 568 1164 l 568 1166 q 454 1192 538 1166 q 326 1204 392 1192 l 286 1190 q 126 1206 167 1206 l 113 1206 q 88 1202 88 1206 q 41 1278 56 1202 q 37 1291 38 1278 q 68 1329 47 1329 l 91 1328 l 91 1329 l 72 1351 l 72 1354 q 94 1363 72 1358 m 126 1320 l 126 1313 l 145 1291 l 145 1290 l 106 1290 l 100 1284 l 100 1282 l 107 1275 l 119 1275 l 145 1280 q 271 1265 220 1265 l 321 1265 q 255 1282 321 1272 l 255 1287 q 568 1253 484 1271 l 581 1253 q 585 1261 585 1253 q 433 1294 585 1289 l 155 1320 l 126 1320 m 382 1271 l 382 1263 l 404 1259 l 416 1259 l 416 1261 q 382 1271 416 1268 m 616 1263 q 658 1253 616 1253 l 661 1253 l 667 1261 l 667 1268 l 656 1271 l 647 1271 q 616 1263 616 1271 m 106 1240 q 153 1227 106 1227 l 183 1227 q 113 1244 160 1244 l 110 1244 l 106 1240 m 363 1242 q 509 1221 363 1236 l 549 1208 l 566 1208 l 575 1218 q 363 1242 575 1242 m 639 1215 l 639 1211 l 648 1211 l 651 1223 l 647 1223 l 639 1215 m 613 1166 q 620 1157 617 1157 l 625 1157 l 635 1166 l 635 1176 l 629 1180 l 620 1180 q 613 1166 613 1177 m 648 1120 l 648 1119 q 658 1097 648 1100 l 663 1097 q 673 1161 673 1097 l 670 1168 l 667 1168 q 648 1120 656 1161 m 591 1138 l 594 1126 l 600 1126 l 600 1133 l 594 1138 l 591 1138 m 644 1073 l 644 1072 l 642 1019 l 644 1016 l 647 1016 q 661 1053 651 1016 l 661 1062 l 654 1073 l 644 1073 m 543 1059 l 543 1053 l 515 977 l 515 974 l 521 974 q 556 1050 553 1021 l 556 1054 l 552 1059 l 543 1059 m 438 774 l 438 772 l 448 772 q 505 845 468 772 q 585 990 585 970 l 585 996 l 581 1000 l 572 1000 q 502 891 562 993 q 438 774 438 789 m 578 907 q 525 803 525 817 l 530 803 q 582 905 582 865 l 581 907 l 578 907 m 495 753 l 495 750 q 524 781 500 750 l 524 788 l 518 788 q 495 753 495 766 m 454 682 l 457 682 q 486 731 486 711 l 486 734 l 483 734 q 454 682 469 734 m 395 613 l 395 608 l 404 608 l 414 632 l 411 635 l 410 635 q 395 613 400 635 m 309 606 l 309 598 l 312 598 q 340 629 340 617 l 338 629 q 309 606 321 625 m 316 549 l 319 549 q 334 563 327 551 l 331 566 l 331 568 q 316 549 316 563 m 293 525 l 293 521 l 297 521 l 305 528 l 305 532 l 300 532 l 293 525 m 229 442 l 231 442 q 259 473 259 461 l 258 473 q 229 442 229 460 m 252 408 l 252 407 l 262 407 l 264 414 l 262 416 l 259 416 l 252 408 m 252 370 l 252 338 q 267 278 267 292 l 274 274 l 277 274 q 286 302 283 274 l 277 350 l 283 388 l 281 388 l 278 389 q 252 370 252 380 m 214 345 l 214 338 l 220 342 l 220 345 l 214 345 m 258 179 l 258 174 q 267 152 258 156 l 271 152 l 277 157 l 277 160 q 264 179 277 172 l 258 179 m 240 85 l 240 81 l 245 81 l 250 85 l 250 91 l 245 91 l 240 85 m 183 65 l 183 56 q 208 43 189 43 l 231 43 q 250 50 248 43 q 208 72 250 72 l 191 72 l 183 65 m 278 41 l 281 38 l 281 37 l 288 38 l 288 46 l 283 46 l 278 41 z "},"8":{"ha":868,"x_min":45,"x_max":819,"o":"m 463 1332 l 477 1332 q 547 1302 500 1332 q 627 1236 627 1271 q 689 1040 689 1108 q 674 941 681 1017 q 594 793 644 859 q 769 594 750 663 q 819 505 769 581 l 814 381 l 812 373 l 807 373 l 807 392 q 800 411 807 410 l 795 411 q 779 366 783 411 q 791 340 783 340 l 793 340 q 807 366 802 340 l 812 366 q 779 255 812 305 l 769 269 l 762 269 l 755 262 l 755 252 l 765 243 l 762 231 l 769 210 q 731 170 769 193 l 731 174 l 736 182 l 736 183 l 731 189 l 719 189 q 671 122 689 171 l 680 119 l 724 153 l 724 151 q 636 72 681 87 q 560 24 604 45 q 425 -26 526 -4 q 401 -30 425 -30 q 247 15 355 -30 q 79 240 179 15 q 62 307 71 240 l 62 340 q 100 530 62 458 q 149 628 121 628 q 199 708 149 650 l 221 732 l 221 739 q 100 860 202 739 q 45 1055 45 1023 q 57 1090 57 1066 l 72 1085 l 73 1085 q 83 1103 83 1089 l 83 1114 l 76 1122 l 72 1122 l 66 1107 l 60 1109 l 60 1114 q 133 1211 79 1179 q 212 1287 153 1264 q 463 1332 324 1332 m 149 1185 l 152 1183 l 155 1183 q 269 1280 168 1183 q 275 1287 275 1280 l 271 1287 q 168 1223 232 1287 q 149 1185 155 1204 m 389 1264 l 389 1259 l 500 1227 l 500 1261 l 506 1261 l 506 1264 l 547 1252 l 553 1252 q 463 1275 553 1275 q 425 1280 453 1280 q 389 1264 406 1280 m 237 1214 l 243 1214 q 288 1249 288 1236 l 282 1249 q 237 1214 251 1238 m 199 1017 l 199 1009 q 319 800 202 939 l 342 784 l 345 784 l 368 791 l 385 791 q 528 834 445 791 q 594 926 556 852 q 623 952 606 952 l 617 971 l 629 1015 l 629 1024 q 613 1031 629 1028 l 567 1154 q 509 1183 556 1173 q 368 1240 490 1206 q 216 1142 327 1240 q 199 1017 199 1105 m 553 1233 l 553 1230 q 572 1217 557 1217 l 575 1217 l 579 1221 q 570 1233 575 1232 l 553 1233 m 605 1199 l 605 1195 q 632 1160 617 1160 l 632 1169 q 605 1199 623 1199 m 81 1142 l 81 1133 l 83 1133 q 110 1171 110 1139 l 110 1180 l 102 1180 q 81 1142 94 1180 m 91 1053 q 98 1017 91 1017 l 100 1017 q 123 1040 119 1017 l 123 1066 q 148 1154 123 1126 l 148 1169 l 130 1169 q 114 1112 119 1169 q 91 1053 104 1112 m 610 1142 l 610 1135 l 605 1116 l 623 1085 q 629 1062 623 1070 l 627 1047 l 627 1046 l 629 1046 l 636 1053 l 636 1085 q 620 1142 636 1142 l 610 1142 m 168 1050 l 174 1046 q 180 1065 180 1055 l 176 1065 q 168 1050 168 1062 m 149 1002 q 205 857 161 914 q 281 789 260 799 l 288 789 q 233 869 288 795 q 171 1009 172 977 l 161 1017 l 157 1017 q 149 1002 149 1015 m 655 1017 q 642 958 642 978 l 643 955 l 648 955 q 661 979 661 960 l 661 1012 l 655 1017 m 85 983 q 140 848 91 930 q 174 803 146 848 q 247 758 213 758 l 259 758 l 259 761 q 168 848 259 765 q 130 905 130 891 q 104 1000 117 928 l 102 1002 l 92 1002 q 85 983 85 1001 m 541 808 l 544 808 q 624 886 576 808 l 629 910 l 629 924 l 624 932 q 579 857 612 930 q 541 810 566 834 l 541 808 m 458 780 l 461 777 l 472 777 q 500 787 483 777 l 500 793 q 458 780 475 793 m 560 770 q 605 758 585 758 l 608 761 l 608 768 l 601 774 l 566 774 l 560 770 m 510 743 l 510 739 q 594 704 517 731 q 642 675 631 675 l 642 685 q 532 749 595 749 l 510 743 m 278 742 l 278 736 q 309 727 278 728 l 326 727 l 330 732 q 290 743 330 742 l 278 742 m 366 742 l 366 736 l 370 732 l 376 732 q 430 739 406 732 l 430 743 l 389 743 l 366 742 m 133 581 l 138 581 q 250 680 152 581 q 275 704 258 680 l 275 705 q 254 715 273 715 l 247 715 q 164 642 217 715 q 152 613 160 642 q 133 581 133 593 m 216 543 l 218 540 l 218 537 l 231 540 l 235 534 q 180 391 180 420 l 180 385 q 243 145 180 191 q 373 72 319 72 l 389 72 l 395 77 q 326 113 392 83 q 250 170 266 149 l 250 172 l 252 172 l 351 117 q 499 79 467 79 l 506 79 q 566 122 518 79 l 566 113 q 655 193 621 133 l 662 221 l 662 224 l 636 212 l 636 214 q 680 302 680 278 q 662 438 680 374 l 662 457 q 646 562 662 484 l 646 563 l 652 566 l 667 556 l 670 559 l 670 568 q 655 597 670 589 l 648 597 l 648 578 l 643 578 q 617 632 636 582 q 461 711 562 711 q 269 625 269 677 q 216 543 269 567 m 164 553 l 164 552 q 190 571 178 552 l 190 575 l 187 575 q 164 553 168 575 m 123 442 q 148 429 123 430 q 178 468 165 429 l 178 477 q 155 486 178 484 l 152 487 l 152 490 q 171 495 152 495 q 190 521 179 495 l 190 524 l 186 528 q 161 521 174 528 l 159 524 l 161 525 l 161 528 l 159 540 l 148 540 q 123 442 123 540 m 728 514 q 741 468 732 471 q 747 490 746 468 q 734 521 742 521 q 728 514 728 521 m 700 423 l 700 416 l 705 395 l 699 388 l 699 378 q 708 362 699 365 l 718 362 q 731 382 731 370 l 731 391 q 712 458 720 458 l 709 458 q 700 423 700 458 m 85 283 q 155 155 134 176 l 157 155 l 157 157 l 117 335 q 110 397 110 368 l 114 435 l 111 438 l 102 438 q 85 283 90 438 m 779 309 l 781 307 l 784 307 q 793 321 793 309 l 791 321 q 779 309 784 321 m 727 227 l 727 217 l 728 217 l 736 224 l 736 233 l 734 233 l 727 227 m 608 179 l 610 179 l 610 174 l 601 164 l 598 164 l 598 170 l 608 179 m 585 151 l 591 151 l 591 145 l 585 145 l 585 151 m 190 132 l 190 106 q 243 58 190 73 l 247 58 l 252 62 q 197 132 239 95 l 190 132 m 414 68 l 414 62 l 418 58 l 437 58 q 452 65 449 58 l 452 68 l 439 69 l 430 69 l 414 68 m 278 46 l 278 41 q 392 5 307 5 q 418 12 418 8 l 418 18 q 292 49 392 18 l 285 49 l 278 46 m 444 20 l 444 15 l 446 15 q 506 39 472 15 l 506 43 l 503 43 q 444 20 444 31 z "},"9":{"ha":864,"x_min":23,"x_max":829,"o":"m 401 1232 q 640 1203 640 1227 q 716 1134 716 1156 q 662 1165 673 1165 l 652 1165 l 652 1162 q 726 1092 654 1146 l 731 1092 l 726 1114 l 728 1114 q 791 963 768 1069 l 829 781 l 829 754 q 800 557 811 557 q 766 439 793 521 q 741 361 766 389 l 735 365 l 735 373 l 743 384 l 741 403 l 735 403 l 684 335 q 643 298 643 315 q 655 285 643 290 l 659 285 q 731 349 680 285 l 734 349 l 735 346 l 738 346 q 586 171 738 293 q 431 57 532 136 q 408 22 420 52 q 288 -69 300 -69 q 221 -85 252 -69 q 161 41 198 -85 l 178 61 l 165 76 l 165 79 l 187 107 l 213 107 q 256 136 245 136 q 247 118 247 125 l 250 118 l 251 117 l 254 117 q 266 126 264 121 l 266 136 l 259 136 l 259 137 q 418 237 298 140 q 564 349 547 330 q 620 396 585 374 q 650 444 650 433 l 650 446 l 643 446 l 629 444 l 621 446 q 671 574 671 556 l 671 582 l 665 589 l 662 589 q 541 487 650 589 q 380 468 500 468 l 327 487 q 203 538 233 503 q 57 769 57 708 q 23 892 23 840 l 23 909 q 90 1057 23 963 q 142 1152 90 1070 q 377 1229 243 1229 l 401 1232 m 311 1203 l 311 1199 q 382 1187 311 1190 l 382 1191 q 345 1203 382 1202 l 311 1203 m 555 1199 q 605 1172 562 1172 l 610 1180 q 567 1203 595 1203 l 560 1203 l 555 1199 m 399 1196 q 541 1142 429 1172 l 553 1142 l 553 1143 q 437 1194 553 1160 l 406 1196 l 399 1196 m 206 1142 l 206 1139 q 213 1134 206 1134 q 247 1162 228 1141 l 244 1165 l 241 1165 q 206 1142 213 1153 m 627 1153 l 627 1152 l 631 1152 l 636 1156 l 636 1158 l 631 1158 l 627 1153 m 273 1137 l 273 1134 l 275 1134 q 345 1143 313 1134 l 345 1152 l 326 1153 q 273 1137 289 1153 m 149 829 l 149 807 q 174 791 152 799 q 216 697 193 712 q 406 608 368 608 l 411 608 q 564 690 519 639 l 621 781 q 684 876 684 830 l 684 880 q 564 1076 684 1006 q 465 1127 499 1127 l 437 1133 q 327 1104 414 1120 q 184 1019 184 1051 l 149 829 m 171 1096 l 171 1095 l 178 1086 l 180 1086 q 203 1115 203 1101 l 203 1120 l 194 1120 q 171 1096 171 1115 m 563 1120 q 617 1077 563 1097 l 620 1080 l 620 1082 q 570 1120 620 1096 l 563 1120 m 156 1066 l 156 1063 l 161 1058 l 168 1066 l 161 1070 l 156 1066 m 99 975 l 99 956 l 102 954 l 95 937 l 95 921 q 102 906 96 906 l 104 906 q 121 1000 118 906 l 118 1006 l 114 1006 q 99 975 99 996 m 716 1006 l 716 1001 l 724 978 l 724 954 l 734 921 l 728 909 l 745 878 l 743 868 q 760 792 749 861 l 776 792 q 785 810 785 796 l 785 814 q 757 928 785 928 l 735 956 l 735 963 l 741 963 l 747 959 l 753 959 l 753 963 q 722 1006 753 978 l 716 1006 m 52 921 l 52 911 l 57 906 l 61 906 q 71 928 71 910 l 71 943 l 64 943 q 52 921 57 943 m 92 867 q 102 823 92 823 l 114 868 q 104 890 110 890 l 102 890 q 92 867 92 887 m 741 741 l 745 674 l 753 674 q 762 750 760 697 q 750 785 760 785 q 741 741 741 785 m 102 750 q 133 674 102 730 l 140 674 l 140 678 l 137 696 l 140 697 l 155 697 l 155 700 q 107 757 129 757 q 102 750 102 757 m 152 662 l 152 655 q 193 627 174 627 l 197 627 l 197 629 l 156 662 l 152 662 m 197 591 l 197 582 q 232 570 220 570 l 240 570 l 240 574 q 203 591 228 591 l 197 591 m 494 503 l 494 496 l 498 496 l 503 500 l 503 503 l 494 503 m 734 425 l 735 422 l 738 422 q 762 469 747 422 l 762 472 l 760 472 q 734 425 747 472 m 684 437 l 684 430 l 686 430 q 705 450 705 431 l 705 453 l 700 453 q 684 437 689 448 m 620 431 l 621 431 q 610 399 610 407 l 602 399 l 602 408 l 620 431 m 519 175 l 522 174 l 525 174 q 639 256 575 197 l 639 260 l 633 260 q 522 180 595 252 l 519 178 l 519 175 m 444 213 l 444 209 q 469 225 458 209 l 468 228 l 465 228 q 444 213 446 221 m 354 54 l 354 47 l 355 47 q 399 85 399 65 l 399 88 l 396 88 q 354 54 365 77 m 206 66 l 212 61 l 218 69 l 218 71 l 212 71 l 206 66 m 260 12 l 269 7 q 336 52 301 7 l 336 57 l 332 57 q 260 12 304 57 m 213 -31 l 213 -50 l 221 -50 q 241 -24 241 -38 l 241 -22 l 232 -12 q 213 -31 213 -12 m 256 -45 l 256 -47 l 263 -47 l 288 -41 l 288 -34 l 279 -34 q 256 -45 256 -38 z "},"!":{"ha":426,"x_min":103,"x_max":362,"o":"m 252 1356 l 264 1356 q 353 1314 315 1356 l 350 1173 l 350 1157 l 362 906 q 338 704 362 784 l 338 673 l 343 650 l 334 613 l 334 587 q 345 530 334 552 q 331 486 339 486 l 328 486 q 312 492 320 492 q 240 442 240 448 l 243 441 q 326 461 326 449 l 335 461 l 345 452 q 189 407 345 423 q 172 416 179 407 q 198 433 172 430 l 205 433 l 205 438 q 182 452 205 442 l 179 467 q 205 483 179 475 q 214 505 214 498 l 214 507 q 172 518 214 514 q 151 979 163 518 q 144 1172 144 1051 l 144 1226 q 172 1278 144 1260 l 151 1309 q 172 1324 151 1320 l 174 1325 l 174 1333 l 172 1335 q 252 1356 172 1356 m 195 1314 l 195 1309 l 201 1305 l 208 1305 l 212 1309 l 212 1314 l 202 1316 l 195 1314 m 297 1280 l 297 1276 q 307 1255 297 1257 l 309 1255 q 321 1286 319 1255 q 312 1297 321 1295 q 297 1280 297 1297 m 264 1233 l 262 1230 l 262 1229 l 269 1221 l 271 1221 l 277 1226 l 277 1230 l 264 1233 m 264 1210 l 262 1207 l 259 1135 l 259 1090 q 271 1031 259 1031 l 274 1031 l 271 1115 q 283 1150 271 1139 l 283 1154 q 269 1207 269 1154 l 267 1210 l 264 1210 m 174 1160 l 172 1157 l 172 1143 l 174 1119 l 179 1119 l 179 1122 l 182 1141 q 174 1160 179 1160 m 174 1097 l 174 1002 l 176 986 l 183 986 q 191 1050 189 1002 l 182 1096 l 179 1097 l 174 1097 m 290 993 l 290 979 l 296 974 l 300 974 l 302 986 l 302 996 l 300 1008 l 297 1008 q 290 993 290 1005 m 176 960 l 176 951 l 182 951 l 189 958 l 186 964 l 182 964 l 176 960 m 227 936 l 227 935 l 231 929 l 240 929 l 240 939 l 236 944 l 233 944 l 227 936 m 231 846 l 233 840 l 236 840 q 243 869 243 840 l 243 910 q 231 846 233 910 m 305 901 l 302 888 l 305 887 l 307 887 l 315 894 l 315 901 l 305 901 m 202 723 l 198 711 l 195 623 q 202 594 197 594 q 233 637 233 614 l 233 644 q 220 654 233 648 q 212 707 214 658 l 210 713 l 208 716 q 202 723 208 723 m 245 650 l 248 642 l 252 642 l 258 647 l 258 656 l 252 656 l 245 650 m 208 566 l 208 564 l 212 564 q 221 581 221 567 l 221 585 l 217 585 q 208 566 210 585 m 286 540 l 286 533 l 288 533 q 324 559 320 533 l 324 566 l 319 571 l 316 571 q 286 540 308 571 m 250 222 q 353 122 288 209 l 353 118 q 248 4 353 92 l 248 1 l 278 -4 l 278 -8 l 248 -14 q 126 39 199 -14 q 103 96 103 71 q 210 213 103 175 l 250 222 m 233 172 q 274 160 233 161 l 277 160 l 277 165 q 248 176 277 172 l 239 176 l 233 172 m 221 129 l 221 122 l 231 122 q 255 132 255 125 l 250 137 l 236 137 q 221 129 221 134 m 163 118 l 170 109 l 174 113 l 174 127 l 170 132 q 163 118 163 129 m 245 94 l 245 90 l 250 84 l 255 84 l 262 91 l 262 96 l 258 100 l 252 100 l 245 94 z "},"\"":{"ha":617,"x_min":58,"x_max":578,"o":"m 248 1354 l 251 1356 l 251 1354 l 232 1341 l 232 1339 q 312 1325 232 1329 q 327 1275 327 1302 q 286 1190 308 1199 q 182 1135 240 1135 l 167 1135 l 167 1133 l 176 1101 q 151 926 176 1008 l 151 907 l 153 905 l 151 898 l 146 898 q 91 952 102 920 l 58 1139 q 81 1246 68 1208 q 156 1341 81 1295 q 248 1354 203 1354 m 170 1278 l 167 1280 l 156 1280 l 148 1272 l 148 1263 l 156 1256 l 165 1256 q 208 1287 193 1287 q 217 1303 217 1295 q 170 1278 195 1303 m 286 1278 l 286 1256 q 277 1233 286 1242 q 290 1218 277 1218 q 305 1227 300 1218 l 305 1259 q 293 1284 301 1284 l 286 1278 m 186 1240 q 205 1221 186 1229 l 203 1218 l 203 1199 l 213 1199 q 232 1233 232 1211 l 232 1237 l 227 1244 q 236 1263 227 1253 l 236 1275 l 229 1282 l 222 1282 q 186 1240 186 1282 m 151 1230 l 156 1225 l 157 1225 l 163 1230 l 157 1234 l 156 1234 l 151 1230 m 113 1135 l 113 1130 l 119 1128 l 125 1135 l 119 1139 l 118 1139 l 113 1135 m 499 1244 l 502 1246 l 502 1244 l 483 1232 l 483 1229 q 563 1215 483 1219 q 578 1165 578 1192 q 537 1080 559 1089 q 433 1025 491 1025 l 418 1025 l 418 1023 l 427 991 q 401 817 427 898 l 401 798 l 404 795 l 401 788 l 397 788 q 342 842 353 810 l 309 1029 q 332 1137 319 1099 q 407 1232 332 1185 q 499 1244 454 1244 m 420 1168 l 418 1171 l 407 1171 l 399 1162 l 399 1153 l 407 1146 l 416 1146 q 458 1177 444 1177 q 468 1194 468 1185 q 420 1168 446 1194 m 537 1168 l 537 1146 q 528 1123 537 1133 q 541 1108 528 1108 q 556 1118 551 1108 l 556 1149 q 544 1175 552 1175 l 537 1168 m 437 1130 q 456 1111 437 1119 l 454 1108 l 454 1089 l 464 1089 q 483 1123 483 1101 l 483 1127 l 477 1134 q 487 1153 477 1143 l 487 1165 l 480 1172 l 473 1172 q 437 1130 437 1172 m 401 1120 l 407 1115 l 408 1115 l 414 1120 l 408 1124 l 407 1124 l 401 1120 m 363 1025 l 363 1020 l 370 1019 l 376 1025 l 370 1029 l 369 1029 l 363 1025 z "},"#":{"ha":944,"x_min":152,"x_max":903,"o":"m 669 933 l 674 928 l 674 864 q 684 766 674 804 l 814 769 q 878 747 878 769 l 878 743 q 864 712 865 743 q 785 674 849 674 q 688 659 688 667 l 688 658 q 703 494 688 612 l 705 494 q 886 469 886 494 q 871 450 871 456 q 715 392 903 399 l 709 373 l 709 351 q 719 269 709 311 l 712 225 l 719 202 q 677 184 703 184 q 620 206 620 193 q 595 382 609 382 q 456 363 456 370 l 458 178 q 439 152 458 152 q 361 127 393 127 l 358 130 l 358 133 q 373 193 370 161 l 349 304 q 330 349 349 349 q 180 392 180 349 l 180 431 l 175 458 l 175 463 q 320 472 195 468 q 339 507 336 472 l 339 646 l 206 639 l 206 636 q 175 655 175 636 q 152 712 175 673 l 152 719 q 269 738 152 738 l 301 738 q 336 754 336 741 l 336 772 l 332 836 q 365 909 336 876 q 399 911 387 911 l 415 914 q 453 807 427 914 q 449 781 449 798 l 449 769 l 456 762 l 515 762 q 570 769 545 762 l 570 878 q 586 899 570 899 l 605 899 q 665 933 652 899 l 669 933 m 624 852 l 624 836 q 636 821 624 821 l 640 829 l 640 852 l 633 859 l 624 852 m 401 821 l 401 817 l 408 810 l 420 810 l 427 817 l 427 819 q 412 826 425 826 l 406 826 l 401 821 m 529 728 l 529 726 q 567 716 529 720 l 567 712 q 453 696 567 704 l 453 690 l 460 684 l 465 684 q 576 703 576 689 l 576 724 l 570 731 l 541 731 l 529 728 m 731 726 q 750 719 732 719 l 762 719 l 762 724 q 743 731 760 731 l 735 731 l 731 726 m 175 705 l 175 700 l 194 700 q 221 707 221 700 l 221 712 l 197 716 q 175 705 175 711 m 688 709 l 688 703 l 712 700 q 738 707 738 700 l 734 712 l 700 712 l 688 709 m 212 669 l 213 667 l 216 667 q 279 678 279 671 l 278 681 l 275 681 q 212 669 212 677 m 444 541 l 444 477 l 446 477 q 589 496 589 477 l 591 507 q 576 652 586 652 l 574 652 l 526 655 q 449 643 449 655 q 444 541 444 624 m 382 624 q 401 503 388 503 q 415 529 412 503 l 415 589 q 399 648 415 648 q 382 624 382 642 m 724 460 l 724 453 l 762 453 q 781 460 779 453 l 781 463 l 760 465 l 724 460 m 804 456 q 826 449 817 456 l 829 449 l 829 456 l 821 463 l 819 463 q 804 456 804 461 m 472 437 l 475 434 q 583 449 583 439 l 582 450 l 579 450 q 472 437 472 448 m 212 437 l 212 434 l 216 430 l 240 430 l 240 434 q 218 444 236 444 l 212 437 m 193 392 l 193 384 l 199 377 l 218 377 q 256 393 256 384 q 225 401 256 401 l 222 401 q 193 392 193 399 m 289 365 l 289 363 l 294 358 l 307 358 q 342 374 319 358 l 342 382 l 336 382 q 289 365 298 382 m 639 221 l 639 218 l 652 218 l 652 228 l 646 228 l 639 221 m 674 213 l 674 212 l 681 212 l 686 216 l 686 221 l 681 221 l 674 213 m 393 197 l 399 193 l 411 193 l 415 197 l 415 206 l 403 206 l 393 197 m 382 152 l 382 142 q 411 164 411 149 l 393 164 l 382 152 z "},"$":{"ha":1009,"x_min":83,"x_max":968,"o":"m 696 1548 l 696 1544 q 674 1461 686 1518 l 674 1356 l 665 1325 q 757 1246 708 1274 l 788 1211 l 793 1211 q 838 1326 807 1329 q 876 1322 869 1322 l 898 1322 q 921 1328 921 1322 q 937 1297 933 1328 q 921 1187 937 1257 l 921 1185 l 936 1149 q 921 1111 933 1126 l 921 1097 l 905 936 l 902 933 l 895 933 l 848 939 l 842 939 l 842 936 q 785 1082 821 936 q 722 1133 785 1133 l 684 1135 l 677 1135 q 658 1088 658 1135 q 636 848 636 905 q 646 1168 662 894 l 659 1181 l 662 1181 q 671 1171 667 1180 q 652 750 662 833 q 724 720 652 720 q 864 635 764 720 q 968 389 968 547 l 968 288 q 928 142 968 212 q 798 28 838 28 l 753 15 q 655 31 711 31 q 608 12 618 31 l 608 -14 q 639 -73 621 -60 l 629 -85 q 472 -61 522 -61 l 471 -58 l 471 -57 q 491 -19 471 -46 q 496 19 496 -8 l 496 31 q 437 79 496 61 q 199 217 213 217 l 197 217 q 148 151 165 151 l 95 151 l 83 152 l 83 170 q 117 370 83 240 q 152 477 152 412 q 221 522 184 515 l 224 522 q 250 503 239 503 l 252 503 l 252 452 l 252 418 q 420 236 252 368 q 496 193 479 193 l 496 195 l 499 228 l 499 354 q 509 598 499 510 q 472 663 490 663 q 411 693 416 680 l 411 696 l 420 699 l 471 689 l 471 692 q 414 722 471 694 q 205 962 205 857 q 292 1180 205 1084 q 396 1271 351 1271 q 510 1339 510 1324 q 529 1491 518 1470 l 534 1506 l 528 1518 l 528 1522 q 667 1544 528 1533 q 696 1548 667 1548 m 585 1392 l 585 1382 l 589 1377 l 594 1377 l 594 1396 l 589 1396 l 585 1392 m 610 1370 l 610 1347 l 613 1335 l 620 1335 l 623 1351 l 623 1373 l 617 1377 l 610 1370 m 869 1202 l 873 1202 q 888 1246 888 1219 l 888 1252 l 880 1259 q 869 1202 871 1259 m 731 1240 l 731 1237 q 753 1208 731 1222 l 760 1215 q 738 1240 753 1232 l 731 1240 m 439 1152 l 446 1147 l 499 1147 l 503 1152 l 503 1171 l 496 1177 l 481 1177 q 439 1152 439 1171 m 373 1135 l 373 1128 l 377 1128 q 408 1138 408 1130 l 408 1147 q 401 1152 408 1152 q 373 1135 373 1143 m 328 1040 l 328 1031 l 330 1028 l 316 1000 l 316 990 q 387 888 316 947 q 490 803 471 803 l 496 803 q 525 911 525 803 q 534 1043 529 1020 q 513 1078 519 1043 q 500 1100 500 1089 l 503 1120 q 463 1138 496 1138 l 430 1138 q 335 1081 335 1101 q 328 1040 328 1061 m 857 1116 l 857 1097 l 860 1097 q 871 1135 869 1100 l 871 1138 l 867 1138 q 857 1116 857 1134 m 256 1082 l 259 1081 l 263 1081 q 288 1111 275 1081 l 288 1114 l 282 1114 q 256 1082 262 1101 m 852 1063 l 871 1066 l 869 1069 l 857 1069 l 852 1063 m 572 1050 q 563 1012 563 1029 l 563 1006 q 570 981 563 981 q 579 1050 579 993 l 572 1050 m 247 1038 q 235 1005 235 1021 l 235 1000 l 243 993 q 256 1006 256 993 q 247 1038 255 1038 m 233 967 l 233 959 q 254 901 243 901 l 259 905 q 237 967 251 967 l 233 967 m 576 920 q 594 929 590 920 l 594 933 l 591 933 q 576 920 576 933 m 553 907 l 553 892 l 556 892 q 566 917 562 892 l 566 929 l 563 929 q 553 907 553 925 m 576 902 l 575 895 l 579 891 l 586 892 l 586 902 l 576 902 m 342 886 l 342 879 q 368 853 361 853 l 373 853 l 373 860 q 347 886 363 876 l 342 886 m 387 848 l 387 844 q 415 822 391 822 l 418 822 l 423 826 q 395 854 408 854 l 387 848 m 551 817 l 551 815 l 560 806 l 570 806 q 579 822 579 808 l 579 838 q 551 817 567 838 m 566 791 l 563 779 l 563 777 l 567 772 l 570 772 l 575 777 l 575 791 l 566 791 m 411 758 q 491 741 411 745 l 491 746 q 444 762 475 762 l 415 762 l 411 758 m 532 610 l 532 604 l 534 604 q 541 617 541 606 l 541 625 l 538 625 q 532 610 532 623 m 793 625 l 793 616 q 867 566 827 566 q 899 496 890 544 q 928 475 913 475 l 936 483 l 936 487 q 817 623 936 540 l 803 625 l 793 625 m 632 594 q 617 138 627 594 q 665 119 617 119 l 667 110 l 670 110 q 722 133 678 110 q 793 170 793 148 q 857 245 857 231 q 864 321 864 286 l 864 328 q 819 509 864 396 q 781 541 819 526 l 766 556 l 747 556 q 642 594 724 556 l 632 594 m 563 471 l 563 458 l 567 454 l 570 454 l 575 458 l 575 471 l 570 475 l 567 475 l 563 471 m 180 454 l 186 449 q 197 464 197 454 l 190 464 l 180 454 m 563 439 l 563 414 l 570 414 l 572 426 l 572 427 l 570 439 l 563 439 m 525 404 l 525 395 l 529 395 l 529 404 l 525 404 m 563 397 l 563 389 l 567 389 l 567 397 l 563 397 m 233 354 l 233 347 l 240 340 l 247 340 l 247 342 q 233 354 243 354 m 254 285 l 254 281 l 259 275 l 269 275 l 269 283 l 262 290 l 259 290 l 254 285 m 556 290 l 547 255 l 556 245 l 557 245 q 566 259 563 245 q 557 290 563 290 l 556 290 m 297 269 l 297 266 q 342 243 297 255 l 345 245 l 345 247 q 297 269 316 269 m 104 233 l 107 227 l 110 227 q 117 245 117 228 l 117 255 l 114 255 q 104 233 110 255 m 921 205 l 926 205 q 940 240 933 205 l 940 245 l 937 245 q 921 205 921 225 m 235 228 l 235 227 q 275 199 258 199 l 278 199 l 281 202 l 282 202 q 235 228 263 228 m 556 224 q 547 161 548 199 l 548 155 l 553 155 q 563 198 560 155 l 560 224 l 556 224 m 800 157 l 804 157 q 864 199 864 172 l 861 202 q 800 157 800 176 m 387 190 l 387 189 q 404 179 391 179 l 406 180 l 406 183 l 399 190 l 387 190 m 819 114 l 823 114 q 848 129 838 114 l 848 133 l 833 133 q 819 114 819 127 m 804 53 l 812 53 q 852 81 827 53 l 852 85 l 848 91 q 804 53 804 71 m 700 50 q 743 38 700 41 l 750 38 l 750 41 q 728 50 747 50 l 700 50 m 551 15 l 551 9 l 556 9 l 560 15 l 560 19 l 556 19 l 551 15 m 547 -33 l 547 -38 l 548 -38 l 556 -30 l 556 -28 l 551 -28 l 547 -33 z "},"%":{"ha":958,"x_min":126,"x_max":929,"o":"m 856 1431 q 901 1409 901 1423 q 929 1393 929 1400 q 906 1355 906 1362 l 917 1337 l 917 1336 q 897 1293 917 1325 q 604 719 837 1138 q 488 491 515 528 q 308 121 378 302 l 271 61 l 293 30 q 267 8 293 22 l 262 8 q 172 65 232 8 q 134 102 134 81 l 138 121 q 233 343 189 260 q 274 416 254 416 l 283 416 l 283 419 q 264 429 283 426 l 264 431 l 338 600 q 362 652 362 629 q 419 735 407 690 l 416 757 q 452 799 427 779 l 659 1217 q 796 1444 735 1444 q 856 1431 831 1444 m 754 1400 q 726 1321 742 1400 l 726 1318 l 727 1318 q 761 1385 741 1325 l 761 1393 l 754 1400 m 812 1317 l 812 1312 l 815 1312 q 831 1340 831 1324 l 831 1343 q 812 1317 812 1331 m 768 1109 l 768 1103 l 777 1103 l 783 1112 l 783 1122 q 768 1109 773 1122 m 613 956 q 578 890 602 956 l 578 887 l 581 884 q 616 951 602 906 l 616 956 l 613 956 m 457 602 l 457 600 q 471 609 469 600 l 471 612 q 457 602 460 612 m 385 593 l 384 595 l 372 587 l 324 498 q 283 441 283 453 l 283 434 q 296 425 285 429 q 388 593 324 449 l 385 593 m 450 581 q 429 538 429 553 l 429 536 l 433 536 q 452 581 439 536 l 450 581 m 374 438 q 338 362 361 431 l 343 358 l 346 358 q 378 425 357 370 l 378 434 l 374 438 m 229 274 q 214 245 220 274 l 220 241 l 222 241 q 233 263 233 251 l 233 270 l 229 274 m 309 229 q 279 159 300 221 l 283 153 q 312 225 312 184 l 312 229 l 309 229 m 233 206 l 233 203 l 239 203 q 251 217 247 208 l 248 220 q 233 206 240 218 m 201 220 l 198 208 l 198 206 l 203 206 l 208 210 l 208 220 l 201 220 m 184 130 q 163 111 168 130 q 170 96 163 99 l 172 96 q 189 115 189 96 l 189 125 l 184 130 m 274 45 l 264 45 l 260 39 l 260 35 l 271 33 l 277 33 l 281 37 l 274 45 m 720 308 q 817 241 792 283 q 829 165 829 190 q 798 88 812 102 q 739 54 768 58 l 724 57 l 718 57 l 718 54 l 724 45 l 724 42 l 718 42 q 616 107 659 42 q 598 175 598 137 q 629 269 598 235 q 720 308 688 308 m 661 213 l 661 206 q 731 254 684 206 l 731 260 l 724 263 q 661 213 661 243 m 784 221 q 765 127 784 197 l 765 126 q 800 180 788 126 l 800 202 q 784 221 800 221 m 712 183 l 715 175 l 722 175 q 734 194 734 182 l 734 199 l 730 203 l 722 203 q 712 183 712 201 m 635 193 l 635 165 q 651 133 635 142 l 654 133 l 655 145 q 644 202 655 197 l 635 193 m 689 140 l 689 136 l 693 130 l 696 130 l 696 136 l 692 140 l 689 140 m 718 95 l 718 88 l 724 88 q 769 107 769 96 l 769 109 l 768 109 q 718 95 745 109 m 247 1333 q 345 1267 320 1309 q 357 1191 357 1215 q 326 1114 340 1127 q 266 1080 294 1084 l 252 1082 l 244 1082 l 244 1080 l 252 1070 l 252 1067 l 244 1067 q 142 1133 187 1067 q 126 1200 126 1162 q 157 1294 126 1260 q 247 1333 214 1333 m 187 1238 l 187 1232 q 259 1279 210 1232 l 259 1286 l 252 1289 q 187 1238 187 1268 m 311 1246 q 292 1153 311 1222 l 292 1152 q 328 1206 316 1152 l 328 1227 q 311 1246 328 1246 m 240 1208 l 243 1200 l 250 1200 q 262 1219 262 1207 l 262 1225 l 256 1229 l 250 1229 q 240 1208 240 1226 m 161 1218 l 161 1191 q 178 1158 161 1168 l 180 1158 l 183 1171 q 171 1227 183 1222 l 161 1218 m 216 1165 l 216 1161 l 221 1156 l 224 1156 l 224 1161 l 218 1165 l 216 1165 m 244 1120 l 244 1114 l 252 1114 q 297 1133 297 1122 l 297 1134 l 294 1134 q 244 1120 273 1134 z "},"&":{"ha":1111,"x_min":92,"x_max":1063,"o":"m 396 1397 q 481 1378 419 1389 q 586 1295 530 1358 q 647 1191 647 1206 q 675 1072 675 1139 q 517 818 675 967 q 406 707 425 765 l 406 697 q 510 571 406 669 q 600 517 545 571 q 685 457 635 487 l 685 460 q 694 476 685 469 l 732 454 l 742 454 q 788 600 762 486 l 804 745 l 804 751 q 770 780 804 776 l 766 780 l 742 773 l 738 773 l 735 787 q 764 882 750 882 q 795 922 785 922 l 818 925 l 830 925 q 918 872 863 925 q 1063 758 1006 815 l 1063 757 l 1054 723 l 1054 694 q 1020 662 1054 682 l 1016 662 q 935 685 955 685 l 922 685 q 902 605 910 685 q 827 362 827 406 q 918 293 831 353 q 1020 208 977 236 q 1055 159 1055 174 q 1008 33 1055 140 q 963 -5 1008 7 l 951 -15 l 949 -15 q 935 54 943 -15 q 880 99 928 66 l 880 102 q 906 111 880 107 l 906 113 q 883 125 906 119 l 875 125 l 868 121 l 864 121 q 830 163 864 142 q 764 216 793 216 q 709 127 742 202 q 656 45 661 65 q 448 -31 602 -31 l 422 -34 q 279 11 298 -18 q 178 130 190 95 q 127 222 172 149 q 92 372 92 334 l 111 567 q 149 675 136 675 q 199 716 199 703 q 142 811 184 746 q 106 996 106 952 q 130 1194 106 1095 q 241 1366 130 1305 q 396 1397 307 1397 m 311 1369 l 311 1362 q 365 1375 365 1366 l 365 1378 l 358 1381 q 311 1369 327 1378 m 197 1317 l 201 1312 l 210 1312 q 260 1343 239 1312 l 260 1347 l 256 1352 q 197 1317 228 1352 m 362 1293 l 370 1293 q 403 1314 403 1297 l 396 1317 q 362 1293 369 1317 m 267 1280 l 267 1279 l 282 1279 q 330 1302 330 1286 l 315 1302 q 267 1280 293 1302 m 450 1283 l 450 1280 q 522 1248 450 1270 l 524 1248 l 524 1251 q 463 1283 495 1283 l 450 1283 m 557 1283 q 571 1270 557 1270 l 571 1274 l 562 1283 l 557 1283 m 187 1086 l 201 1015 l 201 1004 q 218 979 208 1004 q 225 970 225 979 l 220 956 l 220 951 q 266 890 220 930 q 332 815 323 815 l 339 815 q 465 887 345 815 q 551 1048 529 952 l 560 1131 q 391 1279 418 1279 q 256 1213 293 1256 q 199 1137 217 1192 q 187 1086 187 1100 m 524 1232 l 524 1229 l 529 1223 l 533 1223 l 533 1236 l 529 1236 l 524 1232 m 579 1053 l 579 1048 l 583 1043 l 586 1043 l 593 1051 l 593 1070 l 589 1074 q 579 1053 579 1072 m 130 1004 l 130 989 l 140 979 l 144 979 l 144 991 q 134 1008 144 1004 l 130 1004 m 555 966 l 555 956 l 557 956 q 589 1005 582 956 l 586 1008 l 581 1008 q 555 966 555 987 m 191 982 l 191 977 q 203 954 191 959 l 209 958 l 209 966 q 194 982 198 982 l 191 982 m 532 909 l 533 909 q 560 920 541 909 l 560 928 q 532 909 532 924 m 232 894 l 229 891 l 229 890 q 267 840 258 840 l 273 840 l 273 844 q 232 894 254 894 m 472 844 l 475 842 l 476 842 q 532 880 496 846 l 533 882 l 533 884 l 532 884 q 472 844 503 878 m 849 861 l 849 859 q 871 840 849 840 l 873 840 l 878 844 q 856 861 869 861 l 849 861 m 178 840 l 182 834 l 187 834 l 187 840 l 182 844 l 178 840 m 275 833 l 275 818 q 301 796 286 796 l 304 796 l 304 804 q 282 833 304 818 l 275 833 m 956 806 l 956 802 q 1008 761 971 774 l 1008 766 q 959 806 986 799 l 956 806 m 903 764 l 902 761 l 902 758 q 916 751 903 751 l 918 751 l 918 758 l 903 764 m 229 735 l 229 732 l 237 732 l 241 738 l 241 739 l 235 739 l 229 735 m 991 697 l 1001 692 q 1025 707 1025 699 l 1025 720 l 1020 720 q 991 697 991 712 m 865 709 l 865 692 l 871 692 l 880 701 l 880 711 l 875 716 l 873 716 l 865 709 m 372 669 l 372 666 q 384 654 372 659 l 387 656 l 387 659 l 377 669 l 372 669 m 315 631 l 315 628 q 406 557 330 610 l 410 557 l 410 562 q 324 635 351 632 l 320 635 l 315 631 m 199 557 l 199 533 l 194 467 q 222 358 209 437 q 263 244 243 312 q 377 127 288 182 q 429 103 412 103 l 438 103 q 595 170 505 103 q 688 286 680 255 l 688 293 q 463 435 643 346 q 301 593 376 490 q 275 605 282 605 l 263 605 q 199 557 199 591 m 387 533 q 406 510 387 519 l 408 510 q 389 533 408 524 l 387 533 m 785 448 l 788 445 l 789 445 l 808 472 l 808 486 l 804 486 q 785 448 798 486 m 175 422 l 175 419 q 184 396 178 396 l 190 396 l 190 410 q 175 422 183 422 m 624 396 l 624 393 l 694 339 l 700 339 l 700 343 q 631 400 651 400 l 628 400 l 624 396 m 194 355 l 194 339 q 229 229 194 296 q 251 187 235 228 q 279 160 273 163 l 285 160 l 285 163 l 229 277 q 199 355 203 355 l 194 355 m 153 320 l 153 301 l 161 293 l 171 293 l 171 298 l 161 320 l 153 320 m 833 305 l 837 301 l 842 301 l 842 305 l 837 311 l 833 305 m 894 267 l 894 264 q 916 241 907 244 l 921 241 l 921 244 q 894 267 914 267 m 675 220 l 675 217 l 678 217 q 709 254 709 233 l 709 260 l 707 260 q 675 220 688 260 m 903 227 q 959 191 903 216 l 968 191 l 972 197 l 972 198 q 916 232 947 232 l 909 232 l 903 227 m 624 160 l 624 156 l 628 156 l 636 163 l 636 168 l 631 168 l 624 160 m 1001 163 l 1001 160 q 1016 149 1006 149 l 1016 160 l 1008 168 l 1006 168 l 1001 163 m 928 151 l 932 146 q 949 156 949 149 l 949 159 q 935 165 947 165 q 928 151 928 163 m 201 146 l 199 144 l 199 137 q 220 118 209 118 l 220 121 q 201 146 220 146 m 334 122 l 334 115 q 368 90 351 90 l 374 90 q 380 96 380 90 q 339 122 357 122 l 334 122 m 979 80 l 979 77 l 987 77 l 991 83 l 991 84 l 985 84 l 979 80 m 495 80 l 495 77 l 500 77 l 500 80 l 495 80 m 551 61 l 551 56 q 617 73 612 58 l 617 75 l 612 80 l 598 80 q 551 61 551 69 m 351 68 l 351 64 q 391 52 351 53 l 408 52 q 355 68 385 68 l 351 68 m 437 56 l 437 52 l 441 52 l 441 56 l 437 56 m 289 35 l 289 30 l 294 30 l 294 27 l 301 30 l 301 37 l 296 42 l 289 35 m 327 8 q 418 -11 327 -3 l 446 -11 q 465 -3 463 -11 q 355 18 465 15 q 327 8 327 16 m 510 -5 l 510 -8 l 522 -11 l 541 -11 l 545 -5 l 541 -1 l 514 -1 l 510 -5 z "},"'":{"ha":345,"x_min":62,"x_max":316,"o":"m 155 1215 q 271 1156 216 1215 q 307 1029 307 1111 q 316 1010 313 1029 l 316 1009 q 300 943 316 996 l 271 859 l 208 779 q 171 823 171 803 q 195 943 179 892 l 195 949 q 167 985 195 975 q 65 1092 65 1039 l 62 1104 q 155 1215 75 1215 m 117 1123 l 117 1108 q 126 1086 117 1090 q 176 1139 141 1115 l 179 1142 l 179 1143 l 174 1149 l 152 1146 l 145 1149 l 145 1153 l 160 1168 l 160 1172 l 155 1172 q 117 1123 123 1172 m 176 1077 l 176 1076 l 180 1076 q 199 1095 199 1076 l 193 1099 l 186 1099 q 176 1077 176 1096 m 240 1063 l 240 1057 l 245 1057 q 255 1067 250 1057 l 252 1070 l 247 1070 l 240 1063 m 160 1001 l 160 997 l 164 991 l 190 991 l 195 997 l 195 1001 l 176 1004 l 160 1001 m 252 991 l 252 987 l 256 987 l 262 991 l 262 997 l 256 997 l 252 991 m 227 935 l 227 925 l 231 921 l 237 928 l 237 933 l 231 940 l 227 935 m 259 906 l 250 886 l 255 886 l 266 899 l 266 906 l 259 906 z "},"(":{"ha":480,"x_min":71,"x_max":439,"o":"m 355 1614 q 387 1569 382 1614 q 430 1481 411 1506 l 430 1478 l 429 1477 l 410 1469 l 410 1462 q 423 1455 412 1455 l 437 1459 l 355 1404 l 250 1127 q 203 722 203 861 l 199 709 l 197 708 l 197 705 l 201 699 l 201 689 l 193 680 q 179 686 190 686 l 174 686 q 157 674 161 686 q 174 595 164 595 q 194 627 179 597 l 199 627 q 209 610 203 610 q 209 595 212 610 l 206 595 q 193 572 193 586 l 194 544 l 190 525 l 190 519 q 217 458 190 458 q 282 275 256 312 q 334 145 297 250 q 439 -35 396 28 l 439 -42 l 429 -45 l 399 -45 q 355 -64 382 -45 l 343 -64 q 293 -42 327 -42 q 233 81 275 -34 q 119 408 186 170 l 91 610 q 83 699 88 610 q 71 810 71 736 l 71 836 q 90 895 71 856 l 90 898 q 123 1063 90 960 q 197 1401 172 1401 q 263 1516 218 1466 q 355 1614 309 1592 m 319 1545 l 319 1544 l 327 1544 l 330 1550 l 327 1553 l 326 1553 l 319 1545 m 311 1512 l 311 1510 l 316 1506 l 319 1506 l 323 1510 l 323 1519 l 319 1519 l 311 1512 m 176 1208 l 176 1202 l 180 1196 q 201 1263 187 1203 q 209 1278 206 1264 l 213 1278 l 229 1265 q 252 1326 252 1282 l 252 1348 l 247 1348 l 245 1345 q 236 1332 241 1345 l 229 1326 q 217 1336 218 1331 q 247 1396 236 1396 l 259 1393 l 270 1393 q 311 1468 292 1393 l 311 1474 q 273 1446 302 1474 l 273 1449 q 290 1481 290 1473 l 290 1487 l 286 1491 l 279 1491 q 231 1417 231 1451 q 176 1208 176 1303 m 357 1469 l 339 1469 q 311 1405 327 1469 q 310 1387 300 1390 q 339 1427 320 1383 q 376 1484 376 1468 l 366 1491 l 363 1491 q 357 1469 359 1491 m 363 1405 l 363 1396 l 369 1392 l 380 1392 q 403 1424 403 1405 q 384 1446 397 1446 q 363 1405 373 1446 m 254 1420 l 259 1420 l 259 1417 l 254 1417 l 254 1420 m 282 1345 l 282 1344 l 290 1344 l 296 1348 l 296 1351 l 286 1351 l 282 1345 m 267 1298 l 267 1294 l 273 1289 q 289 1322 283 1289 l 289 1332 l 286 1332 q 267 1298 267 1321 m 190 1059 l 190 1057 l 193 1057 q 213 1142 206 1065 l 210 1142 q 190 1059 190 1112 m 183 1023 l 183 1013 l 187 1009 l 193 1009 l 194 1019 l 187 1023 l 183 1023 m 133 895 l 133 890 q 164 940 153 890 q 153 968 157 968 q 133 895 133 933 m 193 662 l 194 662 q 203 646 203 658 l 203 642 l 201 642 q 190 655 197 642 l 193 662 m 203 423 l 203 411 l 213 401 l 217 401 l 217 414 l 209 423 l 203 423 m 194 349 l 190 316 q 213 252 202 252 l 216 252 l 222 262 q 240 273 240 267 q 194 349 217 349 m 237 250 l 233 243 l 233 235 q 263 190 247 190 l 263 197 q 237 250 263 228 m 326 85 l 327 60 l 316 47 q 357 24 316 31 l 359 24 l 359 26 q 327 85 351 56 l 326 85 m 343 -19 l 343 -23 q 359 -33 347 -33 l 366 -33 l 377 -22 q 353 -12 377 -15 l 350 -12 l 343 -19 z "},")":{"ha":621,"x_min":66,"x_max":566,"o":"m 347 1626 l 351 1626 q 433 1487 393 1588 q 513 1290 488 1389 q 560 971 537 1203 q 566 951 564 971 q 553 936 562 940 l 551 939 l 551 962 q 540 986 551 981 l 537 986 q 532 979 532 986 l 530 932 l 532 872 q 540 863 536 863 l 553 867 l 559 867 l 566 860 l 566 857 q 540 803 551 841 l 540 800 q 553 755 540 791 q 513 682 534 682 l 487 701 q 468 637 475 701 l 471 635 l 480 635 l 506 651 l 513 644 l 515 644 l 513 637 l 522 620 l 513 544 l 513 540 q 532 528 514 534 l 534 514 q 521 476 528 476 l 515 495 q 426 347 490 495 l 430 347 q 475 385 468 385 l 475 378 q 380 186 449 305 q 275 22 301 52 l 262 11 l 259 11 l 262 27 l 262 34 l 256 39 l 250 39 l 208 1 q 186 -23 186 -7 l 189 -23 l 202 -14 l 205 -14 l 208 -26 l 205 -42 l 209 -42 l 228 -27 l 233 -27 l 240 -35 l 240 -37 q 205 -80 240 -49 q 199 -109 199 -85 l 193 -115 l 189 -115 l 180 -106 l 179 -103 l 174 -103 q 157 -111 165 -111 q 100 -49 129 -73 q 75 -20 95 -20 l 66 -18 l 66 -14 l 84 -8 l 114 -16 l 119 -16 q 174 27 174 -1 l 170 31 l 132 15 l 129 18 l 129 20 q 214 107 129 26 q 290 248 247 141 q 312 278 312 270 q 347 382 336 377 q 361 354 354 382 l 363 354 q 420 571 420 492 l 423 642 l 420 642 q 373 476 399 642 q 351 397 366 397 l 350 397 l 347 404 l 370 575 q 392 635 382 581 q 408 705 408 673 l 404 793 q 418 818 404 802 l 418 831 q 430 914 427 861 q 293 1451 430 1237 q 255 1511 262 1484 q 274 1531 274 1519 l 269 1531 l 245 1530 l 243 1531 l 243 1534 q 302 1603 243 1558 q 347 1626 320 1603 m 347 1600 l 347 1594 q 357 1568 350 1568 l 359 1568 q 369 1584 369 1571 l 369 1587 l 354 1600 l 347 1600 m 290 1549 l 290 1546 l 294 1541 l 307 1541 l 316 1550 l 316 1558 l 312 1558 q 290 1549 293 1558 m 304 1493 l 304 1492 l 351 1455 l 354 1458 l 354 1461 q 345 1489 345 1477 l 347 1492 l 350 1492 q 335 1501 347 1501 l 312 1501 l 304 1493 m 350 1444 l 347 1442 l 347 1436 l 351 1432 l 354 1432 l 354 1439 l 350 1444 m 366 1408 l 366 1404 l 373 1397 l 376 1397 l 376 1404 l 370 1408 l 366 1408 m 392 1313 l 392 1312 q 426 1207 392 1289 l 423 1198 l 423 1192 l 426 1192 q 454 1185 445 1192 l 461 1185 q 465 1192 465 1185 q 399 1313 465 1211 l 392 1313 m 423 1180 l 423 1179 q 456 1050 456 1065 l 454 998 l 458 998 q 490 1034 471 1017 l 502 1138 l 430 1180 l 423 1180 m 473 951 l 473 943 l 477 943 l 477 951 l 473 951 m 560 922 l 566 922 l 566 917 l 560 913 l 553 913 l 553 914 l 560 922 m 553 888 l 556 888 l 560 884 l 559 882 l 556 882 l 553 884 l 553 888 m 503 803 l 503 780 l 509 774 l 513 774 q 518 831 518 796 l 515 834 l 513 834 q 503 803 506 834 m 449 799 l 454 799 q 461 812 461 800 l 461 827 l 456 831 q 449 799 449 831 m 454 571 q 465 540 457 540 l 468 540 q 496 575 491 540 l 496 594 q 487 610 496 606 l 475 604 l 473 616 l 471 616 q 454 571 454 606 m 426 435 l 427 435 q 471 514 454 465 l 468 515 l 465 515 q 426 435 444 515 m 499 435 l 503 430 l 502 423 l 494 423 l 494 430 l 499 435 m 487 410 l 490 410 l 490 407 l 483 400 l 480 400 l 480 401 l 487 410 m 351 240 l 359 240 q 414 315 414 283 l 411 315 q 359 258 400 315 q 351 240 351 248 m 269 94 l 275 91 q 361 210 316 125 l 361 214 l 359 217 q 283 132 328 197 l 269 94 m 250 -11 l 252 -14 l 252 -16 l 245 -20 l 245 -16 l 250 -11 m 145 -42 l 138 -58 q 152 -73 138 -64 l 155 -73 q 176 -56 167 -73 l 176 -54 q 151 -42 176 -45 l 145 -42 z "},"*":{"ha":1085,"x_min":33,"x_max":1051,"o":"m 510 1202 l 521 1202 l 521 1196 q 609 993 525 1175 q 644 892 624 967 l 647 890 l 709 890 q 1051 869 1051 883 l 1051 864 q 1013 804 1034 844 q 899 712 981 768 q 795 614 795 620 l 795 610 q 891 406 830 515 q 954 294 891 385 q 967 273 967 286 q 944 262 951 262 q 728 354 854 313 q 540 396 582 396 q 434 313 522 396 l 270 190 q 245 183 258 183 l 244 183 q 227 216 237 184 q 254 292 227 239 q 282 525 270 334 l 282 528 q 241 570 282 549 q 68 774 241 595 l 64 788 l 64 791 l 68 791 l 68 793 l 71 791 l 102 791 l 102 795 l 94 803 l 68 803 l 42 800 l 33 803 l 33 807 q 56 819 33 812 l 56 823 l 49 836 q 130 867 49 853 l 140 867 l 339 852 q 445 1108 370 910 q 510 1202 486 1181 m 488 1085 l 488 1078 l 492 1073 q 505 1092 505 1078 l 505 1101 l 498 1101 q 488 1085 488 1097 m 460 947 l 454 940 l 454 936 l 463 936 l 464 945 l 463 947 l 460 947 m 593 876 l 593 861 l 595 861 l 600 867 l 600 880 l 597 880 l 593 876 m 416 864 l 416 860 l 422 860 l 429 867 l 429 871 l 425 871 l 416 864 m 533 852 q 502 791 522 844 q 472 736 487 781 l 473 736 q 517 772 507 736 q 543 831 534 798 l 552 841 l 552 842 q 533 852 552 846 m 113 836 l 113 833 l 137 831 l 146 831 q 178 838 178 831 l 178 841 q 163 848 178 845 q 113 836 113 844 m 979 836 l 979 831 l 985 831 l 991 838 l 991 842 l 986 842 l 979 836 m 730 819 l 738 819 l 738 823 l 735 823 l 730 819 m 113 798 q 134 774 122 780 l 141 774 l 141 788 q 118 804 141 798 q 113 798 113 804 m 735 743 q 749 728 739 734 l 758 728 q 823 772 811 750 l 823 779 l 815 785 l 795 785 q 735 743 735 772 m 625 757 l 625 753 l 633 746 l 635 746 q 669 760 669 751 l 669 765 l 656 766 l 643 766 q 625 757 629 766 m 416 503 l 419 500 l 422 500 q 549 684 538 628 q 567 741 567 716 l 567 743 q 533 677 544 743 l 500 624 q 431 548 473 567 l 416 503 m 694 715 l 700 715 l 704 719 l 704 722 l 701 722 l 694 715 m 464 680 l 467 677 q 479 693 479 680 l 479 700 l 476 700 q 464 680 469 700 m 730 651 q 709 620 709 625 l 711 620 q 735 648 735 632 l 732 651 l 730 651 m 406 632 l 406 624 q 425 613 411 613 l 429 613 l 434 617 l 434 623 q 416 632 430 632 l 406 632 m 590 623 l 590 617 l 593 617 l 600 624 l 600 627 l 595 627 l 590 623 m 559 534 l 564 534 q 614 589 590 553 l 614 591 l 612 591 q 559 534 559 553 m 694 538 l 694 532 q 728 547 722 532 l 728 556 l 716 556 l 694 538 m 662 472 q 678 463 665 463 l 685 463 q 694 484 694 467 l 688 487 q 662 472 662 480 m 450 458 l 450 453 l 453 453 l 457 458 l 457 463 l 454 463 l 450 458 m 719 461 l 719 458 q 732 444 720 450 l 745 444 l 745 446 q 720 461 735 461 l 719 461 m 631 449 l 631 446 q 681 425 631 437 l 682 427 l 682 430 q 633 449 647 449 l 631 449 m 770 423 l 776 418 l 787 418 q 802 425 799 418 l 796 430 l 785 430 q 770 423 770 429 m 789 370 l 789 368 q 856 339 789 357 l 861 339 l 861 342 q 789 370 861 353 m 340 297 l 343 294 l 346 294 q 368 309 362 301 l 368 313 l 365 313 q 340 297 340 308 z "},"+":{"ha":811,"x_min":168,"x_max":731,"o":"m 507 298 q 359 297 506 288 l 358 294 q 350 467 339 297 q 262 458 289 458 l 262 463 q 351 488 262 475 l 351 490 q 349 511 350 500 q 247 463 247 494 l 233 456 q 168 589 168 456 q 316 640 168 624 q 335 646 316 644 l 340 644 q 342 770 338 734 l 347 769 q 361 640 361 768 l 373 639 l 384 639 q 349 784 385 779 l 343 799 q 483 845 351 863 q 517 692 518 841 q 518 673 519 692 l 513 656 l 699 684 l 708 684 q 728 536 719 684 l 731 536 q 538 503 731 515 q 506 496 522 499 l 509 308 l 507 298 m 528 529 l 529 529 q 699 545 699 536 l 699 548 q 686 560 696 555 l 684 560 q 528 532 623 560 l 528 529 m 373 326 l 374 326 q 388 336 381 326 l 388 338 q 384 473 395 391 q 376 472 378 472 q 373 326 363 327 m 431 430 l 426 391 q 434 323 420 330 l 439 321 l 442 331 q 431 430 441 430 m 586 591 l 627 591 q 693 608 688 593 l 693 612 l 684 614 q 586 591 586 600 m 479 815 l 456 818 l 450 814 l 450 811 q 472 799 449 804 l 480 798 l 486 802 l 486 807 l 479 815 m 199 589 l 199 564 l 205 560 l 206 560 q 216 583 213 560 l 216 591 l 212 595 l 206 595 l 199 589 m 472 446 l 469 423 q 476 401 467 406 l 477 400 l 479 406 q 472 446 480 446 m 566 629 l 589 629 q 610 639 606 629 l 610 640 l 605 640 q 566 629 566 636 m 648 650 l 648 646 l 665 646 l 677 648 l 677 652 l 661 652 l 648 650 m 483 362 l 477 362 l 476 346 l 476 334 l 481 334 l 483 350 l 483 362 m 472 758 l 469 758 l 468 749 l 472 743 l 477 743 l 479 750 l 472 758 m 256 589 l 256 586 l 266 586 l 271 591 l 271 595 l 263 595 l 256 589 m 430 821 l 426 822 l 425 817 l 429 811 l 434 811 l 434 815 l 430 821 m 199 538 l 199 534 l 205 534 l 209 538 l 209 544 l 205 544 l 199 538 m 376 595 l 376 589 l 377 589 l 382 589 q 382 598 382 593 q 376 595 380 597 m 434 471 l 430 472 l 429 463 l 434 467 l 434 471 m 547 589 l 547 583 l 556 583 l 551 589 l 547 589 m 465 612 l 465 608 l 468 608 q 467 614 467 610 q 465 612 465 613 m 378 498 l 378 495 q 377 492 378 494 q 381 492 378 492 q 380 496 380 495 l 378 498 m 469 525 l 471 524 l 472 524 l 472 525 l 471 525 l 469 525 z "},",":{"ha":385,"x_min":71,"x_max":313,"o":"m 145 311 q 260 266 179 311 l 260 263 q 231 251 231 256 q 278 201 270 201 l 298 206 q 311 194 305 206 l 304 171 q 313 142 313 153 q 278 45 313 68 q 289 39 278 39 l 289 35 q 269 23 289 31 l 269 14 l 294 9 q 247 -76 281 -33 q 174 -141 194 -141 l 159 -126 q 140 -133 149 -133 l 137 -126 q 184 -88 155 -88 l 187 -85 l 187 -84 q 159 -72 187 -79 l 159 -66 q 178 42 178 14 l 178 47 q 123 58 178 52 q 71 168 71 100 l 71 184 q 127 273 71 273 q 149 286 149 281 l 145 292 l 118 292 l 114 296 l 114 298 q 145 311 123 311 m 168 270 l 168 267 l 193 267 l 193 275 l 174 275 l 168 270 m 123 197 l 123 191 q 197 232 138 191 l 197 235 l 184 237 q 127 216 127 237 l 123 197 m 145 149 l 145 144 l 149 140 l 164 153 l 180 153 l 183 165 l 183 175 l 175 182 l 174 182 q 145 149 145 176 z "},"-":{"ha":677,"x_min":66,"x_max":629,"o":"m 605 666 q 627 518 616 666 l 629 518 q 437 486 629 498 q 159 441 221 441 l 159 445 q 317 480 159 461 q 387 505 387 496 l 387 507 l 368 507 q 145 445 145 492 l 130 438 q 66 571 66 438 q 213 623 66 606 q 232 628 213 627 l 270 621 l 288 621 l 595 666 l 605 666 m 545 632 l 545 628 l 563 628 l 574 631 l 574 635 l 557 635 l 545 632 m 463 612 l 487 612 q 507 621 505 612 l 507 623 l 503 623 q 463 612 463 618 m 363 594 l 363 590 l 365 590 q 387 600 384 590 l 387 602 l 377 602 q 363 594 363 600 m 484 574 l 525 574 q 591 590 586 575 l 591 594 l 582 597 q 484 574 484 582 m 273 578 l 273 571 l 275 571 q 336 587 315 571 l 336 590 l 332 590 q 273 578 311 590 m 98 571 l 98 547 l 102 543 l 104 543 q 114 566 111 543 l 114 574 l 109 578 l 104 578 l 98 571 m 155 571 l 155 568 l 164 568 l 168 574 l 168 578 l 161 578 l 155 571 m 444 571 l 444 566 l 453 566 l 449 571 l 444 571 m 425 511 l 427 511 q 595 528 595 518 l 595 530 q 583 543 594 537 l 582 543 q 425 514 519 543 l 425 511 m 98 521 l 98 517 l 102 517 l 107 521 l 107 526 l 102 526 l 98 521 z "},".":{"ha":385,"x_min":104,"x_max":292,"o":"m 203 221 q 285 191 260 212 q 292 157 292 175 l 292 132 q 203 18 292 54 l 180 8 q 104 81 141 8 l 104 91 q 130 191 104 172 q 203 221 183 221 m 142 138 q 156 88 148 88 q 174 155 161 91 l 180 167 l 180 174 l 178 174 q 142 138 142 161 m 193 126 l 193 122 q 202 100 193 103 l 203 100 q 225 141 214 100 l 225 151 l 221 155 l 216 155 q 193 126 194 155 m 250 100 l 251 98 l 259 98 l 260 110 l 260 115 l 259 115 q 250 100 254 115 m 152 56 q 164 39 152 43 l 184 39 q 222 60 206 39 l 222 62 l 152 56 z "},"/":{"ha":856,"x_min":37,"x_max":831,"o":"m 758 1413 q 803 1392 803 1407 q 831 1375 831 1383 q 808 1337 808 1344 l 819 1321 l 819 1318 q 799 1276 819 1308 q 506 701 739 1122 q 391 473 418 511 q 210 103 281 285 l 174 43 l 195 14 q 170 -8 195 5 l 164 -8 q 75 49 134 -8 q 37 84 37 65 l 41 103 q 136 327 91 244 q 176 400 156 400 l 186 400 l 186 403 q 167 412 186 408 l 167 414 l 240 583 q 264 635 264 613 q 321 718 309 673 l 319 739 q 354 783 330 761 l 562 1200 q 699 1428 637 1428 q 758 1413 734 1428 m 656 1382 q 628 1305 644 1382 l 628 1302 l 629 1302 q 663 1369 643 1309 l 663 1375 l 656 1382 m 715 1299 l 715 1295 l 718 1295 q 734 1324 734 1306 l 734 1325 q 715 1299 715 1314 m 670 1093 l 670 1086 l 680 1086 l 685 1096 l 685 1105 q 670 1093 675 1105 m 515 939 q 480 872 505 939 l 480 869 l 483 868 q 518 935 505 888 l 518 939 l 515 939 m 359 585 l 359 583 q 373 593 372 583 l 373 594 q 359 585 362 594 m 288 575 l 286 578 l 274 571 l 227 480 q 186 423 186 437 l 186 416 q 198 407 187 411 q 290 575 227 431 l 288 575 m 353 564 q 331 521 331 537 l 331 518 l 335 518 q 354 564 342 518 l 353 564 m 277 422 q 240 346 263 414 l 245 340 l 248 340 q 281 407 259 354 l 281 416 l 277 422 m 132 258 q 117 229 122 258 l 122 224 l 125 224 q 136 245 136 233 l 136 252 l 132 258 m 212 213 q 182 141 202 205 l 186 137 q 214 208 214 167 l 214 213 l 212 213 m 136 189 l 136 186 l 141 186 q 153 201 149 191 l 151 203 q 136 189 142 201 m 103 203 l 100 191 l 100 189 l 106 189 l 110 194 l 110 203 l 103 203 m 87 113 q 65 94 71 113 q 72 80 65 81 l 75 80 q 91 99 91 80 l 91 109 l 87 113 m 176 27 l 167 27 l 163 23 l 163 18 l 174 15 l 179 15 l 183 20 l 176 27 z "},":":{"ha":385,"x_min":71,"x_max":305,"o":"m 225 903 q 305 815 294 903 q 248 685 305 769 q 179 637 202 637 q 71 726 117 637 l 71 735 q 111 865 92 837 q 225 903 179 903 m 184 878 l 184 869 l 197 868 l 225 868 q 244 875 241 868 q 220 884 244 882 l 184 878 m 134 849 l 134 841 l 140 841 l 144 846 l 144 849 l 140 853 l 134 849 m 182 796 q 208 789 182 792 q 232 774 216 774 l 232 768 q 201 754 232 762 l 198 746 q 213 727 205 731 l 217 727 q 245 764 245 735 l 245 765 l 227 808 l 235 812 l 248 811 l 254 815 l 254 818 q 216 841 254 841 q 182 803 187 841 l 182 796 m 134 784 l 134 768 q 141 749 134 750 l 144 749 l 144 784 l 140 789 l 134 784 m 178 350 l 217 350 q 296 281 273 350 l 296 274 q 267 165 285 182 q 201 110 228 110 q 127 153 153 121 q 103 214 103 197 l 122 296 q 178 350 122 335 m 141 305 l 141 300 l 144 300 q 179 319 163 300 l 179 324 l 172 324 q 141 305 153 324 m 222 289 l 222 286 q 235 264 222 264 q 241 281 241 273 q 235 293 239 293 l 227 293 l 222 289 m 194 281 q 182 260 182 269 l 182 255 l 187 251 l 206 251 l 210 255 l 210 260 q 194 281 210 277 m 210 217 l 172 220 l 170 213 q 191 195 176 195 l 208 195 q 255 222 255 195 l 255 229 l 254 241 l 248 241 q 210 217 225 217 z "},";":{"ha":385,"x_min":66,"x_max":332,"o":"m 197 949 q 294 883 270 925 q 307 807 307 830 q 275 728 290 742 q 216 696 244 700 l 202 697 l 194 697 l 194 696 l 202 686 l 202 684 l 194 684 q 92 747 137 684 q 76 817 76 777 q 107 909 76 875 q 197 949 164 949 m 137 854 l 137 848 q 209 895 160 848 l 209 902 l 202 905 q 137 854 137 884 m 260 861 q 241 769 260 838 l 241 766 q 278 821 266 766 l 278 842 q 260 861 278 861 m 190 823 l 193 817 l 199 817 q 212 836 212 822 l 212 840 l 206 845 l 199 845 q 190 823 190 841 m 111 833 l 111 807 q 127 773 111 784 l 130 773 l 133 785 q 121 842 133 838 l 111 833 m 165 781 l 165 776 l 171 772 l 174 772 l 174 776 l 168 781 l 165 781 m 194 735 l 194 728 l 202 728 q 247 747 247 738 l 247 750 l 244 750 q 194 735 222 750 m 218 273 q 275 235 260 273 q 304 209 294 235 q 279 152 279 168 l 282 149 l 288 149 q 308 190 297 149 l 316 190 q 332 88 332 190 q 279 -102 304 -102 l 275 -102 l 273 -95 l 282 -43 l 279 -43 q 237 -129 269 -43 l 237 -136 l 240 -138 l 241 -138 l 263 -126 q 171 -209 218 -190 l 161 -202 q 197 -45 197 -109 l 197 -38 q 183 50 197 50 q 66 155 66 64 q 218 273 66 252 m 184 241 q 213 231 184 235 l 231 231 q 244 237 243 231 q 206 250 244 247 l 199 250 q 184 241 184 247 m 133 180 l 140 178 q 164 197 159 187 l 164 203 l 161 203 q 133 180 133 195 m 180 156 l 184 156 q 203 190 203 174 q 180 156 180 183 m 136 145 l 136 140 q 174 104 148 119 l 180 104 l 180 109 q 137 145 156 144 l 136 145 m 260 85 l 260 79 l 266 79 l 266 85 l 260 85 m 231 33 l 240 33 q 254 47 254 33 l 254 52 l 247 52 q 231 33 231 43 m 269 31 l 269 22 q 285 41 285 22 l 285 42 l 279 42 l 269 31 m 216 -66 l 221 -66 l 221 -69 q 254 -12 243 -53 l 254 -9 l 250 -5 q 225 -47 241 -8 q 216 -66 216 -56 z "},"<":{"ha":532,"x_min":83,"x_max":475,"o":"m 395 751 q 437 726 426 726 l 437 716 q 430 711 430 716 l 437 704 l 442 704 l 452 707 q 463 694 457 707 q 288 510 463 662 q 263 481 263 496 l 263 476 q 311 407 263 454 q 475 213 384 315 l 475 208 q 373 175 458 208 q 247 293 340 175 q 88 486 88 463 l 83 491 l 83 495 l 85 498 l 85 500 q 123 486 113 486 l 157 543 l 157 548 l 102 538 l 100 540 l 100 543 q 301 700 170 608 q 395 751 358 747 m 366 633 l 366 628 q 408 671 389 628 l 408 681 l 404 681 q 366 633 382 681 m 320 643 l 320 635 l 328 635 q 354 647 354 639 l 354 650 l 349 654 l 339 654 q 320 643 327 654 m 202 606 l 205 606 q 235 635 235 614 q 202 606 216 635 m 266 567 l 269 564 l 271 564 q 313 602 289 568 l 313 609 l 304 609 q 266 567 266 581 m 339 282 q 366 244 351 254 l 370 248 l 370 260 q 345 286 361 277 l 339 282 m 354 217 l 354 208 q 373 194 359 194 l 376 194 l 376 197 q 358 217 376 210 l 354 217 z "},"=":{"ha":811,"x_min":141,"x_max":735,"o":"m 709 412 q 707 263 720 410 l 709 263 q 514 260 707 243 q 233 259 296 250 l 233 263 q 396 274 236 279 q 468 286 467 278 l 469 289 l 450 292 q 220 266 228 312 l 205 260 q 163 403 141 271 q 316 431 168 437 q 335 433 316 434 l 372 419 l 388 416 l 700 414 l 709 412 m 646 388 l 644 384 l 661 381 l 673 381 l 674 387 l 658 389 l 646 388 m 560 380 l 583 376 q 606 382 601 373 l 606 385 l 602 385 q 560 380 562 388 m 458 380 l 458 374 l 461 374 q 483 380 479 372 l 483 382 l 475 384 q 458 380 460 385 m 575 339 l 614 332 q 684 339 675 326 l 684 343 l 675 347 q 575 339 576 349 m 368 377 l 366 370 l 369 369 q 433 376 408 363 l 433 378 l 427 380 q 368 377 407 382 m 193 397 l 189 374 l 193 369 l 195 368 q 209 391 202 368 l 209 397 l 206 403 l 201 403 l 193 397 m 250 388 l 248 387 l 258 385 l 263 388 l 264 393 l 258 395 l 250 388 m 534 343 l 534 339 l 544 336 l 540 342 l 534 343 m 507 288 l 509 288 q 678 277 677 267 l 678 279 q 669 293 678 286 l 666 293 q 507 290 605 302 l 507 288 m 184 349 l 184 343 l 189 343 l 194 347 l 195 351 l 190 353 l 184 349 m 724 646 q 707 498 735 643 l 709 496 q 515 513 704 477 q 235 540 296 524 l 236 544 q 399 538 240 560 q 472 544 469 536 l 472 547 l 454 551 q 222 548 235 593 l 208 544 q 179 689 145 560 q 334 703 187 724 q 354 703 335 705 l 388 686 l 404 682 l 715 647 l 724 646 m 658 628 l 656 624 l 673 618 l 685 618 l 686 623 l 670 627 l 658 628 m 572 628 l 595 623 q 618 627 613 617 l 618 628 l 614 629 q 572 628 574 636 m 472 637 l 471 632 l 472 632 q 495 636 490 628 l 496 639 l 487 640 q 472 637 473 643 m 583 586 l 623 576 q 690 575 682 563 l 692 579 l 684 585 q 583 586 586 595 m 380 644 l 378 637 l 381 636 q 445 637 419 627 l 445 639 l 441 640 q 380 644 420 646 m 209 681 l 202 658 l 206 652 l 208 652 q 224 673 214 651 l 225 680 l 221 685 l 217 686 l 209 681 m 263 667 l 263 665 l 273 662 l 278 666 l 279 670 l 273 673 l 263 667 m 544 594 l 543 590 l 552 587 l 548 593 l 544 594 m 510 541 l 513 541 q 680 514 677 505 l 681 517 q 671 532 681 524 l 670 532 q 511 544 610 547 l 510 541 m 195 633 l 194 628 l 199 628 l 205 631 l 206 635 l 202 636 l 195 633 z "},">":{"ha":540,"x_min":79,"x_max":473,"o":"m 189 811 q 231 773 231 803 l 229 766 l 227 766 l 208 770 q 195 761 197 766 l 195 754 l 214 754 l 240 758 q 397 530 382 582 q 435 472 435 483 q 458 445 435 458 l 473 419 q 362 293 468 385 q 240 141 269 189 l 233 141 l 233 144 l 236 168 l 233 170 l 231 170 q 151 127 214 156 l 148 130 l 148 132 l 153 160 q 117 178 153 167 l 107 189 l 107 217 l 100 235 q 245 429 113 288 q 255 435 255 429 l 255 438 q 110 681 255 458 q 79 739 79 727 l 87 742 l 113 732 l 115 732 l 132 754 q 155 780 155 766 l 148 780 l 107 761 l 107 764 l 106 766 q 189 811 129 811 m 134 692 q 172 633 134 678 q 229 555 172 625 l 305 435 q 331 419 305 422 l 334 419 l 340 426 l 255 562 q 221 606 221 581 q 172 682 187 647 q 145 707 155 707 q 134 692 138 707 m 312 606 l 312 605 q 400 450 320 575 l 397 444 l 395 444 q 334 495 384 444 l 334 492 q 391 425 355 425 l 430 422 l 430 426 q 347 567 407 453 q 312 606 324 606 m 125 222 l 125 216 l 129 210 l 134 210 q 210 267 146 210 q 324 396 296 334 l 319 396 q 134 229 304 396 q 125 222 125 228 m 350 368 l 350 362 l 353 362 q 407 387 407 362 l 407 388 l 400 396 l 391 396 q 350 368 374 396 m 176 198 l 176 191 l 183 189 q 271 260 220 189 q 288 283 279 263 q 350 331 331 283 l 350 340 l 340 340 q 176 198 176 205 z "},"?":{"ha":772,"x_min":41,"x_max":762,"o":"m 438 1257 q 601 1207 477 1257 q 762 1001 762 1134 l 762 935 q 718 795 762 868 q 675 704 692 704 q 601 643 601 667 l 601 624 q 616 481 601 555 q 591 384 610 384 q 525 350 576 384 l 506 346 q 473 381 473 346 q 439 663 439 574 q 530 757 439 681 q 587 827 578 803 q 610 849 606 849 l 628 844 q 658 920 643 844 l 658 925 l 639 960 l 639 966 l 637 966 l 644 985 l 644 1010 q 613 1055 644 1029 q 568 1093 601 1093 q 429 1115 506 1115 l 410 1115 q 221 979 308 1115 l 148 884 l 148 880 q 75 869 109 830 q 41 928 41 909 l 62 998 q 144 1100 85 1050 q 335 1233 251 1188 q 438 1257 381 1257 m 335 1203 l 335 1200 l 357 1200 q 442 1222 407 1200 l 442 1229 l 438 1233 l 419 1233 q 335 1203 374 1233 m 506 1203 l 506 1200 q 518 1194 506 1195 q 540 1203 540 1195 l 534 1207 l 511 1207 l 506 1203 m 290 1169 l 296 1165 l 319 1172 l 319 1181 l 315 1181 q 290 1169 296 1181 m 637 1160 l 635 1157 q 685 1115 647 1130 l 694 1115 l 694 1118 q 637 1160 694 1130 m 170 1089 q 248 1131 203 1089 q 267 1143 267 1138 l 267 1146 l 255 1157 l 252 1157 q 183 1115 244 1157 q 170 1089 170 1109 m 410 1157 l 410 1153 l 416 1153 l 416 1157 l 410 1157 m 138 1062 l 138 1058 l 141 1058 q 151 1072 151 1061 l 148 1072 l 138 1062 m 724 1043 l 724 1039 q 734 1023 724 1025 l 736 1023 l 736 1024 q 727 1043 736 1038 l 724 1043 m 195 1017 l 195 1015 l 198 1015 q 212 1029 206 1017 l 212 1032 l 208 1036 q 195 1017 195 1031 m 88 985 l 88 982 l 96 979 q 122 1013 122 996 l 122 1020 l 117 1020 q 88 985 88 1000 m 113 937 l 113 932 l 117 932 l 122 937 l 122 941 l 117 941 l 113 937 m 125 852 l 125 846 l 129 846 l 129 852 l 125 852 m 623 833 l 623 825 l 628 825 l 632 830 l 632 833 l 623 833 m 637 745 l 637 739 l 642 739 q 661 749 659 739 l 658 751 l 656 751 q 637 745 637 750 m 487 650 l 487 644 q 511 600 487 600 q 518 616 515 600 q 509 673 517 673 l 499 673 q 487 650 487 667 m 559 602 l 559 600 l 568 600 l 568 606 l 563 606 l 559 602 m 499 571 l 499 567 q 511 548 499 553 l 515 548 l 518 559 q 506 578 518 571 l 499 571 m 515 438 l 524 415 l 515 384 l 528 384 q 549 397 541 384 l 549 406 q 543 441 543 411 l 533 448 l 525 448 l 515 438 m 552 248 q 654 208 583 247 q 682 194 682 199 q 648 182 682 187 l 647 179 l 647 175 l 658 144 q 617 8 692 57 q 457 122 498 4 l 452 151 q 552 248 452 191 m 540 216 l 540 213 q 597 189 545 202 l 600 191 l 600 197 q 552 216 585 216 l 540 216 m 525 134 q 543 122 525 130 q 549 111 544 111 l 553 111 l 575 140 q 563 156 575 151 l 534 156 q 525 134 525 152 z "},"@":{"ha":1473,"x_min":100,"x_max":1407,"o":"m 831 1397 q 944 1377 884 1377 q 1036 1350 951 1369 l 1115 1283 q 1236 1198 1160 1267 q 1274 1177 1274 1191 l 1268 1158 q 1324 1073 1268 1143 q 1388 897 1363 1006 q 1407 700 1400 897 l 1401 652 l 1407 628 q 1363 431 1390 471 q 1354 418 1363 425 l 1350 418 q 1343 427 1343 418 q 1359 505 1348 437 q 1373 532 1373 518 l 1373 538 l 1362 564 q 1381 783 1371 601 l 1352 887 q 1325 987 1352 936 l 1324 979 q 1356 671 1356 829 q 1325 488 1340 488 q 1290 372 1305 429 q 1252 304 1252 317 l 1259 304 q 1333 365 1301 321 q 1375 387 1343 365 l 1381 387 l 1381 384 q 1164 146 1381 361 q 1105 99 1135 140 q 1036 38 1090 61 q 746 -50 798 -50 q 623 -65 712 -57 q 369 127 526 -7 q 167 372 222 210 q 100 617 100 567 l 100 669 q 167 1008 100 825 q 298 1188 240 1127 q 480 1302 419 1297 q 568 1345 506 1312 q 770 1386 617 1371 l 831 1397 m 818 1381 l 818 1374 l 830 1371 l 850 1371 l 850 1377 l 846 1381 l 818 1381 m 765 1348 l 765 1345 l 799 1340 l 818 1343 l 818 1350 l 806 1352 l 770 1352 l 765 1348 m 600 1314 l 600 1310 l 609 1310 q 692 1336 643 1310 l 692 1339 l 685 1340 q 600 1314 613 1337 m 878 1339 l 878 1333 l 887 1324 l 913 1324 q 882 1339 913 1329 l 878 1339 m 742 1329 q 751 1321 742 1325 l 758 1324 l 758 1326 l 751 1333 l 746 1333 l 742 1329 m 979 1329 l 979 1324 q 1027 1305 979 1314 l 1040 1305 l 1040 1312 q 998 1331 1029 1331 l 979 1329 m 941 1274 l 941 1270 q 1002 1253 945 1257 q 1015 1260 1015 1256 l 1015 1263 q 955 1283 1015 1272 q 941 1274 945 1283 m 248 789 q 258 770 254 789 q 241 551 248 574 l 241 538 q 258 484 250 538 q 347 320 288 369 q 488 168 445 168 q 659 127 571 142 q 784 111 708 111 l 802 111 q 1008 184 890 130 q 1100 248 1042 193 l 1112 266 l 1112 275 q 1008 296 1008 282 q 948 425 986 296 l 948 441 l 951 475 q 941 494 947 494 q 774 399 909 481 q 718 384 738 384 l 716 384 q 552 450 604 384 q 498 532 507 488 q 457 655 457 629 q 511 864 457 758 q 559 935 541 894 q 803 1067 680 1067 q 970 979 860 1067 l 972 979 l 983 1006 l 989 1006 l 1002 1001 l 1005 1001 q 1039 1008 1025 1001 l 1055 991 q 1077 954 1077 991 q 1034 637 1077 770 q 1005 627 1005 632 q 1034 460 1020 627 q 1086 362 1034 411 l 1088 362 q 1179 419 1101 362 l 1185 419 l 1185 412 l 1188 412 q 1259 581 1236 491 l 1261 595 l 1242 845 l 1248 865 q 1188 1108 1210 1038 q 1134 1172 1150 1172 q 894 1263 1081 1210 q 856 1272 894 1268 l 793 1272 q 590 1232 665 1272 q 476 1146 503 1195 q 374 1048 426 1082 q 267 909 302 948 q 251 792 262 818 l 248 789 m 1039 1248 l 1039 1244 q 1107 1213 1039 1237 l 1115 1213 l 1115 1217 q 1088 1232 1115 1223 q 1059 1251 1081 1251 l 1050 1251 l 1039 1248 m 410 1120 l 410 1118 l 414 1112 q 488 1196 441 1112 l 488 1200 l 483 1206 l 464 1206 q 410 1120 410 1139 m 1169 1191 l 1169 1188 q 1245 1096 1180 1162 q 1261 1082 1245 1085 l 1264 1084 l 1264 1086 l 1198 1172 l 1173 1191 l 1169 1191 m 397 1099 l 404 1099 l 404 1103 l 403 1103 l 397 1099 m 203 941 l 208 941 q 243 982 228 941 l 248 982 q 252 975 252 982 l 255 972 l 258 972 q 296 1029 281 972 l 296 1032 l 289 1032 q 243 1004 254 1004 l 241 1004 q 296 1070 241 1017 l 300 1084 l 298 1086 q 203 941 203 1032 m 789 1042 l 789 1032 q 951 921 873 983 l 964 916 l 970 916 l 970 922 q 818 1042 913 1015 l 789 1042 m 680 994 l 680 987 l 688 987 q 723 1004 711 987 l 718 1008 l 708 1008 q 680 994 688 1008 m 1036 975 l 1036 960 l 1040 960 l 1046 966 l 1046 982 l 1043 982 l 1036 975 m 1252 975 l 1252 970 q 1267 937 1257 937 l 1271 944 l 1271 954 q 1257 975 1271 967 l 1252 975 m 566 732 q 612 560 566 598 q 723 517 677 517 l 746 517 q 837 555 837 533 q 906 656 892 595 q 925 792 925 738 l 925 807 q 868 928 925 854 q 802 951 837 949 l 770 951 q 640 884 718 951 q 606 852 640 869 q 566 745 585 852 l 566 732 m 1031 941 q 1040 864 1032 864 l 1043 864 l 1046 887 l 1046 918 q 1034 941 1046 936 l 1031 941 m 210 916 l 214 916 l 222 922 l 222 930 q 210 916 210 926 m 189 890 l 189 884 l 191 884 q 205 906 205 895 l 203 909 l 201 909 q 189 890 189 903 m 948 875 l 970 804 l 977 804 l 977 840 q 954 883 977 867 q 948 875 948 883 m 1280 873 l 1280 868 q 1287 789 1280 834 q 1274 761 1286 777 l 1274 754 q 1290 643 1282 754 l 1293 640 l 1295 640 q 1314 716 1308 640 l 1302 779 l 1306 792 l 1306 807 q 1286 878 1306 864 l 1280 873 m 156 773 l 156 760 l 160 754 q 179 836 171 754 l 176 837 l 172 837 q 156 773 159 837 m 157 732 l 157 726 l 163 726 l 163 732 l 157 732 m 986 671 l 993 671 q 1005 690 1005 677 l 1005 697 l 1001 731 q 986 671 991 731 m 486 678 l 486 647 q 499 617 490 617 l 505 617 l 505 624 l 492 697 q 486 678 486 696 m 153 621 l 153 618 q 172 567 160 613 l 175 564 l 179 564 l 179 567 q 170 631 179 589 l 163 631 l 153 621 m 132 579 l 132 555 q 144 529 136 529 l 146 529 q 153 551 153 529 q 138 583 153 572 l 137 583 l 132 579 m 972 552 l 972 543 l 974 543 l 979 548 l 979 557 l 977 557 l 972 552 m 616 524 q 692 491 616 496 l 720 491 l 726 495 q 616 524 726 500 m 768 503 l 768 500 l 773 495 q 811 514 795 495 l 811 519 l 799 519 q 768 503 768 511 m 784 450 l 784 446 l 793 446 q 887 505 833 446 l 882 510 q 784 450 785 454 m 960 460 l 967 453 q 977 469 977 457 l 977 481 l 974 481 q 960 460 964 481 m 195 472 l 195 467 l 214 412 l 224 412 l 224 429 q 201 476 224 454 l 195 472 m 1230 419 l 1230 415 l 1233 415 q 1268 472 1268 454 l 1264 476 q 1230 419 1245 476 m 642 427 l 642 419 l 670 415 l 720 415 q 764 427 764 418 q 730 434 764 434 q 642 427 673 434 m 186 427 l 186 425 q 195 408 186 411 l 205 408 l 205 412 l 191 427 l 186 427 m 1195 403 l 1195 399 l 1202 391 l 1210 391 l 1210 393 q 1202 408 1210 406 l 1200 408 l 1195 403 m 1122 343 l 1124 343 q 1173 384 1146 355 l 1173 389 l 1172 389 q 1122 343 1141 389 m 198 377 l 198 370 q 236 294 218 304 l 248 294 l 252 298 q 205 381 222 381 l 203 381 l 198 377 m 1031 361 l 1031 358 q 1055 349 1031 350 l 1062 351 l 1062 355 l 1058 361 l 1031 361 m 993 351 q 1055 301 1010 301 l 1096 298 l 1122 301 l 1122 305 q 1034 334 1114 315 q 993 351 1002 351 m 1160 336 l 1160 334 q 1166 330 1160 330 q 1179 339 1177 334 l 1179 342 l 1164 342 l 1160 336 m 977 142 l 979 140 l 982 140 q 1145 232 1077 160 q 1230 327 1214 304 l 1230 332 q 1223 336 1230 336 q 1065 197 1198 324 q 977 142 979 148 m 271 320 q 283 298 277 298 l 286 298 l 290 304 l 290 305 q 271 320 285 320 m 1238 273 l 1242 267 l 1248 267 l 1255 275 l 1249 279 l 1245 279 l 1238 273 m 1214 270 l 1214 267 l 1223 267 l 1223 275 l 1219 275 l 1214 270 m 1112 146 l 1124 146 q 1179 184 1158 146 l 1179 194 q 1112 152 1153 194 l 1112 146 m 374 165 l 374 163 q 438 114 397 129 l 445 115 l 445 121 l 384 165 l 374 165 m 853 76 l 856 76 q 1043 125 926 76 l 1043 130 q 853 80 982 130 l 853 76 m 688 1 q 654 11 688 11 l 618 11 q 564 0 564 9 q 632 -43 600 -43 q 774 -3 652 -43 q 1008 54 844 -3 q 1103 125 1062 77 l 1103 130 l 1097 130 q 1027 80 1082 130 q 926 47 1004 80 l 688 0 l 688 1 m 509 121 q 536 111 521 111 l 540 115 l 540 118 q 521 125 538 125 l 514 125 l 509 121 m 587 87 l 587 85 q 609 76 587 79 l 612 77 l 612 80 l 604 87 l 587 87 m 651 39 l 656 35 l 682 35 q 711 45 711 35 l 711 47 l 699 49 q 651 39 651 47 m 517 30 l 517 26 q 543 19 517 19 l 556 20 l 556 26 q 533 35 556 33 l 521 35 l 517 30 m 749 -27 l 746 -28 l 746 -31 l 754 -31 l 749 -27 z "},"A":{"ha":1082,"x_min":7,"x_max":1119,"o":"m 585 1253 q 694 1211 694 1237 l 785 943 l 846 727 q 967 271 891 514 l 1002 193 l 1012 148 l 1006 126 q 1055 109 1028 113 l 1093 109 l 1096 110 q 1119 100 1115 106 l 1107 77 l 1109 46 q 1090 5 1109 27 l 1084 5 q 1059 20 1069 20 l 1055 20 q 1034 11 1036 20 q 1067 1 1034 5 l 1067 -4 q 1046 -14 1067 -9 l 1020 -5 l 1002 -5 l 884 -18 q 787 30 848 -18 l 802 46 l 802 53 l 784 94 q 853 115 784 115 l 856 118 l 856 125 q 779 317 856 210 l 776 317 q 319 277 582 301 l 277 277 q 225 127 267 267 l 225 126 q 247 118 235 118 l 285 118 q 396 66 350 118 l 396 64 q 349 14 396 49 q 62 -7 349 -7 q 15 4 15 -4 l 22 28 l 22 31 q 7 64 22 38 q 41 92 7 76 l 45 99 l 45 126 q 62 142 45 142 l 69 136 l 62 114 l 64 111 l 66 111 q 88 156 88 144 l 88 164 q 83 175 88 175 q 114 266 102 214 l 212 537 l 247 625 q 281 682 248 643 l 281 686 l 275 705 q 294 730 294 718 l 290 734 q 313 774 290 753 l 311 787 l 397 1040 q 456 1176 433 1104 q 484 1214 461 1177 q 585 1253 560 1251 m 612 1223 l 612 1215 l 618 1208 l 632 1208 l 637 1214 l 637 1215 q 623 1223 635 1223 l 612 1223 m 571 1161 l 571 1157 l 575 1152 l 578 1152 l 578 1157 l 574 1161 l 571 1161 m 564 1067 l 566 1067 q 585 1084 585 1067 l 585 1090 l 578 1090 q 564 1067 564 1081 m 313 406 l 319 401 q 707 441 564 441 l 783 441 l 789 448 l 789 452 q 755 518 781 518 q 637 877 665 787 q 595 1000 610 967 q 571 1034 582 1027 q 571 993 575 1046 q 380 633 430 715 q 313 415 350 576 l 313 406 m 345 739 l 342 727 l 342 722 l 345 722 q 351 697 351 686 l 351 700 l 345 739 m 330 680 l 330 674 l 332 674 l 332 680 l 330 680 m 768 483 l 770 480 l 770 464 l 765 460 l 761 473 l 768 483 m 640 404 l 644 400 l 654 400 q 673 407 671 400 l 673 410 l 644 410 l 640 404 m 496 373 l 496 368 l 503 368 l 503 373 l 496 373 m 962 317 l 962 296 l 872 274 l 878 274 l 878 290 q 963 317 971 317 l 962 317 m 209 263 l 206 251 l 209 241 l 214 241 l 218 247 l 218 259 l 214 263 l 209 263 m 126 237 l 126 232 q 142 244 138 232 l 138 250 l 126 237 m 884 252 l 884 245 l 939 250 l 939 252 l 887 252 l 884 252 m 119 123 l 119 118 l 123 114 l 126 114 l 130 118 l 126 126 l 119 123 m 971 145 l 971 133 l 978 126 l 981 126 l 981 138 l 974 145 l 971 145 m 1029 53 l 1029 49 l 1031 49 q 1067 61 1067 49 l 1059 68 q 1029 53 1040 68 m 869 -5 l 869 -8 l 878 -8 q 891 -1 890 -8 l 887 4 q 869 -5 873 4 z "},"B":{"ha":1015,"x_min":-24,"x_max":1000,"o":"m 95 1191 l 117 1184 q 560 1191 224 1191 l 650 1162 q 766 1127 734 1152 q 905 916 905 1004 q 867 761 899 871 q 743 650 803 696 q 779 621 743 632 q 838 590 796 606 q 911 498 861 566 q 991 336 979 430 l 994 315 q 981 296 993 296 l 981 293 q 1000 244 981 282 l 1000 229 q 972 153 1000 209 q 933 121 972 129 q 883 87 909 121 l 883 83 q 899 75 883 77 l 899 73 q 886 65 897 65 q 880 75 886 75 q 871 61 876 75 q 792 30 837 61 l 792 27 l 798 27 q 852 46 807 27 l 852 45 q 735 -1 825 16 q 251 -56 618 -56 l 251 -53 l 250 -43 q 90 -77 159 -43 q 61 27 61 -77 q 174 73 61 45 q 256 90 256 83 l 256 94 q 231 251 245 94 q 218 336 227 313 q 235 391 218 359 q 213 526 231 526 q 193 833 202 526 l 194 1024 q 140 1042 151 1042 l 126 1042 q 109 1032 113 1042 l 109 1029 l 111 1015 q 85 951 111 1008 l 85 948 l 54 947 q 19 958 49 952 q -3 1067 1 958 q -24 1141 -9 1105 q 38 1181 4 1181 q 95 1191 38 1185 m 270 1128 l 273 1127 l 326 1127 q 396 1141 396 1127 l 396 1143 q 387 1150 396 1146 q 270 1128 275 1142 m 184 1134 l 235 1119 l 237 1119 q 256 1131 250 1119 q 213 1143 256 1141 q 184 1134 184 1141 m 439 1143 l 439 1138 l 449 1138 l 449 1143 l 439 1143 m 747 1093 l 747 1090 l 757 1081 l 766 1081 l 772 1086 l 772 1089 l 762 1099 l 753 1099 l 747 1093 m 304 1072 l 304 1067 l 308 1062 l 317 1062 q 420 1084 411 1070 l 418 1086 q 304 1072 304 1082 m 317 1020 q 342 616 332 616 l 349 612 l 351 612 l 522 652 q 633 681 633 665 q 772 827 772 787 l 772 837 q 750 960 750 941 q 684 1051 750 1010 q 591 1058 667 1055 q 317 1020 317 1046 m 738 1042 l 738 1036 q 772 951 772 1004 q 792 887 783 901 l 795 887 l 795 903 q 754 1042 779 1042 l 738 1042 m 852 1001 l 852 996 l 861 986 l 867 986 l 867 994 l 859 1001 l 852 1001 m 817 951 l 819 944 l 826 944 l 836 954 l 830 958 l 823 958 l 817 951 m 830 913 l 829 910 l 829 901 l 833 897 l 836 899 l 836 909 l 830 913 m 213 856 l 213 840 l 218 834 l 221 834 l 225 840 l 225 846 q 218 861 225 859 l 213 856 m 716 682 l 716 681 l 722 681 l 726 685 l 726 690 l 724 690 l 716 682 m 450 606 l 456 606 l 456 605 q 572 625 572 612 l 572 628 l 563 628 q 450 606 458 624 m 650 609 l 650 605 l 652 605 q 753 586 688 605 l 754 586 q 760 593 760 586 q 709 621 747 621 l 688 621 q 650 609 650 620 m 783 581 l 783 578 q 826 552 807 552 l 826 555 q 783 581 826 571 m 458 540 q 465 536 458 536 q 572 549 522 540 l 639 552 l 662 552 l 674 555 l 674 557 q 617 567 674 567 l 583 567 q 458 540 486 567 m 431 545 l 431 543 l 439 543 l 439 545 l 431 545 m 722 545 l 722 540 l 726 540 l 726 545 l 722 545 m 339 521 l 339 517 l 345 517 q 392 530 392 522 l 387 530 q 339 521 370 530 m 330 481 l 327 441 q 355 75 336 117 q 401 45 365 45 l 570 35 q 817 122 666 41 q 890 220 890 191 q 899 239 897 220 l 899 245 q 848 426 899 328 q 762 483 793 483 l 747 481 q 735 488 735 484 q 750 495 738 495 l 750 500 q 709 519 734 519 l 707 519 l 707 517 l 716 505 l 715 502 l 712 502 q 572 529 625 529 l 563 529 q 336 492 433 529 l 330 481 m 830 510 q 878 453 838 481 l 883 453 l 883 460 q 840 514 878 487 l 836 514 l 830 510 m 814 71 l 817 68 l 819 68 q 859 96 842 68 l 857 99 l 854 99 q 814 71 814 85 m 269 87 l 269 84 q 282 77 270 77 l 282 83 l 278 87 l 269 87 m 764 49 l 764 42 l 769 42 q 795 58 783 42 l 795 64 q 764 49 764 57 m 216 16 l 216 8 l 228 7 l 237 7 l 250 8 l 250 16 l 237 18 l 228 18 l 216 16 m 401 -5 l 411 -5 l 406 -1 l 401 -5 m 137 -12 q 152 -20 140 -20 l 161 -12 l 156 -8 l 142 -8 l 137 -12 z "},"C":{"ha":1090,"x_min":22,"x_max":1066,"o":"m 547 1244 l 563 1244 q 766 1180 656 1244 q 841 1124 826 1124 l 850 1124 q 867 1146 867 1133 l 867 1149 l 857 1177 q 869 1187 857 1183 q 892 1172 882 1183 l 895 1172 l 895 1177 q 867 1222 895 1199 q 905 1227 876 1227 q 975 1191 916 1227 q 987 1177 987 1191 l 987 1001 q 968 859 987 879 l 966 852 l 971 845 l 971 842 q 888 814 971 814 q 864 804 872 804 l 857 804 q 814 911 857 836 q 753 1058 784 1034 q 585 1118 723 1095 l 529 1123 l 456 1115 l 442 1130 q 323 1048 408 1127 l 319 1032 l 319 1029 l 326 1029 q 437 1108 408 1097 l 437 1105 q 271 981 396 1063 q 193 876 220 943 q 148 665 148 766 q 190 406 148 484 q 363 114 266 199 q 604 45 492 45 l 632 45 q 755 85 688 45 q 854 190 774 123 q 918 273 918 240 l 918 279 l 917 330 q 940 351 917 338 q 949 363 940 358 l 955 363 l 1000 355 l 1032 355 q 1047 330 1047 355 q 1066 199 1066 239 q 1042 42 1066 104 l 1042 35 l 1044 22 l 1035 7 l 1035 4 q 1066 -5 1035 0 l 1066 -9 l 943 -69 l 937 -69 q 892 22 911 -35 l 890 23 l 888 23 q 803 -22 856 11 q 623 -85 656 -85 l 509 -50 l 487 -47 l 475 -47 l 452 -54 q 311 -15 407 -54 q 180 88 232 5 q 47 382 47 281 q 31 487 31 452 q 54 506 34 506 l 57 488 l 57 477 l 66 477 l 73 484 l 73 491 q 31 526 73 519 q 22 731 26 526 q 73 899 22 776 q 83 952 79 899 q 98 997 90 955 q 237 1115 151 1059 q 347 1181 277 1152 q 547 1244 490 1244 m 481 1203 l 481 1199 l 487 1199 q 510 1208 510 1202 l 506 1213 l 503 1213 q 481 1203 486 1213 m 608 1213 l 605 1210 l 605 1206 l 633 1200 l 639 1200 l 643 1206 q 608 1213 643 1213 m 320 1143 l 320 1139 l 323 1139 q 395 1175 358 1150 l 395 1177 l 392 1180 l 389 1180 q 320 1143 345 1169 m 595 1161 q 677 1139 595 1154 l 686 1133 l 699 1133 l 705 1139 l 705 1142 q 665 1162 688 1142 q 613 1177 631 1177 q 595 1161 595 1177 m 814 1105 l 814 1101 q 842 1080 827 1080 l 845 1080 l 850 1085 l 850 1086 q 819 1105 834 1105 l 814 1105 m 301 1066 l 307 1066 q 319 1076 317 1070 l 319 1077 l 316 1077 q 301 1066 307 1074 m 281 1042 l 288 1042 l 294 1048 l 294 1054 q 281 1042 281 1054 m 838 1042 l 838 1038 l 845 1035 l 850 1042 l 845 1047 l 842 1047 l 838 1042 m 155 997 q 187 1013 176 997 l 187 1019 l 180 1019 q 155 997 159 1019 m 902 921 l 902 916 l 909 914 l 914 918 l 911 925 l 907 925 l 902 921 m 876 880 l 876 876 q 909 895 909 886 q 898 906 907 901 l 892 906 q 876 880 876 894 m 876 842 l 876 833 l 883 833 q 899 842 895 833 l 899 845 l 895 849 l 883 849 l 876 842 m 123 766 l 123 762 l 130 762 l 138 769 l 138 783 l 133 783 q 123 766 123 779 m 62 747 l 54 719 l 54 703 l 60 703 q 66 722 66 704 l 66 747 l 62 747 m 50 684 l 50 674 l 57 674 l 62 678 l 57 684 l 50 684 m 110 532 l 110 498 q 161 387 114 454 l 164 384 l 171 384 l 171 392 q 121 608 136 500 l 119 608 q 110 532 110 608 m 72 595 l 69 583 l 69 567 l 76 560 l 81 564 l 81 576 q 73 595 81 594 l 72 595 m 64 456 l 64 450 l 72 444 l 73 444 l 73 450 l 69 456 l 64 456 m 107 377 q 117 361 107 365 l 119 361 l 123 365 l 123 370 l 114 380 l 107 377 m 110 330 l 110 326 q 130 285 119 285 l 133 285 q 138 292 138 285 l 111 330 l 110 330 m 959 278 l 959 275 l 968 266 l 971 266 q 994 275 994 269 l 994 278 l 990 282 l 964 282 l 959 278 m 985 237 l 985 231 q 1000 218 990 218 q 1006 240 1006 227 l 1006 251 q 1000 256 1006 256 q 985 237 985 251 m 959 228 l 959 203 l 966 197 l 968 197 l 974 202 l 974 216 q 964 232 974 228 l 959 228 m 212 213 l 212 212 q 263 152 243 152 l 263 161 q 212 213 225 212 m 145 202 l 149 197 l 152 197 l 157 202 l 152 206 l 149 206 l 145 202 m 902 183 l 902 178 l 911 178 l 917 183 l 917 187 l 907 187 l 902 183 m 966 187 l 966 180 l 971 180 l 975 184 l 975 187 l 966 187 m 167 178 l 167 175 q 178 149 167 168 l 186 149 l 186 152 q 168 178 186 165 l 167 178 m 888 152 l 888 149 l 892 149 l 902 155 l 902 161 l 899 161 q 888 152 888 156 m 275 140 q 311 107 275 117 l 316 107 l 323 114 q 282 142 307 134 l 275 140 m 978 140 l 978 126 l 983 121 l 985 121 l 985 136 l 981 140 l 978 140 m 197 133 q 235 76 209 90 l 244 76 l 244 88 q 202 133 229 114 l 197 133 m 332 80 l 332 79 q 382 61 332 71 l 382 64 q 342 80 373 80 l 332 80 m 850 54 l 850 52 l 852 52 q 871 64 865 52 l 871 66 l 869 66 q 850 54 856 66 m 971 50 l 975 42 l 983 45 l 983 50 l 978 54 l 975 54 l 971 50 m 292 26 l 292 23 q 373 -7 293 18 q 406 -15 373 -15 l 414 -12 l 414 -9 q 345 23 411 -1 q 313 31 339 30 l 297 31 l 292 26 m 387 31 l 385 28 l 385 26 q 506 -7 433 -7 l 518 -7 l 522 -3 q 387 31 423 31 m 538 9 q 614 -15 562 -15 q 677 4 677 -9 l 677 7 q 629 16 677 16 l 601 16 q 538 9 538 16 m 755 4 l 755 3 l 762 3 l 766 7 l 765 9 l 760 9 l 755 4 m 949 -15 l 949 -22 l 959 -31 l 968 -31 q 1013 -15 1013 -22 l 1013 -12 l 978 -12 l 949 -15 m 589 -57 l 589 -64 l 617 -69 l 629 -69 q 724 -28 647 -69 l 724 -22 l 722 -22 q 643 -45 704 -22 l 589 -57 z "},"D":{"ha":1199,"x_min":33,"x_max":1172,"o":"m 334 1336 l 359 1336 l 369 1339 l 378 1336 l 396 1336 q 663 1283 507 1336 q 842 1179 818 1206 l 932 1115 q 954 1092 948 1103 l 954 1089 l 951 1089 q 880 1131 892 1131 l 878 1131 l 872 1127 l 872 1124 q 929 1065 872 1100 l 1005 970 q 1070 817 1034 910 q 1103 776 1088 776 l 1108 783 l 1108 788 q 1100 807 1108 798 l 1108 817 l 1115 817 q 1165 570 1165 646 l 1172 448 l 1169 437 l 1160 437 l 1157 438 l 1156 438 q 1115 334 1130 401 q 1024 184 1024 208 l 1027 184 q 1089 256 1054 184 l 1099 258 l 1100 256 q 1042 175 1063 175 q 815 11 930 77 q 675 -57 764 -38 q 540 -85 574 -66 l 524 -88 q 296 -65 475 -79 q 191 -53 258 -53 q 159 -60 171 -53 q 127 -34 152 -60 l 118 -34 q 106 -65 114 -34 l 102 -65 l 102 -66 q 87 -31 87 -64 l 92 104 l 90 106 l 90 109 q 103 118 92 118 l 178 111 l 184 111 q 210 115 201 111 l 293 95 l 302 102 l 302 111 l 296 137 q 302 248 302 167 q 283 353 302 353 l 282 361 q 312 991 289 690 q 324 1074 324 1051 l 324 1092 q 292 1130 324 1130 l 229 1130 q 225 1118 225 1130 l 217 1115 l 84 1120 l 37 1115 l 33 1122 l 33 1210 q 52 1291 33 1291 q 134 1312 76 1312 q 334 1336 221 1336 m 286 1314 l 286 1312 l 292 1308 l 334 1308 q 378 1317 378 1308 l 374 1321 l 286 1314 m 191 1302 q 264 1286 195 1291 l 279 1286 l 283 1291 q 248 1314 256 1314 q 191 1302 191 1310 m 479 1276 q 519 1260 511 1260 l 524 1260 l 529 1264 q 491 1282 513 1282 l 483 1282 l 479 1276 m 87 1255 l 87 1251 q 94 1236 88 1236 l 99 1236 q 121 1248 109 1248 l 146 1245 l 146 1251 l 113 1263 l 94 1263 l 87 1255 m 559 1257 l 559 1253 l 568 1253 l 568 1257 l 559 1257 m 637 1255 l 637 1253 q 783 1187 656 1240 l 804 1169 l 811 1169 q 673 1253 811 1198 l 647 1255 l 637 1255 m 331 1225 l 331 1222 q 426 1203 331 1203 q 454 1222 446 1222 q 491 1229 491 1222 l 491 1234 l 479 1236 l 473 1236 l 410 1229 q 381 1238 393 1238 l 374 1238 q 331 1225 331 1236 m 618 1219 l 618 1217 q 701 1179 625 1207 l 709 1179 l 716 1187 q 624 1219 716 1200 l 618 1219 m 127 1206 l 132 1200 l 137 1200 l 141 1206 l 137 1210 l 132 1210 l 127 1206 m 738 1181 q 716 1168 738 1168 l 716 1160 q 780 1127 720 1154 l 777 1120 q 799 1101 779 1112 l 811 1101 l 827 1108 l 846 1105 l 846 1108 q 804 1124 846 1112 l 804 1127 q 811 1131 804 1131 l 814 1134 l 814 1137 q 749 1181 779 1172 l 738 1181 m 103 1165 l 130 1158 l 132 1158 l 132 1160 q 115 1169 127 1169 l 109 1169 l 103 1165 m 151 1156 l 156 1150 l 168 1150 q 182 1158 180 1150 l 182 1162 l 170 1162 q 151 1156 152 1162 m 450 1096 l 457 987 q 445 873 457 873 q 434 906 438 906 q 426 892 426 903 l 426 845 q 435 817 426 817 l 448 821 l 450 818 q 444 716 445 793 l 453 444 q 410 95 453 209 l 410 83 q 567 52 410 68 q 804 125 665 52 q 929 267 917 225 q 982 479 954 311 l 982 495 q 960 719 982 677 l 880 909 q 749 1039 812 1015 q 500 1134 514 1134 q 450 1096 450 1112 m 349 1122 q 362 1112 350 1112 l 368 1112 l 377 1122 l 377 1130 l 353 1130 q 349 1122 349 1130 m 678 1120 l 678 1118 q 720 1093 700 1093 l 720 1103 q 678 1120 690 1120 m 844 1084 l 844 1080 q 868 1058 846 1073 l 875 1058 l 875 1061 q 844 1084 875 1073 m 975 1055 l 977 1055 q 1043 960 997 1051 q 1067 921 1067 935 l 1067 916 l 1065 916 q 1017 975 1046 916 q 975 1055 1017 993 m 859 1036 l 859 1027 q 910 979 871 1006 l 916 979 l 920 985 l 920 991 q 882 1046 886 1046 l 875 1046 q 859 1036 863 1046 m 339 978 l 343 956 l 343 937 l 350 930 l 353 930 q 359 975 359 930 q 353 1039 359 1013 l 350 1039 q 339 978 340 1039 m 1065 906 l 1067 906 q 1103 833 1103 865 l 1103 827 l 1099 827 q 1065 902 1084 827 l 1065 906 m 956 897 l 956 875 q 1020 735 978 784 l 1024 735 l 1024 738 q 966 897 997 848 l 956 897 m 330 883 l 324 861 l 324 854 l 330 854 l 334 875 l 334 883 l 330 883 m 450 859 l 454 859 l 454 852 l 450 846 l 445 846 l 445 854 l 450 859 m 315 581 l 315 557 q 320 479 315 507 l 327 479 l 343 655 q 331 827 343 715 l 330 827 q 315 581 316 827 m 1081 741 l 1081 735 l 1084 732 q 1074 707 1074 716 l 1093 650 l 1100 650 q 1112 688 1112 677 l 1112 700 q 1089 745 1101 745 l 1086 745 l 1081 741 m 1017 608 l 1015 595 l 1015 560 q 996 429 1015 495 l 996 425 l 998 422 l 1005 422 q 1034 475 1019 422 q 1043 498 1043 481 l 1043 536 q 1024 608 1040 608 l 1017 608 m 1165 406 l 1166 406 l 1169 391 q 1122 279 1169 374 l 1115 273 l 1112 273 q 1165 396 1119 302 l 1165 406 m 1010 311 l 1010 308 l 1013 308 q 1051 334 1027 308 l 1051 336 q 1043 355 1051 354 l 1039 355 q 1010 311 1010 326 m 416 308 l 415 285 l 415 282 l 416 270 l 419 270 l 425 275 l 425 308 l 416 308 m 928 165 l 935 165 q 1039 292 1032 250 l 1039 296 q 928 175 968 263 l 928 165 m 340 152 l 343 140 l 346 140 q 365 153 359 140 q 350 244 355 244 q 340 152 340 244 m 856 146 l 859 140 l 865 140 q 880 153 875 144 l 880 159 q 872 163 880 163 q 856 146 864 163 m 834 137 l 840 133 l 844 133 l 849 137 l 849 144 l 842 144 l 834 137 m 671 14 l 671 11 l 675 11 q 929 121 755 11 l 932 123 l 932 127 q 764 54 815 90 q 671 14 685 28 m 122 87 l 125 73 q 115 26 115 42 l 115 19 l 122 11 l 127 11 l 134 19 l 134 45 q 149 64 134 64 l 170 64 l 175 68 l 175 76 q 140 95 175 95 l 130 95 l 122 87 m 222 64 l 222 61 l 229 54 l 239 54 l 244 58 q 229 68 241 68 l 227 68 l 222 64 m 251 26 l 251 20 q 350 -19 251 9 l 403 -24 q 429 -15 429 -22 l 429 -9 q 251 26 274 26 m 151 19 l 156 14 l 163 20 l 163 23 l 156 23 l 151 19 m 473 0 q 543 -12 473 -11 l 567 -12 l 571 -8 l 571 -5 q 529 4 571 4 l 479 4 l 473 0 m 682 -5 l 707 -5 l 713 1 l 713 4 l 707 4 q 682 -5 682 1 m 453 -15 l 453 -19 l 460 -19 l 460 -15 l 453 -15 m 479 -53 l 479 -57 q 529 -69 513 -69 l 540 -69 q 568 -53 563 -69 q 543 -46 559 -46 l 479 -53 z "},"E":{"ha":963,"x_min":1,"x_max":951,"o":"m 410 1303 q 840 1284 840 1298 q 827 1278 840 1279 l 827 1274 l 830 1274 q 925 1302 850 1293 l 935 1303 q 941 1278 941 1290 q 951 1090 941 1173 l 916 1017 q 872 1005 894 1005 q 812 1040 812 1005 l 812 1046 q 831 1074 814 1055 q 812 1107 812 1082 q 784 1141 812 1141 q 780 1157 784 1157 l 730 1157 l 730 1154 q 751 1142 730 1150 l 751 1135 l 736 1133 l 505 1138 l 385 1138 q 262 1122 262 1138 q 283 768 271 1122 q 305 755 294 755 l 319 755 l 412 761 l 564 743 q 585 796 585 743 q 631 829 585 819 l 644 838 q 669 644 669 838 l 669 568 q 659 547 669 549 q 587 568 631 559 q 568 625 579 568 q 422 644 568 644 q 289 632 289 644 l 286 604 l 298 411 q 281 186 293 304 l 289 183 q 498 202 416 191 l 502 202 q 770 182 606 202 l 774 182 q 792 201 787 182 l 802 201 l 821 183 l 822 183 l 825 193 q 811 227 825 227 l 796 221 q 768 262 776 236 q 837 290 768 282 q 884 267 844 290 q 906 229 906 267 q 916 12 907 87 l 910 -7 l 901 -7 q 802 11 884 3 q 134 30 802 16 q 91 65 91 30 q 84 132 84 71 l 94 172 l 91 191 l 99 201 l 103 201 q 132 183 121 183 l 137 183 q 176 212 176 191 l 165 637 q 146 685 165 651 q 160 1046 152 685 q 167 1084 167 1057 l 167 1090 q 106 1141 167 1141 l 58 1154 l 34 1152 q 4 1236 4 1152 l 1 1237 q 42 1297 5 1297 l 43 1297 l 410 1303 m 46 1275 l 46 1274 l 65 1245 q 87 1264 79 1264 l 100 1261 l 106 1265 q 53 1275 85 1275 l 46 1275 m 138 1256 q 146 1252 138 1252 l 163 1256 l 163 1264 l 153 1264 q 138 1256 138 1261 m 317 1261 l 317 1259 l 321 1259 l 321 1261 l 317 1261 m 172 1246 l 172 1242 q 194 1233 175 1233 l 217 1233 l 217 1240 q 182 1255 193 1255 l 179 1255 l 172 1246 m 262 1237 l 262 1236 q 279 1226 266 1226 l 289 1226 l 289 1227 q 271 1237 285 1237 l 262 1237 m 694 1230 l 694 1226 l 802 1214 q 812 1223 811 1218 l 812 1230 l 764 1233 l 694 1230 m 347 1227 q 381 1221 347 1221 q 347 1227 381 1227 m 258 1176 q 277 1164 263 1164 l 279 1164 q 353 1176 353 1166 l 353 1179 q 305 1188 353 1188 l 300 1188 q 258 1179 258 1188 l 258 1176 m 410 1176 q 423 1169 412 1169 l 426 1169 q 441 1176 438 1169 l 435 1180 l 414 1180 l 410 1176 m 109 1173 l 109 1169 l 153 1169 l 153 1173 l 109 1173 m 840 1100 l 844 1095 q 853 1116 849 1095 l 850 1128 l 846 1128 q 840 1103 840 1128 l 840 1100 m 882 1055 l 887 1050 l 887 1047 q 898 1069 898 1047 l 898 1072 l 891 1072 q 879 1057 883 1066 l 882 1055 m 224 1057 l 224 1040 q 239 1028 229 1028 l 243 1036 l 243 1038 q 229 1065 243 1059 l 224 1057 m 229 962 l 229 948 l 236 941 l 241 941 l 245 945 l 239 970 l 229 962 m 293 720 l 293 718 l 308 718 l 308 723 l 302 727 l 300 727 l 293 720 m 426 708 l 426 704 l 431 699 l 435 699 l 435 704 l 431 708 l 426 708 m 450 704 l 450 699 l 457 699 l 457 704 l 450 704 m 473 704 l 473 701 l 480 694 l 488 694 l 488 699 l 483 704 l 473 704 m 203 578 l 201 566 l 201 549 l 205 549 l 210 553 l 210 578 l 203 578 m 248 433 l 248 426 l 252 426 l 252 433 l 248 433 m 245 300 l 243 288 l 243 264 l 245 262 l 245 259 q 258 281 258 259 q 251 300 258 298 l 245 300 m 865 236 q 875 243 875 239 l 875 248 l 869 252 q 860 240 860 250 l 865 236 m 239 151 l 239 145 l 245 145 l 245 151 l 239 151 m 248 129 l 248 126 q 267 119 250 119 l 277 119 l 289 122 l 289 126 q 274 134 286 134 l 252 134 l 248 129 m 376 126 l 376 122 l 381 117 l 388 117 l 400 119 l 400 122 l 395 126 l 376 126 m 792 117 l 792 115 q 806 107 793 107 q 825 117 825 111 l 825 119 l 821 125 l 799 125 l 792 117 m 429 119 l 429 115 l 473 110 l 583 110 q 473 119 583 118 l 429 119 m 172 110 l 172 106 q 189 96 176 96 l 208 96 l 214 103 l 214 106 q 201 113 213 113 l 195 113 l 172 110 m 656 110 l 656 107 q 746 96 656 99 l 746 100 q 675 110 715 110 l 656 110 m 127 77 l 127 62 l 132 58 l 134 60 l 134 77 l 127 77 m 844 75 l 844 68 l 865 62 l 869 62 l 875 68 l 875 72 l 863 75 l 844 75 m 711 50 l 727 50 q 742 58 739 50 l 742 60 l 739 60 l 718 62 q 692 56 692 61 l 711 50 m 536 60 l 536 56 l 540 50 l 568 50 l 568 56 l 547 60 l 536 60 m 391 49 l 391 43 l 400 43 l 404 49 l 404 50 l 400 56 l 397 56 l 391 49 z "},"F":{"ha":848,"x_min":30,"x_max":993,"o":"m 260 1213 q 972 1196 972 1210 q 993 1044 993 1090 q 974 1009 979 991 q 952 983 963 983 q 831 1017 831 983 l 831 1021 l 849 1023 q 822 1096 841 1096 l 796 1099 l 746 1099 l 353 1080 q 334 1042 334 1080 l 334 1032 l 340 712 q 422 700 340 700 l 543 696 q 597 754 543 754 l 642 753 l 647 745 l 647 716 q 661 662 647 700 q 609 507 631 507 l 528 538 l 518 541 l 518 545 l 533 567 l 533 576 l 353 589 q 334 567 334 581 l 334 503 l 331 465 q 355 127 331 384 q 486 109 368 119 l 488 107 q 498 98 498 106 q 452 7 491 7 l 448 7 l 448 4 l 407 7 l 369 7 q 53 -12 236 -5 l 52 -15 l 49 -15 l 33 -9 l 34 16 l 30 35 q 39 80 37 47 q 186 104 39 90 q 222 142 222 113 l 239 427 l 252 422 l 258 422 l 260 434 l 260 481 l 236 503 l 227 572 l 236 602 q 227 861 227 637 l 227 962 q 233 1063 227 1017 q 205 1085 233 1081 l 179 1085 q 43 1153 43 1085 l 39 1177 q 53 1203 45 1203 l 58 1203 q 68 1181 62 1203 l 71 1181 l 75 1187 l 75 1190 l 72 1191 q 175 1210 72 1210 l 260 1213 m 547 1172 l 547 1168 l 552 1168 q 566 1175 564 1168 l 566 1180 l 562 1180 q 547 1172 547 1177 m 103 1168 q 148 1149 114 1149 l 156 1149 l 156 1146 q 137 1124 137 1137 l 137 1118 l 138 1118 q 222 1133 222 1123 l 222 1134 l 203 1146 l 203 1152 q 227 1162 203 1156 l 227 1168 q 151 1177 193 1177 q 103 1168 103 1175 m 951 1134 q 935 1082 935 1095 l 935 1076 q 948 1051 935 1061 l 951 1051 l 955 1057 l 955 1077 l 954 1080 q 958 1105 958 1089 l 958 1127 l 951 1134 m 378 1108 l 378 1105 l 385 1105 l 385 1108 l 378 1108 m 939 982 l 939 981 q 955 1062 949 1063 l 960 1062 l 960 1065 q 944 982 948 981 l 939 982 m 262 930 l 262 924 l 267 924 l 267 930 l 262 930 m 609 728 l 609 726 l 616 719 l 623 719 l 623 724 l 618 728 l 609 728 m 338 621 l 343 617 l 384 617 q 346 627 384 625 l 343 627 l 338 621 m 239 279 l 239 278 l 243 256 l 248 256 l 252 260 l 252 275 l 243 285 l 239 279 m 270 244 q 262 216 262 232 l 264 209 l 267 209 q 274 228 274 210 l 274 240 l 270 244 m 243 241 l 243 235 l 248 235 l 248 241 l 243 241 z "},"G":{"ha":1012,"x_min":9,"x_max":1005,"o":"m 850 1202 q 895 1165 895 1202 q 872 911 886 911 q 806 879 872 886 l 798 879 q 750 914 750 879 l 755 936 q 670 1021 755 948 q 484 1066 602 1066 q 278 945 382 1066 q 104 633 104 776 l 104 632 l 126 534 q 193 320 126 481 q 255 237 193 307 q 293 174 259 205 q 587 123 349 123 q 753 209 661 123 q 781 396 781 225 l 781 420 q 743 439 781 439 q 616 468 616 446 l 613 481 q 658 557 625 557 l 806 556 l 983 572 q 1005 556 1005 568 l 1000 494 l 1000 477 q 952 427 987 427 l 898 430 l 898 425 q 911 197 911 425 q 929 -79 911 -61 l 926 -79 l 917 -80 l 834 -80 q 800 -88 819 -80 q 768 -31 768 -88 q 750 12 768 12 q 680 -35 742 12 q 582 -57 623 -57 l 570 -57 q 312 3 449 -57 q 231 60 282 35 q 141 155 175 100 q 72 281 72 258 q 12 465 34 342 l 15 642 l 18 642 l 34 624 q 41 646 39 624 q 31 670 38 670 q 12 661 23 670 l 9 662 q 47 831 14 746 q 174 1013 100 898 q 195 1047 184 1023 q 359 1152 218 1076 q 483 1177 385 1164 l 484 1177 q 750 1123 557 1177 l 753 1123 q 762 1146 762 1133 l 762 1154 l 760 1168 q 850 1202 776 1202 m 183 873 l 183 871 l 189 871 q 259 968 259 958 l 255 968 q 183 873 189 909 m 164 947 q 179 959 174 951 l 179 964 l 176 964 q 161 947 161 958 l 164 947 m 104 841 l 104 836 l 110 836 l 117 842 l 117 848 l 113 848 l 104 841 m 967 538 l 967 534 l 971 529 l 978 537 l 978 538 l 974 544 l 971 544 l 967 538 m 765 167 l 768 159 l 774 159 l 781 167 l 777 171 l 772 171 l 765 167 m 616 100 q 623 95 616 95 q 648 111 636 95 l 648 114 l 644 114 q 616 100 624 114 m 307 104 l 307 102 q 354 83 307 94 l 376 83 l 380 88 q 316 104 336 104 l 307 104 m 791 5 l 791 0 l 793 -3 l 793 -4 q 803 3 803 -1 l 803 7 l 798 12 l 791 5 m 639 -23 l 639 -31 l 642 -31 q 686 -12 661 -31 l 684 -4 l 674 -4 q 639 -23 652 -4 z "},"H":{"ha":1114,"x_min":4,"x_max":1101,"o":"m 940 1257 q 1000 1198 1000 1246 l 1004 1147 q 849 1118 1004 1137 l 845 1109 l 845 1103 q 883 916 845 1081 l 883 884 l 878 802 q 918 178 918 525 l 924 178 q 1085 141 1085 178 q 1101 20 1101 46 q 978 -15 1101 -15 l 943 -15 l 933 -18 l 924 -15 l 902 -15 q 807 1 807 -15 q 791 134 791 92 l 791 163 l 798 203 l 798 208 q 785 270 785 252 l 785 283 q 776 538 776 450 l 773 538 l 384 548 l 374 540 l 377 463 l 374 251 l 374 187 q 387 90 374 138 l 374 54 q 387 20 387 33 q 313 -34 387 -34 q 152 -12 187 -34 q 83 46 83 9 l 98 127 q 123 132 106 132 l 174 132 q 218 144 218 132 l 221 163 l 221 254 q 206 723 221 551 l 209 804 q 190 1084 202 804 l 175 1089 l 174 1089 q 22 1105 22 1089 l 4 1150 q 155 1194 4 1194 q 316 1200 240 1200 l 339 1195 l 339 1194 l 330 1169 l 335 1156 q 323 1131 323 1141 l 323 1119 l 354 732 q 370 700 354 700 l 764 688 l 766 694 l 760 792 q 772 821 760 802 l 762 830 l 762 834 l 766 842 l 766 846 l 760 899 l 760 960 q 738 1077 745 1065 q 697 1191 719 1077 q 707 1236 704 1236 q 940 1257 852 1242 m 741 1207 l 741 1204 q 754 1198 743 1198 l 762 1198 q 781 1204 779 1198 q 766 1213 779 1213 l 745 1213 l 741 1207 m 760 1169 l 760 1166 l 764 1162 l 772 1166 l 769 1175 l 764 1175 l 760 1169 m 47 1156 l 45 1153 l 45 1150 l 52 1150 l 47 1156 m 285 1053 l 285 1048 l 289 1043 l 294 1043 l 294 1048 l 289 1053 l 285 1053 m 232 1039 l 231 1017 l 232 1008 l 240 1008 l 241 1024 l 241 1027 l 240 1039 l 232 1039 m 845 887 l 845 882 l 849 878 l 854 882 l 854 887 l 849 891 l 845 887 m 848 846 l 849 840 l 854 840 l 859 844 l 859 861 l 854 865 q 848 846 848 864 m 240 690 l 240 682 q 250 666 240 670 l 251 666 l 256 671 q 244 690 256 684 l 240 690 m 365 663 l 365 659 l 370 654 l 374 654 l 374 656 l 368 663 l 365 663 m 576 663 l 576 659 l 627 654 l 639 654 l 643 659 l 639 663 l 576 663 m 244 647 l 244 644 l 250 644 l 254 650 l 254 652 l 250 652 l 244 647 m 659 597 l 662 595 l 688 595 l 696 602 l 693 605 l 678 605 q 659 597 661 605 m 785 476 l 785 472 l 792 464 l 795 464 l 795 476 l 791 481 l 785 476 m 785 450 l 785 429 l 791 429 l 795 434 l 795 450 l 791 454 l 785 450 m 838 227 l 838 216 l 842 210 l 848 216 l 848 220 l 840 227 l 838 227 m 332 222 l 332 220 q 339 206 334 206 l 345 206 l 339 222 l 332 222 m 197 80 l 197 75 l 203 75 l 203 80 l 197 80 m 342 39 l 342 37 l 349 30 l 351 30 l 361 39 l 361 45 l 355 49 l 351 49 l 342 39 m 1054 23 l 1054 18 l 1066 18 l 1066 23 l 1061 27 l 1058 27 l 1054 23 m 997 16 l 1001 11 l 1010 11 q 1025 18 1023 11 l 1020 23 l 1004 23 l 997 16 z "},"I":{"ha":601,"x_min":-27,"x_max":581,"o":"m 156 1225 l 184 1222 q 438 1253 308 1222 l 448 1251 l 448 1248 l 441 1234 q 484 1222 457 1222 q 519 1108 519 1183 l 519 1104 q 427 1058 519 1067 q 351 1013 351 1058 l 351 760 q 332 719 351 719 l 330 716 l 330 697 l 346 678 l 334 652 l 334 650 l 349 560 q 362 247 349 471 q 343 161 355 174 q 365 149 343 149 l 372 149 q 536 171 446 171 q 581 118 581 171 l 581 102 q 560 7 581 7 l 513 7 l 486 0 l 467 12 l 64 0 q 38 85 38 0 l 38 123 q 45 137 39 137 l 47 137 q 61 114 52 137 l 66 114 l 66 136 l 64 152 l 73 156 q 187 145 106 156 l 194 145 q 210 159 208 145 l 203 232 l 213 346 q 168 1038 187 1038 l 1 1047 q -27 1096 -27 1077 l -27 1127 l -24 1165 q -27 1227 -24 1184 l -19 1219 l -9 1219 q 156 1225 35 1219 m 76 1225 l 73 1222 l 73 1219 l 80 1213 l 83 1213 l 83 1222 l 76 1225 m 172 1165 l 172 1162 l 178 1158 l 190 1158 l 194 1162 l 194 1165 l 172 1165 m 20 1070 l 20 1066 q 39 1058 22 1058 q 54 1066 52 1058 l 54 1067 q 33 1077 50 1077 l 28 1077 l 20 1070 m 263 1004 l 263 987 l 266 987 q 277 1016 273 987 l 277 1025 l 273 1025 q 263 1004 263 1021 m 235 994 l 235 991 l 241 1000 l 239 1000 l 235 994 m 351 707 l 355 703 l 351 697 l 346 703 l 351 707 m 353 90 l 353 88 l 361 85 l 370 92 l 365 98 l 361 98 l 353 90 m 519 57 l 519 54 l 524 54 q 538 69 533 60 l 538 71 l 533 76 l 532 76 q 519 57 519 69 z "},"J":{"ha":859,"x_min":16,"x_max":997,"o":"m 761 1238 l 785 1238 q 985 1217 970 1238 q 997 1153 997 1184 l 997 1143 q 975 1065 997 1065 l 941 1062 l 940 1062 l 949 1090 l 949 1093 q 865 1081 925 1081 q 840 1077 854 1081 l 817 1077 q 780 939 789 1077 q 751 594 751 822 l 726 340 q 709 258 726 258 l 704 245 l 713 227 q 659 99 709 190 q 437 -37 547 -37 l 434 -37 q 273 11 382 -37 q 159 165 193 57 q 118 336 141 312 l 109 336 q 33 321 77 336 q 16 331 16 324 q 37 448 28 366 l 326 476 l 334 448 q 317 334 331 334 l 313 334 l 313 331 q 285 362 290 331 l 282 362 q 248 328 248 351 q 353 100 248 141 l 370 99 l 450 118 l 460 103 q 484 118 484 109 q 467 127 467 123 l 467 129 q 526 189 511 152 q 586 274 586 241 q 618 381 608 316 q 637 528 637 408 l 637 692 q 612 1046 637 962 l 609 1093 l 526 1067 l 450 1065 l 434 1128 l 425 1150 q 444 1185 444 1177 l 444 1217 q 469 1223 444 1223 l 472 1223 q 761 1238 581 1223 m 941 1210 l 941 1204 l 949 1202 l 954 1210 l 949 1214 l 947 1214 l 941 1210 m 465 1181 l 465 1172 q 476 1153 465 1158 l 486 1153 l 494 1160 l 494 1164 q 481 1204 486 1172 l 475 1204 q 465 1181 468 1204 m 675 1192 l 675 1191 q 780 1179 675 1183 q 826 1150 800 1176 l 846 1147 q 864 1160 860 1147 l 842 1166 l 842 1169 q 864 1192 864 1183 l 861 1192 q 690 1200 823 1198 q 675 1192 675 1198 m 517 1173 l 517 1164 q 571 1153 517 1153 q 612 1162 612 1154 q 533 1173 612 1172 l 517 1173 m 700 1169 l 700 1164 l 704 1160 l 738 1160 l 742 1164 q 716 1172 742 1169 l 700 1169 m 940 1141 q 949 1103 941 1103 l 954 1103 q 960 1119 959 1103 q 949 1154 959 1154 l 947 1154 q 940 1141 940 1153 m 732 1119 l 732 1112 l 738 1107 q 773 1119 773 1111 l 773 1124 l 761 1126 l 747 1126 q 732 1119 732 1124 m 792 1122 l 799 1115 l 804 1115 l 811 1122 l 807 1126 l 798 1126 l 792 1122 m 646 1119 l 646 1115 l 652 1115 l 652 1119 l 646 1119 m 456 1105 l 456 1103 q 472 1084 463 1089 l 475 1084 q 514 1107 494 1085 l 514 1109 l 510 1115 l 491 1115 q 456 1105 456 1115 m 543 1082 l 543 1080 l 551 1080 q 574 1089 574 1082 l 574 1092 l 560 1092 q 543 1082 547 1092 m 738 1048 l 738 1046 q 745 1031 739 1031 l 750 1036 l 750 1046 l 742 1053 l 738 1048 m 643 1046 l 643 1043 q 659 1021 643 1024 l 659 1031 q 647 1050 659 1044 l 643 1046 m 684 1005 l 684 993 l 688 989 l 693 993 l 693 1001 l 688 1005 l 684 1005 m 684 799 l 684 777 l 688 773 q 703 834 703 815 l 703 850 l 697 856 q 684 799 685 850 m 684 736 l 681 726 l 681 720 l 684 708 l 688 708 l 693 713 l 693 732 l 688 736 l 684 736 m 688 663 l 688 656 l 693 656 l 693 663 l 688 663 m 286 473 q 300 467 288 467 l 302 467 l 307 471 l 307 473 l 302 477 l 290 477 l 286 473 m 96 449 l 96 448 q 132 439 96 441 q 186 452 186 442 l 186 457 l 176 457 l 126 454 l 119 457 l 119 458 l 125 467 l 125 471 q 96 449 109 471 m 678 376 l 678 372 l 681 355 q 703 438 703 391 l 703 450 l 694 457 l 690 457 q 678 376 678 457 m 90 452 l 90 445 q 106 422 90 430 l 109 422 l 114 426 l 114 433 q 92 452 114 452 l 90 452 m 279 429 l 282 422 l 286 422 l 292 426 l 292 442 l 289 442 q 279 429 279 438 m 182 426 l 182 422 l 190 422 l 190 426 l 182 426 m 58 419 l 58 410 l 68 410 l 68 419 l 58 419 m 190 388 q 216 372 201 372 l 216 376 q 197 393 216 393 l 194 393 l 190 388 m 210 359 l 210 350 l 216 350 l 216 359 l 210 359 m 153 328 l 161 324 l 178 324 l 178 327 q 171 340 178 339 l 168 340 q 153 328 153 340 m 201 331 l 201 327 q 216 312 206 317 l 222 319 l 222 328 l 213 338 l 209 338 l 201 331 m 159 296 q 182 229 159 275 l 182 227 l 180 203 q 187 194 183 194 l 191 194 q 201 210 201 197 l 201 213 q 172 315 191 315 l 165 315 q 159 296 159 313 m 656 277 q 628 229 656 251 q 605 176 605 190 l 608 176 q 662 248 633 176 l 665 270 l 665 271 l 659 277 l 656 277 m 228 138 l 228 132 q 332 53 228 111 l 358 46 l 362 46 l 362 49 q 292 96 353 66 l 258 138 q 239 148 248 148 l 237 148 l 228 138 m 408 84 l 408 80 l 419 77 q 456 94 444 77 l 456 96 l 441 96 q 408 84 408 95 m 486 33 l 494 20 q 408 5 488 5 l 400 5 l 355 11 l 351 11 l 351 8 q 431 -15 384 -15 q 609 68 525 -15 l 609 81 l 605 81 l 541 52 q 486 33 486 38 m 237 72 l 237 68 l 247 58 l 248 58 l 254 62 l 254 65 l 247 72 l 237 72 m 381 39 l 380 37 l 380 34 l 387 27 l 389 27 l 393 33 l 393 37 l 381 39 z "},"K":{"ha":1128,"x_min":15,"x_max":1103,"o":"m 205 1272 l 296 1272 q 416 1246 397 1272 l 429 1244 l 429 1240 q 400 1126 400 1215 q 378 845 400 1024 l 381 845 l 518 975 q 680 1139 680 1114 q 735 1230 735 1219 l 732 1230 l 699 1234 l 699 1237 q 789 1251 699 1251 l 977 1251 q 1017 1225 1017 1251 l 1055 1215 l 1058 1213 l 1058 1211 q 1020 1196 1058 1204 l 1020 1187 q 1027 1165 1027 1177 l 1027 1161 q 1008 1101 1027 1101 l 982 1108 l 954 1108 q 840 1051 894 1108 q 623 886 667 910 q 545 807 545 815 l 545 804 q 623 661 553 746 q 764 380 699 521 q 803 304 788 346 q 879 190 864 190 l 901 186 l 901 180 q 891 164 891 170 l 906 159 l 974 159 q 1088 148 1088 159 l 1084 140 l 1084 136 q 1097 126 1084 130 l 1103 119 l 1084 81 l 1084 76 l 1096 15 q 1074 -12 1096 0 q 818 5 1074 -5 q 694 28 694 15 l 694 34 q 723 62 723 49 l 718 62 l 713 69 q 720 140 720 104 q 678 278 720 186 l 647 377 q 521 629 635 388 q 454 715 465 707 l 448 715 q 355 613 355 618 q 334 468 355 574 l 338 446 l 319 392 l 319 389 q 334 363 319 381 q 317 225 328 225 q 300 180 300 220 q 505 123 319 148 l 507 121 q 530 98 515 98 l 536 91 q 499 3 524 76 q 479 -4 491 -4 q 281 7 479 7 l 262 7 q 195 -3 221 7 q 148 5 175 5 l 62 5 q 20 -4 49 5 l 15 9 l 15 16 q 43 102 15 50 q 119 117 43 113 q 129 121 119 121 l 129 126 q 56 140 129 129 l 56 142 q 138 155 56 151 q 184 313 174 155 q 205 496 184 374 q 222 1061 217 525 l 220 1088 l 222 1107 q 81 1133 205 1133 q 20 1161 20 1150 q 49 1177 49 1165 l 39 1199 q 91 1268 53 1268 q 205 1272 123 1272 m 65 1244 l 62 1241 l 62 1234 q 80 1225 66 1225 l 170 1225 l 175 1230 q 65 1244 153 1237 m 381 1213 l 384 1213 q 397 1234 397 1223 l 395 1237 l 393 1237 q 381 1213 387 1237 m 227 1227 l 227 1222 l 255 1221 l 260 1225 l 258 1227 l 227 1227 m 77 1184 l 77 1177 q 213 1171 98 1171 l 239 1171 l 255 1173 l 255 1177 q 141 1187 222 1187 l 106 1187 l 77 1184 m 770 1158 l 773 1158 q 792 1180 784 1158 l 789 1180 q 770 1158 777 1180 m 972 1165 l 972 1164 l 986 1164 l 986 1168 l 982 1173 l 979 1173 l 972 1165 m 293 1108 l 290 1101 q 300 1085 294 1085 l 308 1085 l 309 1097 l 309 1099 q 293 1108 305 1108 m 699 1080 l 699 1078 l 701 1078 l 718 1082 l 718 1089 l 708 1089 l 699 1080 m 583 985 l 585 978 l 590 978 l 689 1059 l 692 1061 l 692 1069 l 685 1069 q 585 990 644 1062 l 583 987 l 583 985 m 708 1013 l 708 1006 l 713 1006 q 739 1031 735 1019 l 739 1035 l 736 1035 q 708 1013 722 1035 m 448 867 l 448 861 l 450 861 q 486 886 465 861 l 479 892 q 448 867 464 892 m 498 766 l 498 757 q 518 719 503 719 l 518 722 l 521 731 q 505 766 521 750 l 498 766 m 369 696 l 369 686 l 374 686 q 422 734 401 704 l 422 741 l 419 741 q 369 696 400 741 m 214 176 l 214 171 l 222 164 l 224 164 l 224 168 l 217 176 l 214 176 m 327 178 l 334 178 l 334 174 l 327 174 l 327 178 m 286 119 l 286 117 l 290 117 l 290 119 l 286 119 m 460 95 q 479 85 479 90 q 442 73 472 73 l 423 73 q 419 66 419 73 l 423 54 l 422 54 q 167 85 422 61 l 125 85 l 125 83 q 366 47 144 64 l 419 47 q 488 76 476 47 q 499 92 488 81 q 480 100 498 100 l 464 100 l 460 95 m 37 64 l 37 57 l 42 57 q 61 69 54 57 l 61 81 l 53 81 q 37 64 42 76 m 1029 60 l 1029 53 l 1040 50 l 1048 50 l 1053 54 l 1053 57 l 1048 62 l 1040 62 l 1029 60 z "},"L":{"ha":972,"x_min":7,"x_max":952,"o":"m 99 1297 q 358 1263 250 1297 l 391 1261 l 415 1263 l 419 1253 l 418 1145 q 403 1133 414 1133 l 380 1154 l 330 1166 l 313 1166 l 301 1164 l 301 1154 q 336 1142 326 1142 l 336 1139 q 292 1128 336 1133 l 282 761 l 282 723 l 278 217 l 278 186 q 385 170 278 170 l 746 170 l 807 165 q 826 270 815 165 q 842 296 831 296 q 952 274 952 293 q 930 258 945 258 l 930 252 q 949 220 949 235 q 936 106 949 182 l 936 77 l 937 68 q 928 30 928 47 q 911 5 924 30 q 831 -8 872 -8 l 823 -8 l 661 5 l 652 5 l 282 -8 l 22 15 q 7 39 7 27 q 54 151 22 151 q 129 165 62 159 q 130 712 152 229 q 149 1104 140 811 l 149 1123 q 109 1152 149 1152 l 92 1154 l 92 1161 q 146 1177 125 1177 l 146 1185 l 102 1190 l 76 1190 l 76 1183 q 83 1177 83 1183 q 66 1168 79 1168 l 58 1168 q 39 1211 39 1179 l 39 1218 q 64 1271 39 1260 q 77 1290 69 1271 l 99 1297 m 87 1227 l 87 1225 l 96 1225 l 102 1230 l 102 1233 l 92 1233 l 87 1227 m 336 1225 l 336 1221 l 349 1218 l 349 1215 l 343 1211 l 305 1214 l 304 1211 l 304 1202 l 308 1196 l 346 1196 q 377 1218 377 1196 q 349 1230 363 1230 l 342 1230 l 336 1225 m 203 1218 q 244 1204 213 1204 l 258 1204 l 267 1214 q 235 1225 251 1225 l 218 1225 q 203 1218 203 1223 m 237 1180 l 237 1176 l 241 1171 l 254 1171 l 266 1173 l 266 1180 l 254 1183 l 248 1183 l 237 1180 m 239 1142 l 237 1139 l 237 1114 q 248 1088 240 1088 l 258 1097 l 258 1111 q 239 1142 254 1142 m 221 769 q 219 667 205 694 q 233 741 233 639 q 225 769 232 769 l 221 769 m 914 224 q 898 179 898 189 l 883 100 l 883 94 l 890 87 l 895 87 q 924 194 918 98 q 917 224 921 224 l 914 224 m 209 217 l 209 210 q 199 170 199 184 q 214 137 199 142 l 221 137 q 228 191 228 137 l 228 201 q 218 217 228 213 l 209 217 m 718 153 l 718 148 q 743 138 718 142 q 776 122 743 125 l 812 127 l 812 134 q 736 153 780 134 l 718 153 m 636 134 l 636 132 q 655 125 637 125 l 696 125 l 696 132 l 684 134 l 636 134 m 43 106 q 60 119 60 106 l 57 122 l 54 122 q 43 106 43 119 m 221 109 l 221 100 q 560 80 270 94 l 563 81 l 563 84 l 231 109 l 221 109 m 35 90 l 35 84 l 41 80 l 47 80 l 53 84 l 53 87 l 47 91 l 35 90 m 665 71 l 665 68 l 681 65 l 709 65 l 709 68 q 696 75 708 75 l 670 75 l 665 71 m 750 52 l 750 49 l 755 49 q 793 65 777 49 q 779 72 791 72 q 750 52 770 72 m 776 42 l 776 39 q 814 23 791 23 l 819 23 q 836 33 827 23 q 857 23 848 23 l 873 23 q 895 33 891 23 l 895 34 q 836 43 895 43 l 804 43 l 776 42 m 250 24 l 250 20 q 338 4 250 7 q 434 15 396 4 l 434 20 q 292 27 354 27 l 290 27 l 250 24 m 206 20 l 206 15 l 212 15 l 212 20 l 206 20 m 494 18 l 494 11 l 506 11 l 528 15 l 528 20 l 506 20 l 494 18 z "},"M":{"ha":1267,"x_min":22,"x_max":1252,"o":"m 228 1185 q 332 1147 332 1166 q 377 1099 357 1137 q 490 897 425 1063 l 548 789 q 598 666 582 666 q 674 787 620 666 q 860 1108 743 925 q 895 1138 895 1124 q 926 1172 907 1162 l 949 1169 q 1009 1184 979 1181 q 1137 1143 1137 1166 l 1137 1141 l 1139 700 l 1137 578 q 1168 182 1146 511 l 1165 153 l 1165 122 l 1153 189 q 1210 151 1153 151 q 1251 115 1251 145 l 1252 103 q 1236 -20 1252 -20 l 1233 -20 q 1169 -5 1203 -5 l 1058 -5 q 884 30 884 -5 l 891 77 l 891 84 q 878 111 891 94 l 878 122 q 941 144 878 132 l 951 156 l 947 168 l 947 197 q 964 289 947 220 l 971 298 q 959 453 959 316 l 959 567 l 962 624 q 952 678 952 646 l 952 707 q 964 821 952 747 q 983 882 964 842 l 985 894 q 971 985 971 962 l 966 985 q 864 844 936 955 q 722 606 789 700 l 646 498 q 614 483 633 483 l 591 491 q 563 483 576 490 q 537 526 540 483 q 477 612 521 563 q 363 827 453 644 l 342 865 l 319 909 l 320 910 l 332 910 q 347 884 340 910 l 349 882 l 354 882 l 354 890 q 301 991 354 945 l 297 991 l 297 982 l 282 982 l 282 970 l 278 951 l 278 932 q 309 220 309 505 q 297 210 307 210 q 288 232 288 210 l 285 235 l 282 235 l 275 194 q 300 163 300 179 l 294 140 q 266 153 266 140 l 259 153 l 254 144 l 254 134 q 328 109 254 126 l 338 109 q 366 115 351 109 q 442 87 442 100 l 442 80 l 430 77 q 392 99 416 77 l 382 99 q 338 83 338 91 q 351 75 339 75 l 376 75 q 434 54 434 69 l 437 35 l 437 26 q 399 -3 437 -1 q 339 11 366 11 l 339 8 q 358 1 339 1 q 382 -8 382 -3 l 361 -12 q 136 11 298 -12 l 88 -3 q 54 26 54 5 l 54 35 q 26 83 34 35 l 22 87 l 22 96 q 98 134 43 134 q 145 151 145 145 l 145 153 l 114 1024 l 117 1105 l 110 1137 q 155 1175 110 1175 l 228 1185 m 930 1100 l 933 1099 q 959 1124 941 1099 l 959 1137 l 952 1137 q 930 1100 941 1130 m 233 1124 l 233 1119 q 250 1112 233 1114 q 259 1119 259 1116 l 259 1122 l 254 1127 l 244 1127 l 233 1124 m 138 1124 l 138 1119 l 142 1115 l 145 1115 l 145 1124 l 138 1124 m 309 1112 l 309 1108 l 328 1108 l 332 1112 l 332 1115 l 328 1119 q 309 1112 311 1119 m 193 1105 l 193 1096 q 221 1024 208 1024 l 225 1024 l 225 1032 l 214 1065 q 197 1105 214 1090 l 193 1105 m 909 1062 l 911 1061 l 914 1061 q 926 1084 926 1074 l 926 1086 l 924 1086 q 909 1062 909 1080 m 149 1084 l 148 1081 l 148 1080 q 164 994 155 994 q 171 1027 171 1009 l 171 1043 q 149 1084 171 1082 m 288 1061 q 361 963 309 1023 l 430 823 l 437 823 l 437 825 q 363 1013 437 854 q 326 1062 363 1028 l 323 1072 l 311 1072 q 288 1061 288 1070 m 212 985 l 209 972 l 209 909 q 218 875 209 875 q 228 922 228 875 q 221 985 228 962 l 212 985 m 731 783 l 734 780 q 774 846 747 787 q 803 913 791 860 l 803 916 l 798 920 q 731 783 770 920 m 1038 856 l 1040 856 q 1047 871 1047 859 l 1047 872 q 1038 856 1038 868 m 1031 821 l 1031 815 l 1035 811 q 1042 825 1042 814 l 1042 834 l 1038 834 q 1031 821 1031 833 m 1092 783 q 1111 656 1096 662 l 1114 659 l 1114 720 q 1107 827 1114 791 l 1101 827 q 1092 783 1092 827 m 161 825 l 161 777 l 167 773 l 168 773 l 171 802 l 171 808 l 168 825 l 161 825 m 1028 768 l 1028 761 l 1031 749 l 1035 749 l 1035 764 l 1031 768 l 1028 768 m 250 700 q 262 602 252 602 l 266 602 l 266 625 q 262 745 266 699 l 259 745 q 250 700 252 745 m 633 624 q 624 597 624 608 l 624 593 l 629 593 q 642 618 637 593 l 642 624 l 633 624 m 187 590 l 186 574 l 186 571 q 195 543 186 543 l 199 562 q 190 590 197 590 l 187 590 m 252 540 l 252 530 l 254 507 l 259 507 l 259 521 q 252 540 259 538 m 178 400 l 180 397 q 197 454 197 397 l 197 514 l 195 526 l 193 526 q 178 400 186 526 m 256 469 q 252 444 252 460 l 252 339 l 254 239 l 256 236 l 259 236 q 285 263 278 236 l 285 273 q 273 293 275 273 l 275 327 l 275 330 q 266 397 275 378 l 271 425 q 256 469 267 467 m 1051 419 l 1050 412 l 1057 407 l 1061 412 l 1061 415 l 1057 419 l 1051 419 m 1044 327 q 1031 267 1031 292 q 1044 244 1036 244 l 1047 244 l 1051 324 l 1051 327 l 1044 327 m 1114 298 q 1101 255 1101 286 l 1101 225 l 1111 216 l 1120 216 q 1130 235 1127 216 q 1114 298 1120 298 m 180 260 l 180 232 l 186 227 l 190 227 l 197 270 l 195 283 l 190 283 q 180 260 183 283 m 1044 216 l 1044 208 l 1050 208 l 1054 213 l 1054 216 l 1044 216 m 987 197 l 985 184 l 985 182 l 990 182 l 994 187 l 994 197 l 987 197 m 1104 197 l 1104 191 l 1114 182 l 1118 182 l 1126 189 l 1126 191 l 1120 197 l 1104 197 m 174 189 l 174 179 l 180 179 l 180 184 l 176 189 l 174 189 m 269 172 l 273 168 l 281 168 l 285 172 l 281 178 l 273 178 l 269 172 m 47 106 l 47 96 q 69 65 47 83 l 73 65 q 81 77 79 65 q 69 113 77 113 l 54 113 l 47 106 m 1061 168 l 1065 163 l 1074 163 l 1074 168 l 1067 175 l 1061 168 m 73 37 l 73 33 l 79 27 l 81 30 l 83 30 l 81 37 l 73 37 m 197 20 q 228 14 209 14 l 235 14 l 252 16 l 252 23 l 206 27 l 197 20 m 269 18 l 269 14 l 290 8 l 320 8 l 320 14 l 281 18 l 269 18 m 922 83 l 922 75 l 928 71 l 954 77 l 954 83 q 939 90 951 90 l 929 90 l 922 83 m 928 33 l 928 27 l 932 23 l 954 23 l 954 27 q 939 35 951 35 l 928 33 z "},"N":{"ha":1082,"x_min":35,"x_max":1080,"o":"m 1031 1328 l 1050 1328 q 1070 1280 1070 1328 l 1073 1274 l 1076 1271 l 1078 1264 l 1080 1264 q 1025 1210 1063 1210 q 956 1200 1025 1203 l 952 1194 q 1006 260 1006 502 l 1013 80 q 987 11 1013 11 q 933 7 975 7 l 873 7 q 826 27 826 7 q 776 141 821 66 q 715 321 750 273 q 689 359 715 330 q 506 694 593 517 q 425 852 487 723 q 311 1023 368 954 l 304 1023 l 304 977 q 316 742 304 918 q 285 327 316 617 l 285 301 l 297 260 l 290 127 l 300 77 l 290 39 l 290 33 l 285 33 q 266 42 275 42 l 254 42 l 254 39 q 263 18 263 26 l 263 8 q 281 16 275 8 q 292 1 292 12 q 266 -30 292 -30 l 104 -34 q 53 11 53 -27 q 35 103 45 76 q 126 149 35 113 l 129 151 l 129 213 q 140 245 129 236 l 140 251 q 126 374 126 251 l 126 397 q 167 1255 167 764 q 178 1314 168 1314 q 254 1324 178 1322 l 275 1324 q 382 1207 316 1324 q 494 1061 454 1118 l 575 925 q 727 631 669 817 q 804 502 787 502 q 829 576 829 528 l 826 654 l 831 916 q 819 1027 819 990 l 819 1034 q 833 1181 819 1138 q 734 1198 833 1198 l 728 1204 l 728 1267 q 781 1326 728 1326 q 1031 1328 997 1328 m 1028 1308 l 1028 1302 l 1040 1299 l 1044 1299 l 1050 1305 l 1047 1308 l 1028 1308 m 256 1295 q 281 1271 260 1271 l 285 1276 l 285 1290 l 275 1299 l 262 1299 l 256 1295 m 983 1257 l 983 1252 l 990 1252 l 990 1257 l 983 1257 m 766 1236 l 774 1229 l 779 1229 l 812 1233 q 798 1241 810 1241 l 772 1241 l 766 1236 m 860 1165 l 860 1156 q 873 1143 865 1143 l 879 1150 l 879 1175 l 871 1181 l 869 1181 q 860 1165 860 1177 m 252 1058 l 254 1055 l 256 1055 q 263 1109 263 1055 l 263 1156 l 262 1156 q 252 1058 252 1156 m 301 1131 l 301 1112 q 316 1077 301 1099 l 323 1077 q 309 1137 315 1137 l 307 1137 l 301 1131 m 373 1046 l 373 1043 q 437 899 416 935 q 449 880 449 886 l 456 880 l 456 884 q 411 1001 442 955 l 377 1046 l 373 1046 m 490 947 l 490 941 q 534 863 499 906 l 538 863 q 499 947 514 947 l 490 947 m 468 856 l 465 853 l 465 852 q 579 628 496 765 l 585 628 q 477 849 578 661 l 468 856 m 623 758 q 665 673 640 701 l 667 675 q 624 758 636 751 l 623 758 m 680 647 l 680 644 q 718 559 694 583 l 722 559 q 684 647 722 570 l 680 647 m 595 595 l 594 593 q 629 524 617 524 l 633 529 l 633 533 q 595 595 633 544 m 199 391 l 202 391 q 216 464 212 391 l 216 486 l 212 486 q 199 391 206 486 m 690 425 l 690 410 l 712 384 l 715 384 l 715 403 l 699 416 l 699 425 l 690 425 m 898 358 q 905 331 899 331 l 907 331 q 914 346 914 334 l 911 397 l 909 397 q 898 358 901 397 m 187 339 l 187 312 l 195 312 q 205 343 201 312 q 197 359 202 359 q 187 339 187 357 m 949 236 l 949 229 l 955 229 l 955 236 l 949 236 m 779 210 q 803 172 779 194 l 804 172 l 804 175 q 785 210 804 182 l 779 210 m 888 182 l 888 178 l 892 172 l 898 172 l 898 178 l 892 182 l 888 182 m 193 160 l 193 151 l 197 146 l 199 146 l 205 151 l 205 153 l 197 160 l 193 160 m 817 134 l 817 130 l 823 122 l 826 122 l 823 134 l 817 134 m 95 115 l 95 109 l 129 109 l 133 113 l 133 115 l 129 121 l 104 121 l 95 115 m 987 102 l 987 92 l 994 84 l 997 84 l 997 94 l 990 102 l 987 102 m 183 68 l 183 64 l 187 64 l 195 71 l 195 75 l 190 75 l 183 68 m 66 61 q 83 52 71 52 l 88 52 l 111 56 l 111 64 l 83 68 q 66 61 66 65 m 949 61 l 949 56 l 955 61 l 949 61 m 98 -1 q 111 -8 100 -8 q 129 -1 129 -7 l 123 4 l 102 4 l 98 -1 z "},"O":{"ha":1080,"x_min":35,"x_max":1061,"o":"m 617 1309 q 784 1268 760 1283 q 945 1112 920 1184 l 1012 1012 q 1061 715 1035 916 q 1016 449 1046 480 q 955 278 994 362 q 829 56 865 94 q 696 -8 757 -8 q 670 -26 670 -15 l 586 -58 l 575 -56 q 449 -68 494 -68 l 425 -68 q 281 -20 408 -68 q 199 46 250 -8 q 159 100 159 73 q 57 340 107 174 q 38 407 38 395 l 35 438 q 126 891 35 747 q 180 1036 156 933 q 247 1122 191 1055 q 395 1264 247 1169 q 500 1299 395 1272 l 617 1309 m 746 1261 l 746 1252 q 814 1218 802 1218 l 814 1221 q 753 1261 769 1261 l 746 1261 m 677 1240 l 677 1237 q 826 1169 742 1192 l 826 1173 q 776 1204 812 1191 q 719 1233 776 1213 q 690 1245 708 1245 l 681 1245 l 677 1240 m 452 1188 q 544 1221 460 1188 l 567 1227 l 567 1237 l 566 1237 q 452 1192 522 1237 l 452 1188 m 176 594 l 176 435 q 262 224 176 273 q 370 138 346 138 q 461 103 426 138 l 477 100 l 499 103 l 515 87 l 518 87 q 547 107 529 87 q 665 148 635 121 q 798 293 798 279 q 876 530 876 486 q 943 705 921 705 l 945 705 l 945 715 q 921 787 945 736 q 886 971 907 941 q 681 1164 846 1081 q 613 1188 628 1188 l 601 1188 q 509 1152 521 1152 q 503 1135 503 1152 q 376 1040 393 1063 l 285 924 q 225 815 252 883 q 176 594 176 707 m 244 1027 l 244 1024 l 250 1024 q 385 1157 385 1145 l 382 1157 q 292 1085 339 1157 q 263 1065 283 1085 q 244 1027 244 1065 m 841 1145 l 841 1142 l 854 1142 l 854 1145 l 848 1152 l 841 1145 m 404 1114 l 404 1112 l 408 1112 q 461 1145 461 1124 l 458 1147 l 453 1147 q 404 1114 404 1137 m 807 1126 q 860 1081 807 1104 l 867 1081 q 873 1090 873 1081 q 807 1126 873 1107 m 917 1065 l 917 1057 q 974 939 917 1040 l 975 939 l 975 941 l 955 1019 q 928 1072 955 1072 l 924 1072 l 917 1065 m 212 1012 l 212 1009 l 221 1009 l 221 1017 l 216 1017 l 212 1012 m 202 996 l 202 989 l 206 993 l 206 996 l 202 996 m 235 941 l 235 933 l 240 933 l 240 932 q 252 952 252 932 l 252 955 l 250 955 l 235 941 m 981 898 l 978 895 l 978 894 l 983 872 l 990 872 l 990 888 l 981 898 m 187 838 l 187 827 l 193 822 q 218 875 193 829 l 221 888 l 216 888 q 187 838 194 871 m 936 663 l 936 656 l 940 656 l 945 661 l 945 663 l 936 663 m 981 644 q 971 581 971 614 l 971 578 l 974 578 q 985 597 985 582 l 985 632 l 983 644 l 981 644 m 1013 528 l 1013 521 l 1021 521 q 1032 581 1032 560 l 1032 587 l 1028 587 q 1013 528 1016 587 m 909 528 l 909 515 l 917 515 l 924 534 l 918 553 l 917 553 q 909 528 909 553 m 864 340 q 888 400 879 340 q 909 486 909 434 l 909 490 l 905 495 q 867 362 888 495 l 864 359 l 861 340 l 864 340 m 114 430 l 114 429 l 119 423 l 121 423 l 126 429 l 126 430 l 121 435 l 119 435 l 114 430 m 57 400 l 57 385 l 62 381 l 66 381 l 69 392 l 69 401 l 64 407 l 57 400 m 822 296 l 826 281 q 772 202 772 212 l 784 202 l 785 205 l 788 205 l 791 202 l 791 201 l 703 129 l 700 122 l 703 122 l 705 119 l 708 119 q 798 183 750 134 q 850 290 842 241 l 852 297 l 852 309 q 842 326 852 321 l 838 326 q 822 296 829 326 m 130 283 l 130 264 q 155 224 130 240 l 161 224 l 161 229 q 133 283 160 255 l 130 283 m 776 56 l 776 49 l 779 49 q 850 122 850 99 l 845 122 q 776 56 803 91 m 560 96 l 560 94 l 579 94 l 586 100 l 586 103 l 579 103 q 560 96 562 103 m 376 98 q 404 75 376 83 l 404 77 q 377 98 404 92 l 376 98 m 250 69 l 250 62 l 254 58 l 259 58 l 259 62 l 252 69 l 250 69 m 582 18 l 582 11 l 594 11 q 655 49 655 26 l 651 49 q 582 18 633 49 m 480 39 l 480 31 l 509 30 l 551 30 l 551 34 q 525 43 551 39 l 509 43 l 480 39 m 434 37 l 453 30 l 453 34 q 439 41 452 41 l 434 37 m 700 18 l 700 11 l 708 11 l 715 18 l 709 22 l 705 22 l 700 18 m 266 5 l 266 1 q 330 -27 266 -7 q 437 -52 412 -52 q 575 -30 488 -52 l 575 -26 l 538 -26 l 411 -33 l 330 -4 q 266 5 297 5 z "},"P":{"ha":926,"x_min":12,"x_max":1000,"o":"m 148 1367 l 182 1364 q 515 1333 450 1364 q 784 1279 658 1312 q 888 1245 808 1265 q 933 1200 911 1236 q 1000 1042 1000 1142 l 964 880 q 856 693 945 833 q 578 564 856 654 q 480 543 566 551 q 286 517 456 532 l 286 296 l 283 114 q 480 71 380 114 l 480 66 l 483 66 l 480 64 l 480 45 q 487 28 480 37 l 476 11 l 476 -9 q 442 -31 476 -31 l 363 -31 l 363 -34 q 407 -47 363 -42 l 407 -56 l 385 -60 q 125 -38 304 -38 q 107 -18 111 -18 l 56 -31 q 77 -41 56 -37 l 77 -43 q 56 -53 77 -49 q 37 68 37 -53 l 31 102 q 49 121 31 121 l 115 114 l 125 114 q 148 387 148 114 l 151 476 q 138 513 138 476 l 136 570 l 136 655 q 132 712 136 690 l 136 726 l 129 732 l 129 741 l 138 751 l 138 766 l 132 776 q 141 970 141 892 l 141 975 q 132 1020 132 985 l 132 1046 l 144 1156 l 144 1158 q 41 1162 111 1162 q 12 1225 20 1162 l 12 1226 q 27 1272 12 1240 l 22 1298 q 53 1320 22 1316 l 60 1320 l 60 1321 l 49 1339 l 49 1343 q 148 1367 53 1359 m 153 1336 l 153 1333 q 271 1321 153 1325 l 326 1324 q 335 1331 335 1328 l 335 1336 l 296 1339 l 212 1339 l 153 1336 m 363 1331 l 369 1326 l 404 1326 l 410 1331 q 382 1339 410 1336 q 363 1331 363 1336 m 639 1289 l 648 1289 l 644 1293 l 639 1289 m 639 1255 l 637 1253 l 637 1251 q 661 1244 648 1244 l 663 1244 l 663 1248 q 639 1255 663 1255 m 141 1241 l 141 1238 l 153 1236 l 157 1236 q 182 1245 182 1238 l 176 1251 l 163 1251 q 141 1241 144 1251 m 227 1248 l 227 1244 l 233 1244 l 233 1248 l 227 1248 m 262 1234 l 262 1232 q 290 1213 262 1213 l 340 1217 l 340 1219 q 271 1234 340 1230 l 262 1234 m 724 1229 l 723 1226 l 723 1225 q 765 1200 753 1200 l 765 1207 q 724 1229 765 1219 m 186 1219 l 186 1217 q 221 1200 198 1200 l 236 1200 l 245 1210 l 245 1215 q 214 1225 245 1222 l 191 1225 l 186 1219 m 647 1210 l 647 1206 q 661 1198 648 1198 l 663 1198 l 663 1207 l 651 1210 l 647 1210 m 153 1198 q 170 1191 153 1192 q 183 1198 183 1194 l 179 1203 l 157 1203 l 153 1198 m 267 1175 l 267 1162 l 269 1156 l 267 1149 l 264 1055 q 297 747 264 945 l 302 656 q 502 690 357 656 q 654 757 562 690 q 770 837 715 785 q 825 982 825 917 q 829 1010 829 982 l 829 1023 q 701 1120 829 1046 q 471 1198 537 1172 l 433 1200 q 267 1175 289 1200 m 224 1177 l 224 1162 l 227 1162 l 231 1168 l 231 1172 l 227 1177 l 224 1177 m 768 1153 l 768 1150 q 806 1130 781 1130 l 806 1139 q 770 1153 781 1153 l 768 1153 m 865 1149 l 865 1146 q 879 1137 869 1137 l 882 1139 l 882 1141 q 872 1153 876 1152 l 869 1153 l 865 1149 m 793 1092 l 793 1086 q 812 1080 795 1080 l 822 1080 l 825 1082 l 827 1082 q 806 1093 827 1093 l 793 1092 m 860 1055 l 860 1048 l 869 1039 l 875 1044 q 860 1055 868 1055 m 970 1039 q 979 1027 974 1028 l 983 1027 l 986 1039 l 979 1044 l 974 1044 l 970 1039 m 924 989 l 924 985 l 929 979 l 933 979 l 933 989 l 929 994 l 924 989 m 799 802 l 800 799 q 829 840 829 822 l 822 840 q 799 802 799 815 m 224 830 l 224 826 l 229 826 l 233 830 l 233 836 l 229 836 l 224 830 m 658 719 l 661 716 q 675 731 669 718 l 675 738 l 670 738 q 658 719 658 731 m 815 716 l 815 713 l 819 709 l 822 709 l 829 716 l 825 722 l 819 722 l 815 716 m 534 659 l 534 655 l 540 655 q 594 671 594 662 l 594 674 l 581 674 q 534 659 540 671 m 720 647 l 720 646 l 730 646 q 789 666 755 646 l 789 674 l 780 674 q 720 647 720 658 m 644 628 l 644 627 l 647 627 q 663 636 659 627 l 663 637 l 654 637 l 644 628 m 563 608 l 578 602 l 582 602 l 587 608 l 582 612 l 568 612 l 563 608 m 416 583 l 416 579 l 426 579 l 468 593 q 537 605 536 597 l 537 608 l 518 608 q 416 583 445 606 m 309 589 q 334 581 309 581 q 353 589 353 582 l 347 593 l 315 593 l 309 589 m 210 270 q 217 228 210 228 l 220 228 l 221 244 l 221 308 l 217 313 q 210 270 210 313 m 217 201 q 210 178 210 189 l 212 171 l 217 171 l 221 175 l 221 197 l 217 201 m 96 73 q 110 66 98 66 q 122 73 122 68 l 122 77 l 100 77 l 96 73 m 277 33 l 277 28 l 305 23 l 328 23 l 328 28 l 300 33 l 277 33 m 307 14 l 307 7 l 316 7 l 321 11 l 321 14 l 307 14 m 376 7 l 376 4 l 381 0 l 420 0 l 420 4 l 391 9 l 376 7 m 347 -18 l 347 -22 l 354 -22 l 354 -18 l 347 -18 z "},"Q":{"ha":1162,"x_min":4,"x_max":1143,"o":"m 454 1256 l 479 1256 q 675 1233 647 1256 q 941 1027 853 1172 q 1058 739 1058 884 l 1053 711 l 1055 711 q 1067 692 1061 711 l 1061 606 q 1039 477 1048 567 q 982 326 1020 404 l 944 233 l 944 224 q 994 193 972 193 l 996 193 q 1029 245 1029 193 l 1032 248 l 1036 248 q 1131 164 1050 248 q 1143 157 1143 163 q 1065 60 1092 117 q 1017 -11 1044 35 q 970 -26 987 -26 l 963 -23 l 963 -20 l 967 -14 q 899 34 964 -5 l 899 50 l 894 50 q 830 88 878 50 l 825 88 l 738 34 q 526 -11 667 -11 q 270 53 403 -11 q 236 96 259 61 q 80 307 80 251 q 39 448 62 396 q 4 628 39 491 l 16 749 q 39 831 39 781 q 61 894 61 849 q 160 1047 118 1004 l 217 1119 q 274 1150 245 1143 l 277 1160 l 270 1160 l 260 1157 l 254 1160 l 254 1164 q 359 1245 270 1183 q 454 1256 397 1256 m 502 1204 l 502 1198 l 514 1195 l 548 1195 l 548 1199 q 519 1207 548 1204 l 502 1204 m 454 1161 l 454 1157 l 463 1150 l 467 1150 l 467 1154 l 460 1161 l 454 1161 m 659 1142 l 659 1141 q 694 1119 659 1130 l 700 1119 l 700 1123 q 662 1142 682 1142 l 659 1142 m 757 1133 l 757 1126 q 806 1100 796 1100 l 806 1104 q 758 1133 806 1115 l 757 1133 m 362 1103 l 362 1100 l 397 1100 q 429 1122 423 1100 l 426 1123 l 422 1123 q 362 1103 391 1123 m 510 1104 l 507 1103 l 507 1095 l 519 1093 l 524 1093 l 524 1095 q 510 1104 524 1100 m 697 1078 l 697 1074 l 704 1066 l 709 1066 l 709 1072 l 701 1078 l 697 1078 m 127 623 q 160 454 127 538 q 236 243 213 273 q 552 126 439 126 l 616 126 q 723 176 682 126 l 723 182 q 688 198 723 184 q 612 286 612 269 q 567 315 612 293 q 536 369 536 358 q 574 404 536 382 q 621 464 601 446 l 628 464 l 747 357 q 840 315 819 315 l 844 315 q 875 435 852 321 q 928 647 888 461 l 929 699 l 929 736 q 872 948 929 834 q 739 1019 856 978 q 495 1072 666 1047 l 481 1072 q 312 983 453 1072 q 270 922 270 948 q 175 819 247 883 q 127 623 127 720 m 799 1053 l 796 1050 l 796 1047 q 823 1028 796 1036 l 827 1028 l 833 1034 l 833 1036 q 799 1053 822 1053 m 891 1034 l 891 1028 q 928 983 891 1002 l 935 986 l 935 993 q 903 1040 935 1016 l 899 1040 l 891 1034 m 172 989 l 187 983 l 194 983 q 210 993 206 983 l 210 996 l 201 1005 l 198 1005 q 172 989 172 1002 m 191 884 l 197 879 q 213 901 213 887 l 208 901 q 191 884 194 891 m 958 876 l 958 875 l 966 850 l 972 850 l 972 853 l 966 876 l 958 876 m 96 762 q 103 743 96 745 l 106 743 l 121 758 l 121 761 l 111 770 l 103 770 l 96 762 m 935 518 l 937 511 l 939 511 q 947 530 947 513 l 947 543 l 944 543 q 935 518 937 543 m 65 496 l 65 483 l 71 477 l 75 477 q 68 496 75 495 l 65 496 m 618 435 q 633 426 621 426 l 637 426 l 643 430 q 631 442 640 437 l 624 442 q 618 435 618 442 m 640 362 l 640 357 q 678 335 656 335 l 685 335 l 692 343 l 692 354 q 673 382 692 369 l 663 382 q 640 362 652 377 m 891 262 l 891 252 l 894 252 q 944 350 906 252 l 944 354 l 941 354 q 891 262 932 354 m 865 300 l 865 293 l 868 293 q 878 307 878 296 l 872 307 l 865 300 m 785 296 l 785 293 l 792 286 l 799 286 l 799 288 l 792 296 l 785 296 m 747 264 l 747 262 q 761 248 749 254 l 770 248 l 776 252 q 751 264 770 264 l 747 264 m 175 217 l 172 214 q 197 195 172 206 l 198 198 q 175 217 198 206 m 939 189 l 939 183 l 947 176 l 951 176 l 951 182 l 944 189 l 939 189 m 1032 155 l 1032 148 q 1074 179 1051 148 l 1074 183 l 1070 189 l 1065 189 q 1032 155 1032 178 m 267 183 l 267 182 q 293 164 278 164 l 298 164 l 298 170 q 270 183 289 183 l 267 183 m 754 155 l 754 153 l 761 145 l 766 145 l 766 151 l 761 155 l 754 155 m 571 53 l 571 50 q 726 110 640 50 l 728 113 l 728 115 l 726 117 l 723 117 l 571 53 m 355 115 l 353 113 l 353 107 q 406 94 353 100 q 464 81 430 81 q 358 115 454 90 l 355 115 m 526 87 l 526 84 l 538 81 l 545 81 q 593 94 563 81 l 593 98 l 562 98 q 526 87 526 96 m 994 79 l 994 69 l 1004 68 l 1010 69 l 1010 75 l 1005 79 l 994 79 m 473 49 l 473 46 q 492 39 475 39 l 502 39 l 502 41 q 483 49 500 49 l 473 49 m 951 30 l 951 24 l 960 24 l 966 30 l 966 34 l 956 34 l 951 30 m 602 5 l 602 3 l 618 3 l 624 8 l 624 11 l 606 11 l 602 5 z "},"R":{"ha":1194,"x_min":-1,"x_max":1175,"o":"m 321 1303 l 327 1303 q 469 1282 361 1303 q 842 1204 613 1282 q 996 1019 941 1128 q 1013 902 1013 956 l 1013 898 q 944 711 1013 815 q 825 616 902 658 q 732 556 796 591 q 701 522 701 530 q 920 217 859 297 q 1017 126 975 126 q 1160 85 1160 118 q 1175 -4 1164 85 q 1161 -14 1173 -14 l 1146 -14 l 1040 -37 q 924 -18 1028 -18 q 822 -5 822 -18 q 803 71 817 24 l 802 84 l 802 91 q 749 180 802 107 q 730 227 742 218 q 600 471 682 297 q 567 492 582 492 l 450 464 q 369 416 369 464 l 369 385 q 406 145 369 145 l 429 142 l 450 142 l 495 152 q 507 72 507 127 l 500 53 l 502 19 q 369 -16 502 1 l 362 -14 l 217 -11 l 111 -11 q 92 37 92 -11 l 92 69 q 125 141 92 141 l 210 160 l 216 189 q 187 727 201 600 q 175 1139 184 1139 l 168 1142 l 39 1119 l 33 1120 l 35 1138 l 14 1138 l 14 1142 l 11 1142 l 14 1166 l 14 1177 q -1 1215 14 1190 q 26 1230 26 1219 l 14 1244 l 14 1246 q 178 1282 14 1259 l 321 1303 m 334 1263 l 334 1261 l 339 1256 l 372 1256 l 372 1261 l 346 1268 l 339 1268 l 334 1263 m 349 1211 q 362 1204 350 1204 l 368 1204 q 422 1215 420 1206 l 416 1221 l 378 1221 q 349 1211 349 1218 m 505 1196 l 511 1192 l 530 1192 q 552 1202 549 1192 q 529 1208 552 1208 q 505 1196 510 1208 m 735 1196 l 732 1195 l 732 1192 q 754 1185 743 1185 l 754 1187 q 735 1196 754 1191 m 35 1168 l 35 1161 l 42 1158 q 64 1173 54 1158 l 64 1183 l 56 1190 l 46 1190 q 35 1168 39 1190 m 796 1171 l 796 1168 q 884 1104 852 1131 l 891 1104 l 891 1114 q 796 1171 891 1141 m 353 1147 l 353 1133 l 368 1012 q 350 800 357 818 l 339 788 l 339 765 l 353 667 q 372 601 353 601 l 374 601 q 519 635 519 621 q 654 693 609 667 q 853 810 739 693 q 884 929 884 872 l 884 949 q 833 1050 884 967 q 650 1158 735 1158 l 586 1164 q 353 1147 445 1147 m 217 1138 l 217 1097 l 225 993 l 229 993 l 239 1139 l 236 1142 l 222 1142 l 217 1138 m 823 1101 l 833 1092 l 840 1092 l 840 1097 l 830 1107 l 827 1107 l 823 1101 m 327 1035 l 327 1028 q 334 1015 328 1015 l 339 1019 l 339 1035 l 334 1040 l 331 1040 l 327 1035 m 274 981 l 260 853 l 267 848 l 274 848 l 282 854 l 282 955 q 274 981 282 981 m 932 936 l 932 924 l 937 920 l 939 920 l 947 926 l 947 933 l 939 940 l 937 940 l 932 936 m 222 891 l 222 886 l 227 882 l 232 882 l 232 886 l 227 891 l 222 891 m 947 834 l 947 826 l 932 796 l 932 791 l 944 777 q 960 815 958 777 q 951 834 956 834 l 947 834 m 906 741 q 920 724 910 730 l 922 724 q 944 758 944 741 l 941 760 l 939 760 q 906 741 914 760 m 856 722 l 856 715 l 863 715 q 878 731 878 722 l 872 731 q 856 722 860 731 m 738 682 l 738 677 l 754 677 q 795 703 764 688 l 796 705 l 796 711 q 738 682 772 711 m 264 696 l 264 693 l 270 689 l 274 693 l 274 696 l 270 701 l 264 696 m 650 632 l 650 627 q 720 663 703 639 l 719 665 l 716 665 q 650 632 661 647 m 799 661 l 799 658 l 808 658 l 808 665 l 804 665 l 799 661 m 768 635 l 770 632 l 773 632 l 785 642 l 785 646 l 783 646 q 768 635 773 643 m 564 601 l 564 598 l 578 598 q 605 608 605 602 l 602 610 l 597 610 q 564 601 564 608 m 495 587 l 495 585 l 502 585 q 530 594 530 585 l 530 597 l 526 597 q 495 587 515 597 m 621 570 l 624 568 l 625 568 q 673 589 673 578 l 671 591 l 669 591 q 621 570 627 582 m 659 456 l 659 454 q 675 427 659 439 l 682 427 l 682 433 q 659 456 669 456 m 267 209 l 267 190 l 274 190 l 279 209 l 277 217 l 274 217 l 267 209 m 317 107 l 317 104 l 324 98 l 327 98 q 339 123 335 98 l 339 132 l 336 142 l 331 142 q 317 107 323 142 m 277 138 l 273 107 l 273 104 l 282 104 l 289 113 l 289 119 q 282 138 289 137 l 277 138 m 463 91 l 463 85 l 467 85 l 472 91 l 472 95 l 467 95 l 463 91 m 899 76 l 899 75 l 906 66 l 909 66 l 916 75 l 916 84 l 906 84 l 899 76 m 1089 75 l 1089 66 l 1100 65 l 1109 65 l 1115 69 l 1115 75 l 1108 81 l 1103 81 q 1089 75 1089 80 m 454 43 l 457 41 l 467 41 l 473 47 l 473 50 l 469 56 q 454 43 454 56 m 926 61 l 926 58 l 933 52 l 964 52 l 964 53 q 945 61 962 61 l 926 61 m 1092 24 l 1092 23 l 1099 15 l 1123 15 q 1145 24 1141 15 q 1130 33 1142 33 l 1107 33 q 1092 24 1092 30 m 838 20 q 848 14 838 14 l 857 18 l 854 24 l 842 24 l 838 20 z "},"S":{"ha":895,"x_min":30,"x_max":869,"o":"m 461 1295 l 587 1271 q 694 1217 618 1271 l 701 1217 q 716 1290 707 1290 q 783 1270 770 1270 l 822 1270 l 850 1271 l 856 1267 l 853 1255 l 853 1015 q 841 979 853 993 q 856 951 856 966 q 844 918 856 937 l 849 887 q 837 865 849 865 l 789 871 l 787 871 l 761 865 l 758 865 q 732 947 750 865 q 711 994 732 972 q 685 1042 685 1031 l 697 1046 l 697 1048 q 663 1099 669 1070 q 530 1175 587 1175 l 518 1175 q 331 1137 495 1175 q 281 1065 319 1130 q 245 975 245 1016 q 274 853 256 853 q 334 776 300 791 q 378 758 339 765 q 490 697 406 734 q 509 688 490 690 l 530 694 q 545 688 545 692 l 545 685 l 540 678 l 540 673 q 604 640 563 640 l 604 643 l 566 673 l 566 675 q 689 609 587 675 q 844 425 844 463 q 869 282 869 315 q 840 137 853 137 l 793 58 q 640 -20 663 -20 q 353 54 427 23 q 205 217 205 191 l 198 222 l 195 220 l 195 210 l 194 106 q 127 92 194 92 l 94 94 l 65 83 q 30 103 49 83 l 30 106 l 39 121 q 72 438 53 438 l 75 438 l 109 431 l 110 431 q 129 438 119 431 l 153 431 l 167 435 l 172 435 q 208 381 179 434 q 336 206 279 292 q 384 156 343 206 l 499 106 l 533 106 l 533 99 l 537 99 l 545 103 l 549 103 q 578 92 564 92 l 590 92 q 642 106 642 96 l 640 109 l 604 109 l 581 111 l 581 113 q 713 140 583 118 q 773 244 745 140 q 789 293 773 279 l 789 302 q 718 431 760 400 q 545 524 696 472 q 388 612 453 559 q 286 671 301 637 q 201 751 271 699 q 125 913 167 856 q 106 1086 106 990 q 241 1257 121 1147 q 461 1295 309 1295 m 241 1232 l 264 1232 q 403 1261 282 1232 q 448 1276 448 1271 l 441 1279 q 241 1232 241 1263 m 739 1255 l 735 1248 l 735 1241 q 751 1232 738 1232 l 783 1232 l 783 1233 q 739 1255 764 1255 m 298 1160 l 302 1160 q 391 1195 319 1160 l 441 1214 l 441 1213 l 435 1200 l 450 1200 l 461 1203 l 461 1210 l 457 1217 l 457 1229 l 454 1229 q 328 1181 369 1202 q 298 1160 298 1175 m 583 1214 q 640 1194 583 1207 l 650 1194 l 654 1198 l 654 1200 q 616 1214 647 1214 l 583 1214 m 742 1204 l 742 1200 l 745 1188 l 749 1188 l 755 1195 l 755 1203 l 749 1210 l 746 1210 l 742 1204 m 251 1185 l 251 1184 q 258 1179 251 1179 q 271 1191 267 1181 l 271 1195 q 251 1185 254 1195 m 678 1175 l 688 1166 l 697 1166 l 701 1172 l 701 1179 q 688 1188 701 1183 q 678 1175 678 1185 m 774 1150 l 780 1146 l 780 1143 l 773 1134 l 773 1128 q 787 1119 773 1124 q 799 1103 792 1104 l 806 1103 l 806 1108 l 802 1115 l 802 1122 l 808 1122 l 818 1115 l 822 1115 l 825 1127 l 825 1131 q 803 1184 811 1184 l 793 1184 q 774 1150 774 1175 m 239 1103 l 251 1090 l 255 1090 q 296 1115 274 1093 l 290 1119 l 270 1119 q 239 1103 248 1119 m 151 1112 l 151 1109 l 160 1109 l 160 1118 l 156 1118 l 151 1112 m 208 1029 l 208 1027 l 210 1027 q 245 1084 245 1057 l 239 1089 q 208 1029 217 1089 m 812 1084 l 812 1080 q 825 1067 818 1069 l 825 1074 l 821 1084 l 812 1084 m 796 1065 l 802 1065 l 802 1070 l 796 1065 m 765 1055 l 765 1053 l 773 1046 l 780 1046 l 787 1053 l 787 1055 l 780 1062 l 773 1062 l 765 1055 m 808 1036 l 808 1023 l 811 1010 l 815 1010 l 821 1043 l 815 1043 l 808 1036 m 773 1010 l 773 1005 l 777 1001 l 783 1001 l 783 1005 l 777 1010 l 773 1010 m 770 960 l 770 929 l 774 925 l 777 925 q 793 937 791 925 q 784 977 784 959 l 780 977 q 770 960 770 972 m 774 894 l 783 887 l 789 887 l 792 894 l 784 899 l 780 899 l 774 894 m 201 818 l 201 804 l 208 796 l 222 796 l 222 804 q 201 818 209 818 m 233 766 l 233 758 q 286 728 273 728 l 293 728 l 293 738 q 236 766 266 755 l 233 766 m 454 701 q 469 694 457 694 l 476 694 l 476 697 l 471 701 l 454 701 m 490 675 l 486 671 q 545 633 490 661 l 545 643 q 490 675 522 665 m 524 562 l 524 552 q 583 538 544 543 q 597 530 585 530 l 612 530 l 612 533 q 533 562 612 549 l 524 562 m 654 510 l 654 505 l 659 500 l 663 500 l 663 505 l 659 510 l 654 510 m 84 317 q 75 245 75 290 l 80 220 l 81 220 q 99 236 99 220 q 91 317 91 277 l 84 317 m 132 263 q 113 220 122 231 l 119 201 l 118 151 l 118 140 q 125 125 119 125 l 137 125 l 144 132 l 144 140 q 132 263 144 263 m 233 216 l 233 210 q 260 182 241 182 l 260 184 q 236 216 248 216 l 233 216 m 81 172 l 84 170 l 87 170 q 96 208 95 170 l 94 210 l 91 210 q 81 172 85 210 m 298 198 l 298 197 q 327 168 311 168 l 327 172 q 302 198 315 190 l 298 198 m 780 156 l 787 149 l 796 149 l 803 156 l 803 160 l 799 165 l 789 165 l 780 156 m 412 122 l 412 121 q 426 111 414 111 l 426 113 q 412 122 423 122 m 308 121 l 308 118 q 403 54 330 79 q 578 7 471 30 q 618 -8 600 -7 l 635 -8 q 682 23 682 3 l 682 26 l 511 37 q 321 118 365 85 l 308 121 m 654 64 l 654 61 l 659 56 l 669 56 q 745 75 736 56 l 736 80 l 726 80 q 654 64 701 80 m 597 26 l 600 26 q 613 18 613 23 l 613 16 l 609 16 l 597 18 l 597 26 z "},"T":{"ha":848,"x_min":-1,"x_max":989,"o":"m 197 1280 q 543 1255 281 1280 l 751 1249 l 758 1249 q 966 1261 897 1249 q 989 1059 989 1177 l 989 1050 q 967 998 989 998 l 960 991 q 982 974 960 983 l 985 972 l 985 967 q 918 945 975 949 q 875 977 875 945 l 871 1021 l 875 1107 q 764 1124 875 1124 l 650 1124 l 586 1126 q 559 818 567 1126 q 548 473 548 563 l 548 416 q 530 366 548 391 l 530 365 q 548 324 544 365 l 543 296 l 540 296 l 538 298 l 538 309 l 536 163 q 723 122 536 138 q 758 87 758 109 q 742 1 742 56 q 738 -18 738 1 l 730 -23 q 358 -14 529 -14 l 315 -14 q 182 -20 236 -14 q 165 103 178 -15 l 168 103 l 194 91 l 197 91 l 203 99 l 203 100 q 184 109 202 109 l 179 115 l 179 118 q 260 138 179 123 q 393 148 260 146 q 415 270 408 148 l 425 391 q 407 585 407 545 l 387 958 l 387 1005 l 391 1077 l 387 1100 l 393 1115 l 393 1124 q 245 1143 393 1139 q 137 1128 137 1138 q 103 998 121 1086 l 90 986 l 87 989 l 73 989 q 56 982 64 982 l 3 978 q 8 1141 8 1111 l -1 1214 q 27 1240 -1 1238 l 49 1261 l 58 1261 l 75 1240 l 80 1240 q 172 1280 111 1280 l 197 1280 m 590 1202 q 650 1188 590 1190 q 681 1198 681 1190 l 681 1200 q 602 1207 658 1207 l 595 1207 l 590 1202 m 825 1154 l 825 1153 q 840 1145 827 1145 l 849 1145 l 849 1147 l 842 1154 l 825 1154 m 880 1154 l 880 1147 l 884 1147 l 890 1153 l 890 1154 l 880 1154 m 483 1107 l 483 1105 l 488 1100 q 526 1124 505 1100 l 526 1128 l 517 1131 q 483 1107 500 1131 m 73 1115 l 73 1100 l 80 1093 l 83 1093 l 92 1103 l 92 1116 l 84 1124 l 83 1124 l 73 1115 m 425 1109 l 425 1100 q 435 1072 429 1072 q 450 1093 445 1072 l 450 1105 q 438 1124 450 1118 q 425 1109 425 1124 m 916 1115 l 910 1090 l 918 1086 l 925 1093 l 925 1107 l 918 1115 l 916 1115 m 498 1048 l 495 1024 l 495 996 l 500 996 l 502 1020 l 502 1048 l 498 1048 m 903 991 l 903 982 l 909 982 l 916 989 l 916 991 l 910 996 l 909 996 l 903 991 m 514 878 l 510 811 l 510 765 q 521 718 510 718 l 524 718 l 529 742 l 519 878 l 514 878 m 434 815 l 435 812 l 438 812 l 438 821 l 434 815 m 453 680 q 441 578 441 632 l 441 556 q 457 467 441 467 q 464 495 463 467 l 454 585 l 463 625 l 457 680 l 453 680 m 467 416 l 464 385 l 483 355 l 483 366 q 473 416 483 416 l 467 416 m 286 110 l 286 100 q 293 96 286 96 l 334 100 l 334 106 q 305 119 326 119 l 296 119 l 286 110 m 244 113 l 241 106 l 248 100 l 254 100 l 258 106 l 251 113 l 244 113 m 650 84 q 716 77 680 77 l 720 81 l 720 87 l 700 91 l 663 91 q 650 84 650 90 m 606 53 q 625 39 612 39 l 637 39 q 652 46 650 39 l 652 49 q 625 61 652 57 l 614 61 l 606 53 m 416 53 l 416 46 l 434 43 l 460 43 q 473 52 472 43 q 444 56 463 56 l 434 56 l 416 53 m 292 46 l 292 39 l 321 34 l 346 39 l 346 42 l 339 49 l 302 49 l 292 46 m 217 14 l 217 11 l 222 5 l 225 5 q 239 33 239 14 l 239 34 l 235 39 l 232 39 q 217 14 217 31 m 707 27 l 707 20 l 713 18 l 719 24 l 719 30 l 713 34 l 707 27 z "},"U":{"ha":869,"x_min":-7,"x_max":869,"o":"m 114 1171 l 218 1158 l 262 1158 q 335 1145 335 1158 l 320 1127 l 320 1126 q 354 1111 320 1118 l 354 1107 q 323 1051 336 1095 l 212 1035 q 197 1031 212 1032 l 197 1028 l 205 890 q 186 709 205 850 l 186 674 q 197 518 186 623 l 195 515 l 193 515 l 180 556 l 174 556 l 171 528 l 171 420 q 180 354 171 354 l 183 354 l 195 490 l 197 491 l 199 491 l 205 446 l 193 301 q 216 243 209 271 q 297 142 243 243 q 425 110 334 110 l 471 98 l 484 98 q 576 164 548 98 q 658 304 597 193 q 684 387 684 332 l 684 418 l 677 601 l 681 624 q 689 613 686 624 l 693 613 q 708 671 707 613 q 684 689 684 671 l 696 829 q 643 1016 678 1016 q 551 1051 551 1029 q 529 1104 529 1081 q 642 1154 566 1154 q 774 1164 642 1161 q 867 1145 867 1164 l 869 1133 l 869 1104 q 810 1019 869 1046 l 804 1012 l 804 1009 q 833 700 822 749 q 807 408 807 625 q 731 142 807 382 q 700 92 704 92 q 684 79 689 88 l 684 73 l 699 73 l 699 72 q 651 34 694 64 q 557 3 621 3 l 509 7 l 406 -12 q 136 81 210 -12 q 104 121 104 96 l 107 138 q 41 330 79 179 l 31 401 l 31 414 l 35 449 l 24 453 l 26 472 l 15 494 q 41 566 18 526 l 41 651 l 64 883 l 64 1019 q 7 1050 64 1042 q -7 1139 -7 1085 q 114 1171 -7 1171 m 804 1104 q 838 1089 819 1089 l 845 1089 q 819 1108 845 1108 l 810 1108 l 804 1104 m 617 1092 l 617 1088 l 639 1082 l 652 1082 l 658 1088 l 652 1092 l 617 1092 m 757 1088 l 762 1082 l 772 1082 l 776 1088 l 772 1092 l 762 1092 l 757 1088 m 43 1080 l 43 1076 q 57 1069 45 1069 l 62 1069 l 66 1073 q 53 1080 64 1080 l 43 1080 m 111 1035 q 104 1012 104 1023 l 111 1004 l 117 1004 q 130 1021 130 1012 q 111 1035 126 1035 m 157 1023 l 142 990 l 142 987 q 159 974 149 974 q 164 1000 164 982 l 164 1016 l 157 1023 m 136 880 l 136 879 l 140 879 l 145 899 l 142 899 q 136 880 136 898 m 755 880 l 753 869 l 753 836 l 757 831 l 760 831 q 766 845 766 833 l 766 860 l 762 880 l 755 880 m 92 867 l 91 854 l 91 836 l 92 823 l 98 823 q 104 848 104 823 q 98 867 103 867 l 92 867 m 152 798 l 152 760 l 159 760 q 167 812 167 781 l 167 836 l 161 836 q 152 798 153 836 m 760 766 l 755 731 l 755 709 l 762 709 q 769 753 769 735 l 769 766 l 760 766 m 110 662 l 110 658 l 114 658 l 110 662 m 110 617 l 107 605 l 107 537 l 114 537 l 117 585 l 117 613 l 111 617 l 110 617 m 734 613 l 734 608 q 753 598 734 604 l 755 601 l 755 604 q 736 613 745 613 l 734 613 m 750 544 l 747 532 l 747 529 l 755 529 l 757 541 l 757 544 l 750 544 m 734 453 l 738 453 q 750 506 747 453 l 747 506 q 734 453 736 503 m 727 420 l 727 408 l 728 408 q 736 427 736 410 l 736 439 l 734 439 q 727 420 727 438 m 121 271 l 121 262 q 133 216 121 240 q 129 190 129 206 l 129 180 q 149 157 132 157 l 155 161 l 155 164 q 145 216 149 208 l 148 231 l 148 233 q 123 271 148 247 l 121 271 m 212 228 l 212 225 q 250 157 212 218 l 250 155 l 262 155 l 271 164 l 271 167 q 235 206 271 178 l 235 209 l 240 216 q 216 228 235 228 l 212 228 m 629 123 l 632 121 l 633 121 q 674 157 674 136 l 667 159 q 629 123 646 159 m 155 111 q 174 85 164 90 l 176 85 l 176 92 q 159 117 176 106 l 155 111 m 275 110 l 275 107 l 281 102 l 290 102 l 290 107 l 282 114 l 281 114 l 275 110 m 575 95 l 579 95 q 595 104 591 95 l 595 111 l 594 111 q 575 95 575 110 m 401 83 l 401 76 l 404 76 q 423 83 420 76 l 423 88 l 420 88 l 401 83 m 624 47 l 624 45 l 627 45 q 643 54 639 45 l 643 60 l 642 60 q 624 47 625 53 m 434 54 l 434 45 l 444 45 q 458 53 456 45 l 458 57 l 452 57 l 434 54 m 563 22 l 563 19 l 579 19 q 613 38 613 23 l 604 38 q 563 22 572 38 z "},"V":{"ha":941,"x_min":4,"x_max":1073,"o":"m 374 1299 l 374 1284 q 399 1268 374 1279 l 399 1263 q 392 1240 392 1251 l 392 1237 l 393 1195 q 374 1161 393 1184 l 374 1157 q 387 1133 374 1147 l 387 1126 q 263 1100 387 1116 l 251 1095 l 237 1097 l 235 1097 q 256 1076 237 1076 l 266 1085 q 323 986 302 1085 q 330 967 327 986 l 323 936 l 323 924 l 339 910 q 355 857 355 875 l 355 810 q 368 727 368 792 q 392 627 392 651 q 450 407 392 574 q 522 189 502 189 l 525 189 q 605 401 560 214 q 646 566 646 522 l 639 579 q 724 845 680 673 q 779 1040 779 1006 l 779 1047 q 735 1073 779 1065 q 726 1090 726 1080 l 726 1218 q 764 1265 726 1253 q 829 1287 796 1287 l 1066 1242 q 1070 1199 1070 1242 l 1073 1199 l 1070 1187 l 1070 1119 q 1058 1062 1070 1062 q 902 1043 902 1059 q 804 682 860 834 q 747 442 766 586 q 617 50 681 180 l 617 47 q 627 28 617 39 l 627 24 q 460 -9 627 11 q 403 57 403 -9 q 373 174 403 87 q 297 452 336 323 q 187 760 254 602 q 164 873 171 803 q 99 1097 115 1016 q 79 1109 88 1109 l 22 1107 q 4 1123 4 1107 l 12 1171 l 7 1195 l 12 1208 q 7 1221 12 1221 q 50 1280 7 1238 q 145 1271 111 1271 l 156 1271 q 358 1299 213 1271 l 374 1299 m 31 1237 l 31 1225 q 66 1237 66 1227 q 45 1253 58 1253 q 31 1237 41 1253 m 861 1246 q 911 1233 868 1236 l 935 1233 l 940 1237 l 940 1242 l 861 1246 m 99 1195 l 107 1192 q 313 1218 313 1204 l 307 1223 q 102 1199 259 1223 l 99 1196 l 99 1195 m 26 1206 q 33 1135 26 1157 l 35 1135 q 45 1157 41 1135 q 33 1214 42 1214 l 31 1214 q 26 1206 26 1214 m 802 1176 l 802 1171 l 819 1171 q 861 1192 854 1171 l 854 1196 l 838 1196 q 802 1176 814 1196 m 978 1180 q 997 1173 986 1173 q 1025 1187 1025 1175 q 1010 1196 1023 1196 l 997 1196 q 978 1180 978 1196 m 978 1097 q 985 1092 978 1092 q 1054 1116 1054 1092 l 1054 1128 q 1038 1147 1054 1147 q 1004 1107 1028 1146 q 978 1097 978 1101 m 795 1126 q 817 1116 798 1116 l 819 1116 l 826 1123 l 819 1130 l 800 1130 l 795 1126 m 152 1101 l 152 1097 l 156 1092 l 161 1092 l 161 1097 l 156 1101 l 152 1101 m 760 1085 l 762 1078 l 766 1078 l 772 1082 l 772 1085 l 766 1090 l 760 1085 m 944 1088 l 944 1085 l 949 1085 l 949 1088 l 944 1088 m 159 1076 l 159 1072 l 161 1072 l 168 1078 l 168 1081 l 164 1081 l 159 1076 m 244 1054 q 301 869 263 940 q 308 845 302 845 l 311 845 l 311 848 l 313 882 q 298 917 313 917 q 285 933 285 917 l 285 939 l 297 948 q 275 1015 289 1012 q 256 1063 264 1063 l 251 1063 l 244 1054 m 776 876 l 776 872 l 779 872 q 802 921 788 872 l 800 924 l 798 924 q 776 876 788 924 m 311 834 l 311 831 q 320 798 313 798 l 323 798 l 326 810 l 326 815 q 311 834 326 831 m 753 762 l 754 762 q 772 803 762 762 l 769 803 q 753 762 761 803 m 323 769 l 323 765 q 336 722 328 728 l 339 722 q 327 769 336 768 l 323 769 m 735 708 q 716 629 716 650 l 716 623 l 719 623 q 738 705 735 631 l 738 708 l 735 708 m 349 654 l 349 651 q 365 556 349 604 l 370 556 l 370 570 q 351 654 370 646 l 349 654 m 380 502 l 380 499 q 387 475 381 475 l 389 475 l 389 496 l 384 502 l 380 502 m 393 456 l 392 454 l 392 452 l 393 439 l 401 439 q 393 456 399 456 m 681 359 l 684 359 l 690 366 l 690 373 q 681 359 686 373 m 608 323 l 610 321 l 612 321 q 624 357 624 343 l 624 363 l 621 363 q 608 323 613 363 m 373 332 l 370 331 l 370 319 q 392 255 370 286 l 393 255 l 393 266 q 373 332 376 332 m 646 274 l 648 271 l 652 271 q 665 297 661 271 l 658 297 q 646 274 646 292 m 469 269 l 469 264 l 475 259 l 479 259 l 479 264 l 475 269 l 469 269 m 477 218 l 477 209 q 487 186 480 186 l 488 186 l 496 193 l 496 205 l 481 218 l 477 218 m 602 208 q 589 157 589 179 l 591 157 q 610 208 605 157 l 602 208 m 557 85 l 557 79 q 564 75 557 75 q 586 129 581 75 l 586 132 q 579 136 586 136 q 557 85 557 122 m 557 60 l 557 53 l 563 47 l 570 47 l 574 53 l 574 56 l 564 65 l 563 65 l 557 60 m 510 41 l 510 37 l 536 37 l 536 41 q 525 60 536 54 l 522 60 q 510 41 510 54 m 446 47 q 437 27 437 34 l 441 22 l 444 22 q 453 38 453 26 l 453 41 l 446 47 z "},"W":{"ha":1077,"x_min":22,"x_max":1169,"o":"m 94 1171 q 307 1130 136 1171 q 326 1104 326 1114 q 309 916 309 1027 l 319 728 q 300 355 319 566 l 296 260 l 296 251 q 302 197 296 221 l 305 197 q 400 399 324 208 q 487 629 456 526 q 533 703 511 647 l 540 707 l 544 707 q 623 688 578 693 q 685 365 663 688 q 715 237 701 237 q 770 401 727 237 q 834 648 799 494 q 898 1000 867 757 q 920 1153 906 1025 q 1021 1158 951 1158 l 1057 1158 q 1161 1133 1145 1158 l 1169 1111 l 1166 1096 q 1160 944 1166 970 l 1156 944 q 1097 949 1108 949 l 1095 949 q 1053 899 1061 949 q 936 430 955 587 q 914 269 924 384 q 864 31 871 41 q 779 -4 846 9 q 642 14 646 -7 q 608 125 642 7 q 575 292 575 243 q 547 403 560 376 q 499 292 536 403 q 433 123 452 190 l 416 80 q 392 38 392 49 l 392 33 l 397 14 q 229 -15 397 -5 q 214 -7 214 -12 l 217 3 q 182 90 201 3 q 160 289 160 191 l 160 553 l 136 769 l 132 899 l 134 928 q 88 954 126 954 q 22 985 22 959 q 41 1133 31 1017 q 68 1156 43 1141 q 94 1171 75 1171 m 960 1137 q 936 1127 936 1134 l 936 1123 q 943 1118 936 1118 l 1100 1134 l 1100 1139 l 1097 1139 l 960 1137 m 182 1099 l 186 1095 l 214 1101 l 224 1101 q 248 1057 236 1097 l 259 1054 l 264 1054 q 293 1080 288 1054 l 293 1082 q 236 1108 293 1090 l 205 1108 q 182 1099 182 1105 m 106 987 l 106 985 q 119 978 107 978 l 145 978 l 151 982 l 151 990 q 136 997 148 997 l 126 997 q 106 987 109 997 m 1085 994 l 1085 990 l 1093 990 l 1093 994 l 1085 994 m 221 928 l 220 829 l 220 814 q 233 766 220 789 l 231 764 l 231 760 l 236 754 l 240 754 l 248 762 l 231 928 l 229 930 l 227 930 l 224 928 l 221 928 m 920 757 q 905 671 905 704 l 905 667 l 910 667 q 926 741 926 688 l 924 757 l 920 757 m 281 671 l 281 667 l 286 667 l 286 671 l 281 671 m 618 646 l 618 617 l 625 610 l 629 610 l 635 614 l 628 650 l 623 650 l 618 646 m 217 633 l 217 602 l 221 574 l 227 574 l 227 589 l 221 633 l 217 633 m 620 593 l 620 572 q 635 472 620 544 l 642 472 l 642 488 q 625 598 642 598 l 620 593 m 549 506 l 547 498 l 549 496 l 552 496 l 559 503 l 559 506 l 549 506 m 846 396 l 848 393 l 850 393 q 860 412 860 404 l 860 415 l 857 415 q 846 396 846 408 m 578 411 l 578 396 q 590 361 581 361 l 591 361 l 597 365 q 581 411 585 411 l 578 411 m 834 327 l 837 308 l 815 256 l 819 256 q 844 308 844 285 l 844 332 q 850 354 850 340 l 850 373 l 848 373 q 834 327 834 363 m 468 316 l 467 304 l 467 298 l 468 298 l 476 307 l 476 316 l 468 316 m 781 307 q 758 240 758 252 l 758 237 l 761 237 q 787 301 787 274 l 781 307 m 867 250 l 872 250 q 884 297 880 251 l 882 297 q 867 250 867 275 m 670 232 l 670 231 q 677 203 670 203 l 680 203 l 675 232 l 670 232 m 673 190 l 673 146 q 693 75 675 75 l 703 75 q 722 85 715 75 l 722 91 l 707 91 q 680 190 684 91 l 673 190 m 359 123 q 376 109 359 109 l 381 117 l 381 146 l 376 146 q 359 123 359 136 m 773 88 l 773 81 l 779 76 l 785 76 q 798 100 798 81 l 792 104 l 789 104 q 773 88 779 99 m 823 34 l 823 31 l 826 31 q 846 72 840 31 l 846 81 l 845 81 q 823 34 834 81 m 250 90 l 250 88 l 262 76 l 271 76 l 274 92 l 274 104 q 267 109 274 109 q 250 90 250 103 m 350 79 q 376 69 362 69 l 378 69 l 382 73 l 382 76 q 366 95 382 95 q 350 79 350 88 m 662 47 l 662 43 q 675 37 662 38 q 688 46 686 41 q 671 56 684 56 q 662 47 662 52 m 726 28 l 732 24 l 750 24 q 769 31 766 24 l 769 34 l 757 37 l 745 37 q 726 28 727 37 m 655 5 l 659 5 q 684 18 678 5 l 678 22 l 669 22 q 655 5 655 15 m 312 33 l 312 31 l 362 31 l 373 33 l 373 42 l 359 42 q 312 33 312 41 m 255 28 l 259 23 l 269 23 l 277 31 l 271 35 l 262 35 l 255 28 m 183 7 l 189 7 l 189 0 l 183 4 l 183 7 z "},"X":{"ha":1111,"x_min":19,"x_max":1097,"o":"m 392 1234 q 425 1208 425 1226 l 412 1168 l 412 1162 l 430 1139 q 382 1099 430 1104 q 361 1092 361 1099 l 411 1028 q 441 962 419 991 q 572 764 441 951 q 591 738 572 749 l 593 738 q 650 819 631 774 q 757 1013 738 974 q 769 1032 769 1019 l 769 1035 q 728 1076 741 1076 q 678 1092 678 1080 q 693 1130 693 1116 l 693 1139 l 684 1152 l 684 1153 l 703 1196 l 722 1200 l 726 1200 l 760 1194 l 943 1194 q 1076 1168 1024 1194 l 1077 1158 q 1054 1063 1077 1074 q 952 1038 1034 1038 q 925 1028 925 1035 q 944 1020 925 1023 l 944 1016 q 911 1000 944 1012 q 819 842 911 991 q 677 621 745 712 l 677 614 q 753 477 684 594 q 945 138 890 138 q 1097 87 1023 138 l 1095 58 l 1085 37 q 1078 -5 1085 -5 l 1028 -4 q 983 -23 1020 -4 l 910 -27 q 723 4 800 -27 l 705 43 l 692 58 l 705 56 l 677 94 q 747 138 677 114 l 750 141 l 750 146 q 620 399 708 256 q 564 475 578 475 q 506 392 529 441 q 354 184 457 298 l 326 142 q 301 117 301 123 q 351 60 351 96 q 316 -16 339 -16 q 270 -43 307 -43 q 146 -24 170 -24 l 69 -26 q 19 42 30 -26 q 42 95 19 71 q 79 137 43 104 l 80 137 q 114 109 103 109 q 171 165 171 127 q 363 430 294 320 q 411 496 372 435 q 446 555 438 519 l 488 617 l 488 627 q 361 829 457 696 q 275 968 316 888 q 175 1063 217 1063 q 102 1095 102 1063 q 95 1133 102 1133 q 221 1208 136 1208 q 392 1234 357 1234 m 876 1161 l 876 1158 l 883 1158 l 883 1161 l 876 1161 m 178 1137 l 178 1133 l 184 1133 l 184 1137 l 178 1137 m 731 1127 l 731 1118 q 781 1099 764 1099 l 802 1099 l 802 1104 q 731 1127 800 1109 m 921 1099 l 921 1095 l 928 1095 l 928 1099 l 921 1099 m 275 1082 l 275 1070 l 282 1063 l 285 1063 l 285 1067 q 278 1082 285 1080 l 275 1082 m 247 1073 l 247 1067 l 251 1063 l 259 1063 l 259 1066 l 251 1073 l 247 1073 m 836 991 l 836 987 l 848 987 l 857 997 l 857 1004 l 854 1004 q 836 991 841 1004 m 382 949 q 422 886 382 929 q 469 819 422 868 l 475 819 l 475 821 q 403 940 458 873 q 384 949 393 949 l 382 949 m 700 864 l 703 864 q 728 902 728 887 l 722 902 q 700 864 700 887 m 491 693 q 513 671 494 671 l 513 677 q 496 693 507 688 l 491 693 m 494 500 l 494 496 l 498 496 l 526 532 l 526 544 q 506 515 509 544 l 494 500 m 674 517 l 671 515 l 671 513 q 726 437 693 472 l 728 437 l 731 439 q 674 517 731 458 m 593 515 q 646 420 598 477 l 650 420 l 650 425 q 601 515 650 434 l 593 515 m 365 363 l 365 358 l 368 358 l 399 403 l 399 411 l 389 411 q 365 363 376 411 m 662 406 l 659 403 l 659 401 l 665 392 l 671 392 l 671 396 l 662 406 m 712 330 q 724 317 713 323 l 728 317 l 735 326 q 726 345 731 345 q 712 330 712 345 m 339 327 l 345 327 l 354 336 l 354 342 q 339 327 339 342 m 297 266 l 297 259 l 298 259 q 332 292 307 259 l 332 298 l 326 298 q 297 266 309 288 m 330 213 l 335 209 l 345 216 l 345 218 l 335 218 l 330 213 m 301 184 l 301 180 l 304 180 l 311 187 l 311 190 l 307 190 l 301 184 m 747 106 l 747 103 l 753 99 l 765 99 l 769 103 l 769 106 l 765 110 l 753 110 l 747 106 m 911 96 l 911 91 l 917 87 l 926 87 l 926 91 l 918 99 l 911 96 m 750 65 l 750 62 l 762 61 l 781 61 q 795 68 793 61 l 795 71 l 784 72 l 769 72 q 750 65 751 72 m 1028 43 l 1031 42 q 1076 53 1076 46 l 1070 58 l 1061 58 q 1028 43 1028 53 m 723 43 l 723 37 l 730 30 l 732 30 q 749 46 749 30 l 749 49 l 727 49 l 723 43 m 800 18 l 806 14 l 808 14 q 827 20 825 14 l 827 24 l 815 24 q 800 18 800 23 m 844 18 l 844 14 q 857 5 846 5 l 869 8 l 869 14 l 865 18 l 844 18 m 194 61 l 194 54 l 212 54 l 228 57 l 228 61 l 194 61 m 259 4 l 259 0 q 275 -12 263 -12 q 289 -3 285 -12 l 282 4 l 259 4 m 54 -9 l 54 -12 l 102 -12 l 107 -7 l 107 -5 q 88 3 104 3 l 79 3 q 54 -9 60 3 z "},"Y":{"ha":926,"x_min":-33,"x_max":1055,"o":"m 346 1272 q 355 1265 355 1268 q 346 1146 350 1242 q 302 1133 342 1133 q 435 937 336 1062 l 476 852 q 545 773 499 812 q 631 880 572 795 q 751 1042 680 952 q 783 1108 783 1086 l 774 1114 l 736 1114 q 688 1215 694 1114 q 736 1238 688 1238 q 837 1260 736 1260 l 945 1260 q 1050 1244 1050 1260 q 1055 1200 1055 1232 l 1055 1177 q 1034 1127 1055 1127 q 1015 1099 1023 1127 l 1010 1099 l 986 1120 l 970 1120 q 917 1086 949 1120 l 913 1086 l 907 1108 l 901 1108 q 951 1143 883 1108 q 818 1023 818 1042 q 811 1006 811 1015 l 811 1004 l 812 1004 q 834 1029 822 1005 q 963 1137 949 1111 l 970 1138 q 996 1124 996 1131 l 996 1115 q 773 838 837 922 q 623 640 629 673 l 623 631 q 635 408 635 609 q 661 140 635 140 l 663 140 l 716 130 l 751 126 l 755 114 l 754 57 l 754 42 l 770 23 l 770 16 q 597 -28 739 -28 q 395 -7 395 -24 l 391 41 l 393 104 q 452 130 393 130 q 502 140 502 133 l 502 142 q 480 563 480 221 q 464 614 476 589 q 441 652 464 632 q 260 971 393 746 q 179 1092 260 978 q 157 1099 170 1099 l 72 1096 q 42 1114 42 1101 l 56 1133 q 39 1139 56 1138 l 33 1137 l 33 1124 q 18 1105 33 1112 q -1 1143 4 1105 q -33 1171 -24 1171 l -33 1180 q -14 1199 -14 1187 l -27 1210 q 20 1241 -27 1237 l 58 1241 q 327 1270 142 1241 l 346 1272 m 227 1184 l 227 1181 l 229 1181 l 243 1184 l 286 1175 l 293 1184 q 267 1191 293 1191 l 264 1191 q 227 1184 227 1191 m 989 1161 l 989 1156 l 991 1156 l 998 1158 l 998 1165 l 993 1165 l 989 1161 m 745 1149 l 751 1142 l 755 1142 q 774 1152 769 1142 l 774 1158 l 761 1158 q 745 1149 747 1158 m 210 1120 l 210 1115 l 214 1111 l 217 1111 l 217 1120 l 210 1120 m 222 1099 l 220 1096 q 236 1063 228 1065 l 241 1063 l 241 1066 q 222 1099 241 1082 m 621 829 l 621 821 l 623 821 q 692 924 692 906 l 689 924 q 621 829 666 901 m 355 909 l 353 906 l 353 890 l 362 880 l 376 880 q 384 890 384 880 q 355 909 384 901 m 393 878 l 393 876 l 400 868 l 403 868 l 403 873 l 397 878 l 393 878 m 568 745 l 568 743 q 609 792 575 743 l 609 800 l 604 800 q 568 745 568 762 m 549 658 q 562 639 549 644 l 574 640 l 574 643 q 559 662 574 654 l 555 662 l 549 658 m 590 570 l 590 557 l 594 553 l 602 560 l 602 576 l 597 576 l 590 570 m 518 320 l 517 317 l 517 250 l 518 237 l 526 237 l 526 278 q 518 320 526 320 m 450 45 l 450 42 l 457 35 l 473 35 q 498 45 498 38 l 498 47 l 492 52 l 464 52 q 450 45 450 50 m 651 35 l 651 33 l 685 28 q 711 35 711 28 l 697 41 l 656 41 l 651 35 z "},"Z":{"ha":929,"x_min":27,"x_max":903,"o":"m 675 1215 l 780 1219 q 811 1202 811 1215 q 806 1176 806 1192 q 815 1160 815 1165 l 815 1108 l 815 1103 l 818 1100 q 734 960 818 1058 q 675 849 704 917 q 628 764 666 842 q 438 435 525 609 q 388 359 431 434 q 271 178 335 293 l 271 175 q 293 165 274 165 l 297 165 l 476 178 q 705 159 563 178 q 741 274 722 159 l 751 262 q 777 290 761 282 q 873 289 878 273 q 903 20 892 286 q 492 14 857 22 l 224 -11 q 174 -20 202 -20 l 134 -5 l 88 -12 l 84 -12 q 27 8 34 -12 l 31 18 l 30 39 q 205 330 33 106 q 326 517 209 343 q 591 928 458 741 q 675 1027 609 952 l 677 1036 q 637 1043 669 1043 l 632 1043 q 350 1010 543 1043 l 340 1010 l 243 1017 l 229 985 l 240 878 q 117 846 240 857 q 94 937 94 901 l 91 979 l 91 1005 l 96 1127 l 84 1156 q 113 1188 91 1156 q 179 1166 121 1196 q 435 1196 399 1196 q 675 1215 647 1207 m 419 1168 q 597 1157 419 1158 l 642 1149 q 675 1157 661 1157 l 708 1157 l 758 1192 l 758 1198 q 688 1185 724 1185 q 419 1168 419 1180 m 312 1181 l 312 1176 l 321 1176 q 388 1154 388 1143 l 385 1157 l 359 1191 q 312 1181 339 1191 m 524 1145 l 521 1143 l 521 1141 l 652 1141 l 656 1145 l 616 1147 l 524 1145 m 167 1191 l 164 1188 l 164 1185 q 229 1128 164 1175 l 241 1131 l 241 1135 l 167 1191 m 270 1135 l 270 1131 l 293 1128 q 317 1135 317 1130 l 317 1138 l 305 1141 l 274 1141 l 270 1135 m 435 1134 l 435 1131 q 450 1124 438 1124 l 450 1128 l 445 1134 l 435 1134 m 704 1124 l 578 1127 q 511 1103 544 1111 l 511 1100 l 540 1096 l 552 1096 l 648 1112 q 720 1124 697 1116 l 720 1128 l 718 1128 l 704 1124 m 191 1119 l 195 1080 l 198 1080 q 220 1096 210 1095 l 269 1093 l 300 1093 l 300 1099 q 193 1119 300 1109 l 191 1119 m 293 1051 l 293 1042 l 296 1042 l 359 1051 l 359 1053 l 354 1058 l 326 1058 q 293 1051 311 1058 m 585 821 q 675 929 602 821 l 753 1032 l 753 1036 l 746 1036 q 661 966 712 1036 q 585 830 639 916 l 585 821 m 113 1013 l 113 1008 l 117 1004 l 122 1004 l 122 1008 l 117 1013 l 113 1013 m 113 901 l 115 894 l 119 894 q 138 918 132 901 l 136 925 l 129 925 q 113 901 121 922 m 395 454 l 395 453 q 439 526 415 453 q 461 562 461 553 l 461 564 q 395 454 431 564 m 221 203 l 221 201 q 286 286 259 236 l 286 292 q 224 213 256 264 l 221 203 m 749 178 l 749 170 l 753 165 l 755 165 q 765 182 765 170 l 765 187 l 758 187 l 749 178 m 543 149 q 549 144 543 144 q 572 153 572 146 l 571 156 l 549 156 l 543 149 m 259 132 l 307 132 l 312 137 l 307 141 l 296 141 q 259 132 259 141 m 844 47 q 865 30 849 30 q 875 35 875 30 l 868 104 l 863 104 q 844 47 852 104 m 689 99 l 689 96 q 705 87 689 90 l 708 90 l 708 94 l 704 99 l 689 99 m 739 54 l 743 49 l 753 49 q 768 56 765 49 l 761 64 l 749 64 l 739 54 m 606 54 l 606 49 l 613 49 l 613 54 l 606 54 m 391 45 l 391 39 l 419 37 l 430 37 q 528 45 495 37 l 528 49 l 515 52 l 514 52 q 391 45 434 52 m 274 30 l 274 26 l 278 20 l 283 20 q 340 35 334 20 q 309 42 340 39 q 274 30 274 38 m 62 26 l 62 23 l 68 18 l 98 18 l 106 26 l 106 27 l 98 35 l 84 35 q 62 26 65 35 m 239 16 l 239 11 l 258 11 l 264 18 l 259 23 l 245 23 l 239 16 z "},"[":{"ha":547,"x_min":53,"x_max":528,"o":"m 351 1419 l 475 1419 q 511 1401 511 1419 l 525 1369 l 528 1324 l 528 1321 q 513 1255 525 1259 q 475 1271 490 1271 l 461 1271 l 397 1248 q 231 1229 361 1236 q 171 1219 231 1221 q 155 1154 155 1196 q 180 1138 155 1139 l 180 1131 q 174 1126 180 1126 l 157 1128 l 157 1126 q 174 1100 157 1115 q 151 1020 151 1080 l 152 958 l 152 945 q 164 982 157 945 l 170 982 l 170 963 q 155 920 170 920 l 148 920 l 148 916 l 161 901 l 161 891 l 151 897 q 142 875 142 887 l 142 859 q 160 827 142 844 l 160 825 q 141 774 160 793 l 141 716 l 136 654 l 141 613 l 136 585 l 145 575 l 145 574 l 136 559 q 160 338 136 484 q 190 148 160 221 l 189 119 q 205 56 189 109 l 212 56 q 442 87 340 56 q 465 -5 465 87 q 473 -52 473 -15 l 473 -58 q 461 -91 473 -84 l 437 -90 l 397 -90 l 231 -96 l 160 -94 q 56 -109 117 -96 l 53 -100 l 72 -68 q 57 165 65 -42 l 65 201 l 66 201 l 94 172 l 98 176 l 98 203 q 88 293 98 258 l 85 293 q 75 260 80 293 l 72 260 q 60 471 60 260 q 66 486 62 486 l 72 486 l 91 467 l 94 467 q 103 502 94 488 l 103 511 q 94 528 103 524 q 75 498 77 498 q 57 618 66 498 q 65 635 61 635 l 62 685 l 69 1153 l 66 1160 q 92 1298 76 1298 q 107 1279 107 1298 l 98 1154 q 91 1124 98 1139 l 94 1090 q 81 983 85 1076 q 94 926 85 926 q 133 1221 133 1063 l 133 1242 q 110 1259 133 1248 l 117 1382 q 123 1312 117 1396 l 123 1314 q 94 1344 94 1320 l 94 1350 q 138 1381 94 1355 q 119 1388 137 1388 l 114 1394 q 351 1419 114 1407 m 300 1373 l 304 1369 l 326 1369 l 350 1375 q 407 1369 369 1369 q 480 1381 480 1369 l 480 1388 l 475 1392 q 300 1373 300 1388 m 142 1359 l 141 1356 l 141 1354 l 148 1350 l 174 1350 q 224 1356 224 1350 l 224 1359 l 190 1362 l 142 1359 m 483 1335 l 483 1333 q 496 1318 487 1324 l 506 1318 l 506 1335 l 499 1343 l 496 1343 q 483 1335 483 1340 m 423 1314 l 426 1312 l 454 1312 l 458 1316 l 454 1321 l 437 1321 q 423 1314 423 1320 m 189 1309 l 189 1305 l 195 1305 l 195 1309 l 189 1309 m 92 1389 l 99 1386 l 99 1383 q 88 1363 99 1373 l 83 1367 q 92 1389 83 1382 m 85 1326 l 88 1326 l 88 1322 l 83 1317 l 80 1317 l 80 1322 l 85 1326 m 81 860 q 91 841 84 841 q 98 856 98 844 l 98 875 q 91 894 98 892 q 81 860 84 894 m 84 789 l 84 777 l 88 773 l 94 777 l 94 825 q 84 789 84 825 m 145 822 l 145 818 l 151 818 l 151 822 l 145 822 m 79 716 l 79 688 q 85 669 79 670 l 91 669 l 94 680 l 94 723 l 91 735 l 85 735 q 79 716 79 732 m 79 635 l 79 621 q 85 594 79 594 q 94 618 94 606 l 94 623 q 85 642 94 640 l 79 635 m 76 336 l 76 327 l 85 327 l 85 336 l 76 336 m 62 229 l 65 229 l 72 222 l 72 213 l 62 213 l 60 222 l 62 229 m 161 68 l 161 58 l 170 52 l 176 52 l 183 58 l 183 65 l 174 75 l 170 75 l 161 68 m 145 11 l 145 5 l 151 1 l 157 1 l 161 5 l 161 8 l 157 14 l 145 11 m 212 5 l 212 1 l 218 1 l 218 5 l 212 5 m 380 -53 q 423 -62 380 -62 q 442 -52 442 -62 q 427 -42 439 -42 l 407 -42 q 380 -53 380 -45 m 350 -46 l 350 -56 l 359 -56 l 361 -49 l 357 -43 l 350 -46 z "},"\\":{"ha":802,"x_min":-14,"x_max":783,"o":"m 119 1340 q 258 1112 182 1340 l 464 694 q 499 651 490 673 l 498 629 q 555 547 509 585 q 578 495 555 525 l 651 326 l 651 324 q 632 315 632 320 l 632 312 l 642 312 q 682 239 662 312 q 777 15 728 156 l 783 -4 q 745 -39 783 -23 q 654 -96 684 -96 l 650 -96 l 609 15 q 429 385 537 197 q 312 613 400 423 q 20 1188 79 1034 q -1 1230 -1 1219 l -1 1233 l 11 1249 q -14 1287 11 1256 q 15 1303 -14 1295 q 61 1325 15 1318 q 119 1340 84 1340 m 156 1287 l 156 1280 q 189 1214 175 1221 l 191 1214 l 191 1217 q 163 1294 174 1294 l 156 1287 m 84 1237 l 84 1236 q 100 1207 84 1218 l 103 1207 l 103 1211 q 84 1237 103 1226 m 134 1017 l 134 1008 l 138 998 l 148 998 l 148 1005 q 134 1017 142 1017 m 300 850 l 300 846 q 336 780 313 800 l 338 781 l 338 784 q 302 850 313 850 l 300 850 m 445 506 l 445 505 q 460 495 448 495 l 460 496 q 445 506 457 506 m 528 487 q 621 319 591 343 q 632 328 631 323 l 632 335 q 593 392 632 349 l 545 483 l 533 490 l 530 487 l 528 487 m 464 476 q 483 430 477 430 l 488 430 l 488 433 q 467 476 488 449 l 464 476 m 537 328 l 537 319 q 571 252 559 266 l 574 252 l 578 258 q 543 334 555 326 l 537 328 m 682 164 l 682 157 q 694 136 682 145 l 697 136 l 701 141 q 688 170 696 170 l 682 164 m 604 125 l 604 119 q 632 49 604 79 l 637 53 q 606 125 617 117 l 604 125 m 669 115 l 666 113 q 678 98 669 103 l 682 98 l 682 100 q 669 115 675 113 m 708 115 l 708 106 l 713 100 l 718 100 l 718 103 l 716 115 l 708 115 m 727 20 l 727 11 q 745 -8 727 -8 l 746 -8 q 754 5 754 -7 q 732 24 747 24 l 727 20 m 656 -71 l 656 -65 l 651 -61 l 656 -71 z "},"]":{"ha":598,"x_min":19,"x_max":555,"o":"m 525 1407 q 555 1377 544 1407 l 555 1374 q 517 1036 530 1335 q 506 769 506 837 l 506 707 q 536 118 506 245 l 538 61 l 538 35 q 522 -53 538 -19 l 529 -62 q 522 -76 526 -76 l 503 -60 l 494 -60 l 487 -66 l 487 -69 q 507 -103 487 -79 l 507 -107 q 251 -155 507 -130 q 161 -141 217 -155 l 71 -164 q 41 -138 41 -164 q 61 33 46 33 q 92 47 84 47 l 111 45 q 137 66 123 45 q 187 73 163 73 l 213 73 l 326 66 l 365 121 q 374 144 365 130 l 370 159 q 384 279 384 171 l 387 419 l 387 823 q 380 916 387 891 l 377 1153 l 377 1206 q 142 1168 202 1184 l 88 1169 l 85 1169 l 47 1158 q 22 1179 22 1169 q 33 1238 33 1194 l 33 1255 q 19 1324 33 1310 l 19 1329 q 92 1378 52 1378 q 202 1402 142 1396 q 297 1396 252 1396 l 358 1396 q 525 1407 481 1396 m 235 1336 q 335 1326 235 1332 q 370 1336 370 1328 l 370 1340 q 355 1348 368 1348 l 327 1340 l 308 1348 l 289 1348 q 235 1336 241 1348 m 168 1331 l 152 1331 l 80 1329 l 80 1321 l 88 1314 l 111 1314 q 212 1333 212 1321 l 209 1336 l 206 1336 l 168 1331 m 418 1314 l 418 1302 l 422 1298 l 425 1301 l 425 1310 l 420 1314 l 418 1314 m 231 1286 l 231 1282 q 370 1295 370 1284 q 354 1302 369 1302 q 231 1286 231 1298 m 149 1291 l 149 1286 l 155 1282 q 171 1291 171 1284 l 168 1293 l 161 1293 l 149 1291 m 80 1276 l 80 1270 l 88 1270 q 140 1282 140 1272 l 136 1286 l 102 1286 q 80 1276 84 1286 m 351 1263 l 346 1255 l 351 1251 l 363 1251 l 363 1260 l 351 1263 m 152 1226 l 155 1225 q 317 1251 317 1240 l 317 1255 q 155 1232 256 1255 l 152 1229 l 152 1226 m 456 1200 l 456 1162 l 460 1158 l 463 1158 q 475 1187 472 1158 l 469 1248 l 465 1248 q 456 1200 457 1248 m 114 1229 l 114 1225 l 121 1225 l 121 1229 l 114 1229 m 420 1219 l 418 1207 l 418 1162 q 427 1141 418 1145 l 431 1141 l 434 1149 l 427 1219 l 420 1219 m 123 1194 l 123 1191 l 146 1191 l 152 1196 l 149 1198 l 127 1198 l 123 1194 m 401 1067 l 401 1055 l 411 1055 l 412 1065 l 411 1073 l 406 1073 l 401 1067 m 468 621 l 468 586 l 475 586 l 479 624 l 477 640 l 475 640 q 468 621 468 639 m 468 562 l 468 533 l 469 533 l 477 541 l 477 548 q 469 562 477 560 l 468 562 m 441 286 q 430 191 430 256 l 430 180 l 434 175 l 437 175 q 450 273 450 175 l 449 286 l 441 286 m 384 114 l 384 95 q 393 66 384 66 l 396 66 q 412 114 407 66 l 412 121 q 393 146 412 146 q 384 114 387 146 m 99 -37 l 99 -38 l 107 -46 l 137 -46 l 199 -38 l 199 -31 l 140 -28 q 99 -37 99 -28 m 247 -47 l 247 -53 l 363 -53 l 380 -50 l 380 -46 l 311 -37 q 247 -47 271 -38 m 66 -114 l 66 -126 l 76 -136 l 95 -136 l 99 -132 l 99 -126 q 80 -100 99 -113 l 73 -100 q 66 -114 66 -103 m 209 -107 q 240 -117 209 -114 l 240 -114 l 241 -107 l 259 -107 l 259 -104 l 254 -100 l 222 -100 q 209 -107 209 -102 z "},"_":{"ha":674,"x_min":61,"x_max":633,"o":"m 623 174 q 627 24 633 172 l 629 24 q 434 14 627 4 q 153 1 216 -5 l 153 7 q 316 23 156 23 q 387 39 385 31 l 387 41 l 368 43 q 140 8 145 54 l 125 3 q 76 142 61 11 q 228 176 80 178 q 248 179 229 180 l 285 168 l 301 165 l 613 175 l 623 174 m 560 148 l 559 142 l 575 141 l 587 142 l 589 146 l 571 148 l 560 148 m 475 136 l 498 133 q 521 140 517 132 l 521 142 l 515 144 q 475 136 476 144 m 373 132 l 373 126 l 376 126 q 397 133 393 123 l 397 136 l 389 137 q 373 132 374 137 m 491 96 l 532 91 q 600 100 593 87 l 600 104 l 591 109 q 491 96 492 106 m 282 125 l 281 118 l 283 118 q 347 127 323 113 l 347 129 l 342 130 q 282 125 321 133 m 107 138 l 104 115 l 109 110 l 111 110 q 123 132 117 109 l 123 140 l 119 144 l 115 145 l 107 138 m 164 132 l 163 130 l 172 129 l 178 133 l 179 137 l 171 138 l 164 132 m 452 98 l 450 94 l 460 92 l 456 98 l 452 98 m 426 42 l 427 41 q 597 38 595 28 l 597 41 q 587 53 597 46 l 585 54 q 426 43 524 61 l 426 42 m 100 90 l 100 84 l 106 84 l 110 88 l 111 92 l 106 94 l 100 90 z "},"":{"ha":1150,"x_min":-7,"x_max":1078,"o":"m 765 1382 l 766 1382 l 779 1379 l 779 1375 q 772 1358 772 1366 l 772 1356 l 784 1356 q 823 1377 807 1377 q 1061 1332 1061 1369 l 1063 1318 q 1023 1208 1063 1208 q 1009 1215 1021 1215 q 975 1206 996 1206 l 959 1206 l 871 1221 q 594 1139 762 1221 q 472 1072 481 1099 q 396 952 396 985 q 347 815 347 840 q 339 793 347 802 l 339 784 q 481 758 430 758 l 537 768 q 792 734 697 734 q 954 693 827 719 q 972 662 972 678 l 940 636 l 940 633 q 966 620 966 628 l 966 612 l 949 610 l 928 610 q 595 632 815 610 q 357 654 495 632 l 354 654 q 338 547 347 654 q 392 518 338 524 q 700 477 650 477 l 895 449 q 918 441 903 441 l 937 441 l 962 460 l 963 460 q 972 415 972 433 q 892 365 972 365 l 807 365 q 741 355 780 365 l 627 373 l 646 357 l 415 392 l 389 392 l 380 382 l 380 380 q 401 231 392 345 q 534 56 407 191 q 718 -28 590 5 l 895 -85 l 1019 -95 q 1040 -118 1021 -118 q 1069 -130 1069 -118 q 1078 -210 1073 -137 q 1019 -254 1078 -233 l 943 -260 q 614 -156 886 -260 q 368 12 483 -99 q 228 208 254 125 q 161 397 190 283 q 76 416 76 397 l 38 416 q 15 461 15 416 q 7 477 9 461 q 24 534 15 477 l 28 540 l 47 537 q 145 551 145 541 l 145 556 q 130 674 142 674 l -3 696 l -3 699 q 41 705 -3 705 l 85 705 l 133 708 l 133 712 l 121 715 q -7 741 -7 715 l -7 762 q 19 819 -7 799 l 28 819 q 53 810 41 810 q 72 815 72 810 q 138 798 95 798 l 161 798 q 190 854 184 798 q 271 1063 233 1023 q 427 1234 389 1184 q 765 1382 651 1382 m 1004 1306 l 1004 1301 q 1021 1291 1008 1291 l 1025 1291 q 1035 1309 1035 1295 q 1025 1322 1035 1318 l 1016 1322 q 1004 1306 1004 1318 m 639 1301 q 662 1316 651 1301 l 658 1320 q 639 1301 639 1316 m 731 1313 l 736 1309 l 755 1309 l 760 1313 q 746 1320 757 1320 q 731 1313 731 1318 m 774 1313 l 774 1306 l 814 1301 q 829 1309 829 1303 l 829 1310 l 822 1318 l 814 1318 l 774 1313 m 513 1263 q 525 1256 513 1257 q 567 1282 567 1267 l 553 1282 q 513 1263 515 1272 m 990 1261 l 990 1259 l 994 1259 l 994 1261 l 990 1261 m 852 1253 l 852 1252 l 867 1252 l 867 1253 l 861 1259 l 857 1259 l 852 1253 m 490 1244 l 494 1244 l 503 1252 l 500 1253 l 499 1253 q 490 1244 491 1252 m 655 1233 l 655 1227 l 665 1227 q 757 1244 757 1234 l 750 1249 l 719 1249 q 655 1233 671 1249 m 509 1225 l 509 1223 l 513 1218 l 515 1218 l 522 1225 l 522 1230 l 513 1230 l 509 1225 m 453 1180 q 490 1206 467 1180 l 487 1206 q 453 1180 453 1198 m 572 1180 l 572 1173 l 576 1168 l 579 1168 l 589 1177 l 589 1180 l 585 1185 l 576 1185 l 572 1180 m 357 1104 l 363 1104 q 406 1157 385 1104 l 404 1157 q 357 1104 357 1120 m 525 1135 l 528 1133 q 541 1145 537 1135 l 541 1152 l 537 1152 q 525 1135 525 1145 m 297 1038 l 297 1034 l 304 1025 l 307 1025 q 358 1069 324 1025 l 358 1078 q 347 1085 358 1084 q 297 1038 297 1076 m 294 891 l 294 886 q 309 879 297 879 l 326 879 q 335 895 335 883 l 335 898 q 304 910 331 910 l 301 910 q 294 891 294 907 m 281 788 l 282 787 l 294 787 q 313 825 307 787 l 313 841 l 307 848 l 301 848 q 281 788 289 848 m 281 749 l 281 746 l 285 741 q 300 749 297 741 l 300 753 l 285 753 l 281 749 m 330 743 q 433 724 415 724 l 465 724 l 465 731 l 347 749 l 335 749 l 330 743 m 85 741 l 85 736 l 123 736 q 100 746 123 743 l 91 746 l 85 741 m 662 709 l 662 705 l 696 700 l 712 700 q 662 709 712 707 m 639 652 q 745 643 639 644 l 795 643 l 795 648 q 719 659 795 656 l 669 659 q 639 652 639 659 m 186 582 l 186 563 q 199 540 186 549 l 214 540 q 225 570 225 543 l 225 591 q 218 617 225 617 l 216 617 l 190 597 l 186 582 m 297 560 q 304 540 298 540 l 307 540 l 309 551 l 309 589 l 304 589 q 297 560 298 589 m 53 522 l 50 521 l 50 502 q 64 494 53 494 l 138 494 l 142 499 l 53 522 m 408 473 l 423 468 l 434 468 q 484 477 484 468 l 481 480 l 480 480 l 415 484 q 408 473 410 484 m 54 449 l 57 449 q 133 458 133 449 l 129 464 l 102 464 q 54 449 66 464 m 129 433 l 130 426 l 145 426 q 157 439 157 431 l 155 439 l 148 442 q 129 433 140 442 m 610 450 q 624 444 612 444 l 646 444 l 646 450 l 617 456 l 614 456 l 610 450 m 319 430 l 319 426 l 326 418 l 332 418 l 339 426 l 330 435 l 323 435 l 319 430 m 667 449 l 667 444 l 684 441 l 693 441 l 697 446 l 697 449 l 667 449 m 377 427 l 376 426 l 376 423 q 534 399 384 416 q 591 392 594 378 l 598 393 l 598 396 q 465 418 598 415 q 377 427 433 427 m 190 392 l 190 385 q 233 338 190 372 l 237 338 l 237 342 q 214 395 237 395 l 205 397 l 195 397 l 190 392 m 762 389 l 769 387 q 783 399 779 389 l 783 401 l 776 401 l 762 389 m 292 369 q 316 271 304 271 l 326 271 l 328 278 q 294 369 302 369 l 292 369 m 357 347 l 357 342 q 368 313 357 324 l 370 313 l 370 323 q 358 347 370 342 l 357 347 m 216 326 l 216 321 q 231 312 221 312 l 233 313 l 233 316 q 218 326 231 326 l 216 326 m 228 278 q 254 224 228 255 l 259 224 l 259 233 q 228 278 250 278 m 273 186 l 273 176 q 304 152 273 164 l 304 161 q 273 186 286 186 m 332 136 l 332 132 l 338 126 l 339 129 l 342 129 l 339 136 l 332 136 m 377 98 l 376 91 q 433 47 376 77 q 468 28 449 28 l 472 28 l 472 31 q 396 94 472 39 l 377 98 m 345 79 l 345 76 l 354 66 l 361 75 l 357 79 l 345 79 m 382 46 l 382 41 q 433 -1 414 -1 l 434 -1 l 434 15 q 392 46 410 46 l 382 46 m 509 9 l 509 5 l 513 0 l 515 0 l 522 8 l 522 9 l 518 15 l 513 15 l 509 9 m 538 -35 l 538 -39 q 604 -71 572 -71 l 608 -71 l 613 -66 q 544 -35 570 -38 l 538 -35 m 681 -80 l 680 -83 l 680 -85 q 719 -104 680 -91 l 727 -102 l 727 -96 q 681 -80 713 -80 m 576 -102 l 576 -104 q 643 -134 613 -129 l 643 -130 q 576 -102 616 -111 m 738 -104 l 738 -106 q 776 -130 738 -127 l 779 -123 q 753 -104 768 -104 l 738 -104 m 817 -123 l 817 -130 l 823 -130 l 838 -125 l 836 -118 l 833 -118 l 817 -123 m 1035 -137 l 1035 -142 l 1042 -149 l 1044 -149 l 1044 -144 l 1038 -137 l 1035 -137 m 902 -149 l 902 -152 q 956 -161 902 -161 l 1006 -161 l 1006 -156 q 945 -144 1006 -144 l 907 -144 l 902 -149 m 1016 -187 q 1038 -199 1016 -194 l 1047 -199 l 1051 -194 l 1051 -184 l 1044 -178 l 1032 -178 q 1016 -187 1020 -178 m 803 -190 l 803 -194 q 841 -210 818 -210 l 854 -210 l 861 -203 l 861 -194 q 848 -187 860 -187 l 838 -187 l 803 -190 m 890 -218 q 918 -229 903 -229 l 933 -229 l 971 -225 l 971 -218 q 907 -209 941 -209 q 890 -218 894 -209 z "},"a":{"ha":1006,"x_min":37,"x_max":991,"o":"m 492 1027 q 618 1000 525 1027 q 747 838 728 895 q 814 666 787 798 q 844 532 844 637 l 846 487 l 840 300 q 909 159 840 245 q 991 98 971 98 l 991 95 q 925 22 991 72 q 863 -26 876 -26 l 861 -26 q 709 85 833 -24 q 486 -4 600 45 q 320 -26 411 -26 l 311 -26 q 137 53 208 -8 q 83 148 125 65 q 49 250 49 189 l 49 304 q 77 401 49 355 q 163 548 103 476 q 222 594 193 585 q 416 646 321 646 l 502 648 l 511 648 q 614 627 586 648 l 625 627 q 633 636 633 627 q 567 806 614 722 q 412 875 526 875 l 336 884 q 236 844 236 865 q 189 718 198 795 q 121 708 184 708 l 109 705 q 90 673 102 705 q 37 694 37 681 q 52 831 43 711 q 194 990 81 917 q 258 1021 248 1021 l 492 1027 m 464 983 l 472 977 l 481 977 l 486 981 l 479 989 l 469 989 l 464 983 m 609 974 l 609 970 q 635 955 623 955 l 637 955 l 637 960 q 612 974 624 974 l 609 974 m 311 964 l 311 960 q 330 952 312 952 q 377 964 347 952 l 377 971 l 369 971 q 311 964 330 971 m 141 901 l 144 901 q 194 936 160 901 l 194 943 l 191 943 q 141 903 174 943 l 141 901 m 393 910 l 400 901 l 425 901 l 429 905 l 429 907 l 419 917 l 403 917 l 393 910 m 121 761 l 121 732 l 122 732 q 130 746 130 734 l 130 761 l 125 765 l 121 761 m 808 614 l 808 610 q 815 595 810 595 l 818 605 q 811 614 814 614 l 808 614 m 761 544 l 761 538 q 777 510 769 510 l 780 510 q 768 548 780 534 l 766 548 l 761 544 m 194 528 l 194 519 l 198 519 q 217 532 212 519 l 217 537 l 216 537 l 194 528 m 194 358 q 225 244 206 244 l 244 221 l 244 218 l 227 221 l 227 216 q 374 123 266 168 q 412 114 389 117 q 673 224 450 114 q 688 245 688 232 l 688 255 q 659 435 671 331 l 656 437 q 614 471 656 457 q 425 510 476 510 q 227 415 283 477 q 194 358 194 380 m 757 484 l 757 477 l 761 477 l 761 480 l 757 484 m 758 444 l 758 437 l 764 433 l 768 437 l 768 444 l 758 444 m 704 392 l 709 385 l 716 387 l 716 392 l 711 396 l 709 396 l 704 392 m 770 392 l 770 389 q 785 319 773 319 l 789 323 l 789 326 q 777 392 789 363 l 770 392 m 700 328 l 700 319 l 707 311 l 709 311 l 716 319 l 716 328 l 711 332 l 704 332 l 700 328 m 859 155 l 859 142 q 875 119 865 119 l 880 119 l 880 123 q 863 155 872 155 l 859 155 m 165 145 l 165 142 l 170 138 l 179 138 l 179 142 l 172 149 l 170 149 l 165 145 m 799 119 q 814 102 804 106 l 815 102 l 823 110 l 823 114 l 814 123 l 804 123 l 799 119 m 530 98 l 530 95 l 540 95 q 609 117 567 95 l 609 119 l 602 119 q 530 98 537 110 m 842 85 l 842 81 l 849 73 l 859 73 l 863 79 l 863 81 l 853 91 l 846 91 l 842 85 m 374 72 q 391 62 378 62 q 410 72 410 64 l 410 73 l 406 79 l 381 79 l 374 72 m 170 45 l 170 43 q 264 0 179 24 q 339 -14 296 -14 l 339 -12 q 267 9 339 -4 q 182 50 221 26 l 175 50 l 170 45 z "},"b":{"ha":929,"x_min":-46,"x_max":887,"o":"m 56 1364 l 58 1362 l 58 1359 l 53 1355 q 68 1347 56 1347 l 71 1347 l 75 1352 l 68 1362 l 71 1364 l 146 1364 q 210 1324 210 1364 l 217 1317 l 222 1317 l 227 1321 l 227 1324 l 222 1340 l 224 1343 l 227 1343 q 274 1241 274 1343 q 302 903 274 1008 l 308 903 l 426 910 q 640 872 640 897 q 713 814 646 872 q 850 637 819 727 q 884 431 884 602 l 887 374 q 831 236 831 259 q 680 56 831 165 q 452 7 661 12 q 321 23 357 23 l 279 23 q 248 -1 248 23 l 208 -53 q 156 -62 179 -62 q 65 -27 134 -62 l 65 -20 q 77 11 77 -3 l 77 18 l 71 52 l 75 77 l 75 113 l 68 149 q 90 315 90 270 l 96 334 l 94 358 l 109 492 l 109 500 q 84 806 109 540 l 84 808 l 81 811 l 84 823 l 84 830 q 94 1043 94 962 l 91 1184 l 90 1194 l 87 1194 q -18 1156 15 1156 q -46 1257 -39 1156 q -34 1280 -46 1264 l -34 1286 l -37 1286 l -43 1283 l -46 1286 q -30 1356 -46 1356 q 56 1364 -7 1364 m 222 1362 l 222 1356 l 213 1355 l 210 1356 l 210 1359 l 213 1362 l 222 1362 m 103 1333 l 103 1331 l 109 1331 l 109 1333 l 103 1333 m 138 1326 l 138 1324 l 153 1324 l 153 1333 l 146 1333 l 138 1326 m -30 1326 l -30 1324 q 11 1309 -30 1317 q 49 1318 49 1310 l 49 1321 q -8 1326 27 1326 l -30 1326 m 160 1293 l 160 1261 l 165 1257 q 182 1289 182 1268 q 175 1302 182 1301 l 170 1302 l 160 1293 m 99 1267 l 106 1260 l 125 1260 l 134 1270 l 134 1279 l 127 1286 l 125 1286 q 99 1267 99 1286 m -1 1283 l -4 1271 l -4 1255 q 15 1245 -4 1248 q 46 1261 43 1245 q 1 1283 20 1283 l -1 1283 m 56 1276 l 56 1274 l 62 1267 l 77 1267 l 77 1271 l 72 1276 l 56 1276 m 163 1124 q 176 1084 168 1084 l 179 1084 l 179 1086 q 167 1131 176 1131 q 163 1124 163 1131 m 528 872 l 528 868 q 549 859 532 859 l 552 859 l 552 863 l 543 872 l 528 872 m 391 852 l 395 846 l 407 846 l 423 852 l 423 861 l 414 863 q 391 852 396 863 m 305 796 l 305 789 l 308 789 q 355 806 355 799 l 355 811 l 353 811 q 305 796 334 811 m 594 804 q 647 770 594 785 q 701 720 686 720 l 701 723 q 669 777 692 762 q 602 804 618 804 l 594 804 m 251 429 q 255 343 251 373 l 252 296 l 252 210 q 340 160 252 186 q 412 153 365 153 q 647 213 510 153 q 749 365 693 251 l 761 410 q 701 612 761 505 q 642 716 689 671 l 556 777 q 283 719 423 777 q 262 587 267 719 q 251 429 251 522 m 830 625 l 830 618 q 844 605 830 605 l 846 605 l 846 606 q 834 625 846 620 l 830 625 m 765 576 l 765 571 l 770 567 l 774 567 l 774 571 l 770 576 l 765 576 m 783 182 l 783 179 q 821 264 810 179 l 808 264 q 787 194 802 264 q 783 182 783 194 m 736 213 l 736 210 l 742 206 q 764 229 764 216 l 758 235 l 751 235 q 736 213 736 225 m 604 168 l 604 163 l 609 159 l 612 159 q 637 170 637 161 l 631 178 l 621 178 q 604 168 608 178 m 267 170 l 267 168 q 281 160 270 160 l 281 163 q 267 170 279 170 m 194 163 l 194 151 l 198 146 l 201 146 l 205 151 l 205 153 q 198 168 205 165 l 194 163 m 661 115 l 661 109 q 727 137 722 126 l 727 141 q 661 115 711 141 m 84 118 l 84 113 l 90 109 l 94 109 l 94 113 l 90 118 l 84 118 m 566 102 l 566 96 l 583 96 l 590 103 l 590 106 l 571 106 l 566 102 m 433 73 l 435 71 l 454 71 q 505 84 498 73 l 505 90 l 498 90 q 433 73 452 90 m 264 80 l 264 75 q 296 65 264 68 l 300 65 l 300 71 q 277 80 300 77 l 264 80 m 175 46 l 182 45 q 198 61 198 50 l 189 61 q 175 46 175 61 m 129 46 l 129 39 l 137 33 l 146 33 l 146 39 l 137 49 l 129 46 m 585 30 l 585 26 l 590 26 l 590 30 l 585 30 z "}}}
